# base_core_battery.obj  Y-up, meters, origin at ground/wall contact
mtllib base_core_battery.mtl
v -0.3695 0.0000 0.0200
v 0.3695 0.0000 0.0200
v 0.3695 0.0600 0.0200
v -0.3695 0.0600 0.0200
v -0.3695 0.0000 0.5390
v 0.3695 0.0000 0.5390
v 0.3695 0.0600 0.5390
v -0.3695 0.0600 0.5390
v -0.3895 0.0600 0.0000
v 0.3895 0.0600 0.0000
v 0.3895 0.9730 0.0000
v -0.3895 0.9730 0.0000
v -0.3895 0.0600 0.5590
v 0.3895 0.0600 0.5590
v 0.3895 0.9730 0.5590
v -0.3895 0.9730 0.5590
v -0.3795 0.9730 0.0100
v 0.3795 0.9730 0.0100
v 0.3795 1.0030 0.0100
v -0.3795 1.0030 0.0100
v -0.3795 0.9730 0.5490
v 0.3795 0.9730 0.5490
v 0.3795 1.0030 0.5490
v -0.3795 1.0030 0.5490
v -0.3395 0.3410 0.5590
v 0.3395 0.3410 0.5590
v 0.3395 0.8626 0.5590
v -0.3395 0.8626 0.5590
v -0.3395 0.3410 0.5670
v 0.3395 0.3410 0.5670
v 0.3395 0.8626 0.5670
v -0.3395 0.8626 0.5670
v -0.3395 0.1103 0.5590
v 0.3395 0.1103 0.5590
v 0.3395 0.2909 0.5590
v -0.3395 0.2909 0.5590
v -0.3395 0.1103 0.5670
v 0.3395 0.1103 0.5670
v 0.3395 0.2909 0.5670
v -0.3395 0.2909 0.5670
v -0.3395 0.3180 0.5620
v 0.3395 0.3180 0.5620
v 0.3395 0.3240 0.5620
v -0.3395 0.3240 0.5620
v -0.3395 0.3180 0.5680
v 0.3395 0.3180 0.5680
v 0.3395 0.3240 0.5680
v -0.3395 0.3240 0.5680
v -0.0800 0.8566 0.5660
v 0.0800 0.8566 0.5660
v 0.0800 0.8686 0.5660
v -0.0800 0.8686 0.5660
v -0.0800 0.8566 0.5700
v 0.0800 0.8566 0.5700
v 0.0800 0.8686 0.5700
v -0.0800 0.8686 0.5700
v -0.0500 0.7683 0.5665
v 0.0500 0.7683 0.5665
v 0.0500 0.7963 0.5665
v -0.0500 0.7963 0.5665
v -0.0500 0.7683 0.5695
v 0.0500 0.7683 0.5695
v 0.0500 0.7963 0.5695
v -0.0500 0.7963 0.5695
v 0.2395 0.2758 0.5665
v 0.2995 0.2758 0.5665
v 0.2995 0.2858 0.5665
v 0.2395 0.2858 0.5665
v 0.2395 0.2758 0.5695
v 0.2995 0.2758 0.5695
v 0.2995 0.2858 0.5695
v 0.2395 0.2858 0.5695
v -0.3045 0.1179 0.5665
v -0.2345 0.1179 0.5665
v -0.2345 0.1629 0.5665
v -0.3045 0.1629 0.5665
v -0.3045 0.1179 0.5695
v -0.2345 0.1179 0.5695
v -0.2345 0.1629 0.5695
v -0.3045 0.1629 0.5695
v -0.2945 0.1474 0.5690
v -0.2445 0.1474 0.5690
v -0.2445 0.1534 0.5690
v -0.2945 0.1534 0.5690
v -0.2945 0.1474 0.5710
v -0.2445 0.1474 0.5710
v -0.2445 0.1534 0.5710
v -0.2945 0.1534 0.5710
v -0.3955 0.2939 0.1258
v -0.3895 0.2939 0.1258
v -0.3895 0.3079 0.1258
v -0.3955 0.3079 0.1258
v -0.3955 0.2939 0.4332
v -0.3895 0.2939 0.4332
v -0.3895 0.3079 0.4332
v -0.3955 0.3079 0.4332
v -0.3955 0.3389 0.1258
v -0.3895 0.3389 0.1258
v -0.3895 0.3529 0.1258
v -0.3955 0.3529 0.1258
v -0.3955 0.3389 0.4332
v -0.3895 0.3389 0.4332
v -0.3895 0.3529 0.4332
v -0.3955 0.3529 0.4332
v -0.3955 0.3839 0.1258
v -0.3895 0.3839 0.1258
v -0.3895 0.3979 0.1258
v -0.3955 0.3979 0.1258
v -0.3955 0.3839 0.4332
v -0.3895 0.3839 0.4332
v -0.3895 0.3979 0.4332
v -0.3955 0.3979 0.4332
v -0.3955 0.4289 0.1258
v -0.3895 0.4289 0.1258
v -0.3895 0.4429 0.1258
v -0.3955 0.4429 0.1258
v -0.3955 0.4289 0.4332
v -0.3895 0.4289 0.4332
v -0.3895 0.4429 0.4332
v -0.3955 0.4429 0.4332
v -0.3955 0.4739 0.1258
v -0.3895 0.4739 0.1258
v -0.3895 0.4879 0.1258
v -0.3955 0.4879 0.1258
v -0.3955 0.4739 0.4332
v -0.3895 0.4739 0.4332
v -0.3895 0.4879 0.4332
v -0.3955 0.4879 0.4332
v -0.3955 0.5189 0.1258
v -0.3895 0.5189 0.1258
v -0.3895 0.5329 0.1258
v -0.3955 0.5329 0.1258
v -0.3955 0.5189 0.4332
v -0.3895 0.5189 0.4332
v -0.3895 0.5329 0.4332
v -0.3955 0.5329 0.4332
v -0.3955 0.5639 0.1258
v -0.3895 0.5639 0.1258
v -0.3895 0.5779 0.1258
v -0.3955 0.5779 0.1258
v -0.3955 0.5639 0.4332
v -0.3895 0.5639 0.4332
v -0.3895 0.5779 0.4332
v -0.3955 0.5779 0.4332
v -0.3955 0.6089 0.1258
v -0.3895 0.6089 0.1258
v -0.3895 0.6229 0.1258
v -0.3955 0.6229 0.1258
v -0.3955 0.6089 0.4332
v -0.3895 0.6089 0.4332
v -0.3895 0.6229 0.4332
v -0.3955 0.6229 0.4332
v -0.3955 0.6539 0.1258
v -0.3895 0.6539 0.1258
v -0.3895 0.6679 0.1258
v -0.3955 0.6679 0.1258
v -0.3955 0.6539 0.4332
v -0.3895 0.6539 0.4332
v -0.3895 0.6679 0.4332
v -0.3955 0.6679 0.4332
v 0.3895 0.2939 0.1258
v 0.3955 0.2939 0.1258
v 0.3955 0.3079 0.1258
v 0.3895 0.3079 0.1258
v 0.3895 0.2939 0.4332
v 0.3955 0.2939 0.4332
v 0.3955 0.3079 0.4332
v 0.3895 0.3079 0.4332
v 0.3895 0.3389 0.1258
v 0.3955 0.3389 0.1258
v 0.3955 0.3529 0.1258
v 0.3895 0.3529 0.1258
v 0.3895 0.3389 0.4332
v 0.3955 0.3389 0.4332
v 0.3955 0.3529 0.4332
v 0.3895 0.3529 0.4332
v 0.3895 0.3839 0.1258
v 0.3955 0.3839 0.1258
v 0.3955 0.3979 0.1258
v 0.3895 0.3979 0.1258
v 0.3895 0.3839 0.4332
v 0.3955 0.3839 0.4332
v 0.3955 0.3979 0.4332
v 0.3895 0.3979 0.4332
v 0.3895 0.4289 0.1258
v 0.3955 0.4289 0.1258
v 0.3955 0.4429 0.1258
v 0.3895 0.4429 0.1258
v 0.3895 0.4289 0.4332
v 0.3955 0.4289 0.4332
v 0.3955 0.4429 0.4332
v 0.3895 0.4429 0.4332
v 0.3895 0.4739 0.1258
v 0.3955 0.4739 0.1258
v 0.3955 0.4879 0.1258
v 0.3895 0.4879 0.1258
v 0.3895 0.4739 0.4332
v 0.3955 0.4739 0.4332
v 0.3955 0.4879 0.4332
v 0.3895 0.4879 0.4332
v 0.3895 0.5189 0.1258
v 0.3955 0.5189 0.1258
v 0.3955 0.5329 0.1258
v 0.3895 0.5329 0.1258
v 0.3895 0.5189 0.4332
v 0.3955 0.5189 0.4332
v 0.3955 0.5329 0.4332
v 0.3895 0.5329 0.4332
v 0.3895 0.5639 0.1258
v 0.3955 0.5639 0.1258
v 0.3955 0.5779 0.1258
v 0.3895 0.5779 0.1258
v 0.3895 0.5639 0.4332
v 0.3955 0.5639 0.4332
v 0.3955 0.5779 0.4332
v 0.3895 0.5779 0.4332
v 0.3895 0.6089 0.1258
v 0.3955 0.6089 0.1258
v 0.3955 0.6229 0.1258
v 0.3895 0.6229 0.1258
v 0.3895 0.6089 0.4332
v 0.3955 0.6089 0.4332
v 0.3955 0.6229 0.4332
v 0.3895 0.6229 0.4332
v 0.3895 0.6539 0.1258
v 0.3955 0.6539 0.1258
v 0.3955 0.6679 0.1258
v 0.3895 0.6679 0.1258
v 0.3895 0.6539 0.4332
v 0.3955 0.6539 0.4332
v 0.3955 0.6679 0.4332
v 0.3895 0.6679 0.4332
v 0.2195 0.1305 0.5590
v 0.3195 0.1305 0.5590
v 0.3195 0.2105 0.5590
v 0.2195 0.2105 0.5590
v 0.2195 0.1305 0.5790
v 0.3195 0.1305 0.5790
v 0.3195 0.2105 0.5790
v 0.2195 0.2105 0.5790
v -0.3895 0.2800 0.1957
v -0.4195 0.2800 0.1957
v -0.3895 0.2760 0.2107
v -0.4195 0.2760 0.2107
v -0.3895 0.2650 0.2216
v -0.4195 0.2650 0.2216
v -0.3895 0.2500 0.2257
v -0.4195 0.2500 0.2257
v -0.3895 0.2350 0.2216
v -0.4195 0.2350 0.2216
v -0.3895 0.2240 0.2107
v -0.4195 0.2240 0.2107
v -0.3895 0.2200 0.1957
v -0.4195 0.2200 0.1957
v -0.3895 0.2240 0.1807
v -0.4195 0.2240 0.1807
v -0.3895 0.2350 0.1697
v -0.4195 0.2350 0.1697
v -0.3895 0.2500 0.1657
v -0.4195 0.2500 0.1657
v -0.3895 0.2650 0.1697
v -0.4195 0.2650 0.1697
v -0.3895 0.2760 0.1807
v -0.4195 0.2760 0.1807
v -0.3895 0.2500 0.1957
v -0.4195 0.2500 0.1957
v -0.4045 0.2720 0.1957
v -0.4945 0.2720 0.1957
v -0.4045 0.2698 0.2052
v -0.4945 0.2698 0.2052
v -0.4045 0.2637 0.2129
v -0.4945 0.2637 0.2129
v -0.4045 0.2549 0.2171
v -0.4945 0.2549 0.2171
v -0.4045 0.2451 0.2171
v -0.4945 0.2451 0.2171
v -0.4045 0.2363 0.2129
v -0.4945 0.2363 0.2129
v -0.4045 0.2302 0.2052
v -0.4945 0.2302 0.2052
v -0.4045 0.2280 0.1957
v -0.4945 0.2280 0.1957
v -0.4045 0.2302 0.1861
v -0.4945 0.2302 0.1861
v -0.4045 0.2363 0.1784
v -0.4945 0.2363 0.1784
v -0.4045 0.2451 0.1742
v -0.4945 0.2451 0.1742
v -0.4045 0.2549 0.1742
v -0.4945 0.2549 0.1742
v -0.4045 0.2637 0.1784
v -0.4945 0.2637 0.1784
v -0.4045 0.2698 0.1861
v -0.4945 0.2698 0.1861
v -0.4045 0.2500 0.1957
v -0.4945 0.2500 0.1957
v -0.4895 0.2780 0.1957
v -0.4895 0.2780 0.1957
v -0.4895 0.2780 0.1957
v -0.4895 0.2780 0.1957
v -0.4895 0.2780 0.1957
v -0.4895 0.2780 0.1957
v -0.4895 0.2780 0.1957
v -0.4895 0.2780 0.1957
v -0.4895 0.2780 0.1957
v -0.4895 0.2780 0.1957
v -0.4755 0.2742 0.1957
v -0.4782 0.2742 0.2039
v -0.4852 0.2742 0.2090
v -0.4938 0.2742 0.2090
v -0.5008 0.2742 0.2039
v -0.5035 0.2742 0.1957
v -0.5008 0.2742 0.1874
v -0.4938 0.2742 0.1823
v -0.4852 0.2742 0.1823
v -0.4782 0.2742 0.1874
v -0.4653 0.2640 0.1957
v -0.4699 0.2640 0.2099
v -0.4820 0.2640 0.2187
v -0.4970 0.2640 0.2187
v -0.5091 0.2640 0.2099
v -0.5137 0.2640 0.1957
v -0.5091 0.2640 0.1814
v -0.4970 0.2640 0.1726
v -0.4820 0.2640 0.1726
v -0.4699 0.2640 0.1814
v -0.4615 0.2500 0.1957
v -0.4668 0.2500 0.2121
v -0.4808 0.2500 0.2223
v -0.4982 0.2500 0.2223
v -0.5122 0.2500 0.2121
v -0.5175 0.2500 0.1957
v -0.5122 0.2500 0.1792
v -0.4982 0.2500 0.1690
v -0.4808 0.2500 0.1690
v -0.4668 0.2500 0.1792
v -0.4653 0.2360 0.1957
v -0.4699 0.2360 0.2099
v -0.4820 0.2360 0.2187
v -0.4970 0.2360 0.2187
v -0.5091 0.2360 0.2099
v -0.5137 0.2360 0.1957
v -0.5091 0.2360 0.1814
v -0.4970 0.2360 0.1726
v -0.4820 0.2360 0.1726
v -0.4699 0.2360 0.1814
v -0.4755 0.2258 0.1957
v -0.4782 0.2258 0.2039
v -0.4852 0.2258 0.2090
v -0.4938 0.2258 0.2090
v -0.5008 0.2258 0.2039
v -0.5035 0.2258 0.1957
v -0.5008 0.2258 0.1874
v -0.4938 0.2258 0.1823
v -0.4852 0.2258 0.1823
v -0.4782 0.2258 0.1874
v -0.4895 0.2220 0.1957
v -0.4895 0.2220 0.1957
v -0.4895 0.2220 0.1957
v -0.4895 0.2220 0.1957
v -0.4895 0.2220 0.1957
v -0.4895 0.2220 0.1957
v -0.4895 0.2220 0.1957
v -0.4895 0.2220 0.1957
v -0.4895 0.2220 0.1957
v -0.4895 0.2220 0.1957
v -0.4675 0.9000 0.1957
v -0.4675 0.2500 0.1957
v -0.4697 0.9000 0.2052
v -0.4697 0.2500 0.2052
v -0.4758 0.9000 0.2129
v -0.4758 0.2500 0.2129
v -0.4846 0.9000 0.2171
v -0.4846 0.2500 0.2171
v -0.4944 0.9000 0.2171
v -0.4944 0.2500 0.2171
v -0.5032 0.9000 0.2129
v -0.5032 0.2500 0.2129
v -0.5093 0.9000 0.2052
v -0.5093 0.2500 0.2052
v -0.5115 0.9000 0.1957
v -0.5115 0.2500 0.1957
v -0.5093 0.9000 0.1861
v -0.5093 0.2500 0.1861
v -0.5032 0.9000 0.1784
v -0.5032 0.2500 0.1784
v -0.4944 0.9000 0.1742
v -0.4944 0.2500 0.1742
v -0.4846 0.9000 0.1742
v -0.4846 0.2500 0.1742
v -0.4758 0.9000 0.1784
v -0.4758 0.2500 0.1784
v -0.4697 0.9000 0.1861
v -0.4697 0.2500 0.1861
v -0.4895 0.9000 0.1957
v -0.4895 0.2500 0.1957
v -0.4895 0.9280 0.1957
v -0.4895 0.9280 0.1957
v -0.4895 0.9280 0.1957
v -0.4895 0.9280 0.1957
v -0.4895 0.9280 0.1957
v -0.4895 0.9280 0.1957
v -0.4895 0.9280 0.1957
v -0.4895 0.9280 0.1957
v -0.4895 0.9280 0.1957
v -0.4895 0.9280 0.1957
v -0.4755 0.9242 0.1957
v -0.4782 0.9242 0.2039
v -0.4852 0.9242 0.2090
v -0.4938 0.9242 0.2090
v -0.5008 0.9242 0.2039
v -0.5035 0.9242 0.1957
v -0.5008 0.9242 0.1874
v -0.4938 0.9242 0.1823
v -0.4852 0.9242 0.1823
v -0.4782 0.9242 0.1874
v -0.4653 0.9140 0.1957
v -0.4699 0.9140 0.2099
v -0.4820 0.9140 0.2187
v -0.4970 0.9140 0.2187
v -0.5091 0.9140 0.2099
v -0.5137 0.9140 0.1957
v -0.5091 0.9140 0.1814
v -0.4970 0.9140 0.1726
v -0.4820 0.9140 0.1726
v -0.4699 0.9140 0.1814
v -0.4615 0.9000 0.1957
v -0.4668 0.9000 0.2121
v -0.4808 0.9000 0.2223
v -0.4982 0.9000 0.2223
v -0.5122 0.9000 0.2121
v -0.5175 0.9000 0.1957
v -0.5122 0.9000 0.1792
v -0.4982 0.9000 0.1690
v -0.4808 0.9000 0.1690
v -0.4668 0.9000 0.1792
v -0.4653 0.8860 0.1957
v -0.4699 0.8860 0.2099
v -0.4820 0.8860 0.2187
v -0.4970 0.8860 0.2187
v -0.5091 0.8860 0.2099
v -0.5137 0.8860 0.1957
v -0.5091 0.8860 0.1814
v -0.4970 0.8860 0.1726
v -0.4820 0.8860 0.1726
v -0.4699 0.8860 0.1814
v -0.4755 0.8758 0.1957
v -0.4782 0.8758 0.2039
v -0.4852 0.8758 0.2090
v -0.4938 0.8758 0.2090
v -0.5008 0.8758 0.2039
v -0.5035 0.8758 0.1957
v -0.5008 0.8758 0.1874
v -0.4938 0.8758 0.1823
v -0.4852 0.8758 0.1823
v -0.4782 0.8758 0.1874
v -0.4895 0.8720 0.1957
v -0.4895 0.8720 0.1957
v -0.4895 0.8720 0.1957
v -0.4895 0.8720 0.1957
v -0.4895 0.8720 0.1957
v -0.4895 0.8720 0.1957
v -0.4895 0.8720 0.1957
v -0.4895 0.8720 0.1957
v -0.4895 0.8720 0.1957
v -0.4895 0.8720 0.1957
v -0.4675 0.9000 0.2056
v -0.4675 0.9000 -0.0100
v -0.4697 0.9095 0.2056
v -0.4697 0.9095 -0.0100
v -0.4758 0.9172 0.2056
v -0.4758 0.9172 -0.0100
v -0.4846 0.9214 0.2056
v -0.4846 0.9214 -0.0100
v -0.4944 0.9214 0.2056
v -0.4944 0.9214 -0.0100
v -0.5032 0.9172 0.2056
v -0.5032 0.9172 -0.0100
v -0.5093 0.9095 0.2056
v -0.5093 0.9095 -0.0100
v -0.5115 0.9000 0.2056
v -0.5115 0.9000 -0.0100
v -0.5093 0.8905 0.2056
v -0.5093 0.8905 -0.0100
v -0.5032 0.8828 0.2056
v -0.5032 0.8828 -0.0100
v -0.4944 0.8786 0.2056
v -0.4944 0.8786 -0.0100
v -0.4846 0.8786 0.2056
v -0.4846 0.8786 -0.0100
v -0.4758 0.8828 0.2056
v -0.4758 0.8828 -0.0100
v -0.4697 0.8905 0.2056
v -0.4697 0.8905 -0.0100
v -0.4895 0.9000 0.2056
v -0.4895 0.9000 -0.0100
v -0.5345 0.5880 0.0000
v -0.4445 0.5880 0.0000
v -0.4445 0.6120 0.0000
v -0.5345 0.6120 0.0000
v -0.5345 0.5880 0.0120
v -0.4445 0.5880 0.0120
v -0.4445 0.6120 0.0120
v -0.5345 0.6120 0.0120
v -0.5145 0.5880 0.1667
v -0.4645 0.5880 0.1667
v -0.4645 0.6120 0.1667
v -0.5145 0.6120 0.1667
v -0.5145 0.5880 0.2247
v -0.4645 0.5880 0.2247
v -0.4645 0.6120 0.2247
v -0.5145 0.6120 0.2247
vn 0.0000 0.0000 -1.0000
vn 0.0000 0.0000 1.0000
vn -1.0000 0.0000 0.0000
vn 1.0000 0.0000 0.0000
vn 0.0000 1.0000 0.0000
vn 0.0000 -1.0000 0.0000
vn 0.0000 0.0000 -1.0000
vn 0.0000 0.0000 1.0000
vn -1.0000 0.0000 0.0000
vn 1.0000 0.0000 0.0000
vn 0.0000 1.0000 0.0000
vn 0.0000 -1.0000 0.0000
vn 0.0000 0.0000 -1.0000
vn 0.0000 0.0000 1.0000
vn -1.0000 0.0000 0.0000
vn 1.0000 0.0000 0.0000
vn 0.0000 1.0000 0.0000
vn 0.0000 -1.0000 0.0000
vn 0.0000 0.0000 -1.0000
vn 0.0000 0.0000 1.0000
vn -1.0000 0.0000 0.0000
vn 1.0000 0.0000 0.0000
vn 0.0000 1.0000 0.0000
vn 0.0000 -1.0000 0.0000
vn 0.0000 0.0000 -1.0000
vn 0.0000 0.0000 1.0000
vn -1.0000 0.0000 0.0000
vn 1.0000 0.0000 0.0000
vn 0.0000 1.0000 0.0000
vn 0.0000 -1.0000 0.0000
vn 0.0000 0.0000 -1.0000
vn 0.0000 0.0000 1.0000
vn -1.0000 0.0000 0.0000
vn 1.0000 0.0000 0.0000
vn 0.0000 1.0000 0.0000
vn 0.0000 -1.0000 0.0000
vn 0.0000 0.0000 -1.0000
vn 0.0000 0.0000 1.0000
vn -1.0000 0.0000 0.0000
vn 1.0000 0.0000 0.0000
vn 0.0000 1.0000 0.0000
vn 0.0000 -1.0000 0.0000
vn 0.0000 0.0000 -1.0000
vn 0.0000 0.0000 1.0000
vn -1.0000 0.0000 0.0000
vn 1.0000 0.0000 0.0000
vn 0.0000 1.0000 0.0000
vn 0.0000 -1.0000 0.0000
vn 0.0000 0.0000 -1.0000
vn 0.0000 0.0000 1.0000
vn -1.0000 0.0000 0.0000
vn 1.0000 0.0000 0.0000
vn 0.0000 1.0000 0.0000
vn 0.0000 -1.0000 0.0000
vn 0.0000 0.0000 -1.0000
vn 0.0000 0.0000 1.0000
vn -1.0000 0.0000 0.0000
vn 1.0000 0.0000 0.0000
vn 0.0000 1.0000 0.0000
vn 0.0000 -1.0000 0.0000
vn 0.0000 0.0000 -1.0000
vn 0.0000 0.0000 1.0000
vn -1.0000 0.0000 0.0000
vn 1.0000 0.0000 0.0000
vn 0.0000 1.0000 0.0000
vn 0.0000 -1.0000 0.0000
vn 0.0000 0.0000 -1.0000
vn 0.0000 0.0000 1.0000
vn -1.0000 0.0000 0.0000
vn 1.0000 0.0000 0.0000
vn 0.0000 1.0000 0.0000
vn 0.0000 -1.0000 0.0000
vn 0.0000 0.0000 -1.0000
vn 0.0000 0.0000 1.0000
vn -1.0000 0.0000 0.0000
vn 1.0000 0.0000 0.0000
vn 0.0000 1.0000 0.0000
vn 0.0000 -1.0000 0.0000
vn 0.0000 0.0000 -1.0000
vn 0.0000 0.0000 1.0000
vn -1.0000 0.0000 0.0000
vn 1.0000 0.0000 0.0000
vn 0.0000 1.0000 0.0000
vn 0.0000 -1.0000 0.0000
vn 0.0000 0.0000 -1.0000
vn 0.0000 0.0000 1.0000
vn -1.0000 0.0000 0.0000
vn 1.0000 0.0000 0.0000
vn 0.0000 1.0000 0.0000
vn 0.0000 -1.0000 0.0000
vn 0.0000 0.0000 -1.0000
vn 0.0000 0.0000 1.0000
vn -1.0000 0.0000 0.0000
vn 1.0000 0.0000 0.0000
vn 0.0000 1.0000 0.0000
vn 0.0000 -1.0000 0.0000
vn 0.0000 0.0000 -1.0000
vn 0.0000 0.0000 1.0000
vn -1.0000 0.0000 0.0000
vn 1.0000 0.0000 0.0000
vn 0.0000 1.0000 0.0000
vn 0.0000 -1.0000 0.0000
vn 0.0000 0.0000 -1.0000
vn 0.0000 0.0000 1.0000
vn -1.0000 0.0000 0.0000
vn 1.0000 0.0000 0.0000
vn 0.0000 1.0000 0.0000
vn 0.0000 -1.0000 0.0000
vn 0.0000 0.0000 -1.0000
vn 0.0000 0.0000 1.0000
vn -1.0000 0.0000 0.0000
vn 1.0000 0.0000 0.0000
vn 0.0000 1.0000 0.0000
vn 0.0000 -1.0000 0.0000
vn 0.0000 0.0000 -1.0000
vn 0.0000 0.0000 1.0000
vn -1.0000 0.0000 0.0000
vn 1.0000 0.0000 0.0000
vn 0.0000 1.0000 0.0000
vn 0.0000 -1.0000 0.0000
vn 0.0000 0.0000 -1.0000
vn 0.0000 0.0000 1.0000
vn -1.0000 0.0000 0.0000
vn 1.0000 0.0000 0.0000
vn 0.0000 1.0000 0.0000
vn 0.0000 -1.0000 0.0000
vn 0.0000 0.0000 -1.0000
vn 0.0000 0.0000 1.0000
vn -1.0000 0.0000 0.0000
vn 1.0000 0.0000 0.0000
vn 0.0000 1.0000 0.0000
vn 0.0000 -1.0000 0.0000
vn 0.0000 0.0000 -1.0000
vn 0.0000 0.0000 1.0000
vn -1.0000 0.0000 0.0000
vn 1.0000 0.0000 0.0000
vn 0.0000 1.0000 0.0000
vn 0.0000 -1.0000 0.0000
vn 0.0000 0.0000 -1.0000
vn 0.0000 0.0000 1.0000
vn -1.0000 0.0000 0.0000
vn 1.0000 0.0000 0.0000
vn 0.0000 1.0000 0.0000
vn 0.0000 -1.0000 0.0000
vn 0.0000 0.0000 -1.0000
vn 0.0000 0.0000 1.0000
vn -1.0000 0.0000 0.0000
vn 1.0000 0.0000 0.0000
vn 0.0000 1.0000 0.0000
vn 0.0000 -1.0000 0.0000
vn 0.0000 0.0000 -1.0000
vn 0.0000 0.0000 1.0000
vn -1.0000 0.0000 0.0000
vn 1.0000 0.0000 0.0000
vn 0.0000 1.0000 0.0000
vn 0.0000 -1.0000 0.0000
vn 0.0000 0.0000 -1.0000
vn 0.0000 0.0000 1.0000
vn -1.0000 0.0000 0.0000
vn 1.0000 0.0000 0.0000
vn 0.0000 1.0000 0.0000
vn 0.0000 -1.0000 0.0000
vn 0.0000 0.0000 -1.0000
vn 0.0000 0.0000 1.0000
vn -1.0000 0.0000 0.0000
vn 1.0000 0.0000 0.0000
vn 0.0000 1.0000 0.0000
vn 0.0000 -1.0000 0.0000
vn 0.0000 0.0000 -1.0000
vn 0.0000 0.0000 1.0000
vn -1.0000 0.0000 0.0000
vn 1.0000 0.0000 0.0000
vn 0.0000 1.0000 0.0000
vn 0.0000 -1.0000 0.0000
vn 0.0000 0.0000 -1.0000
vn 0.0000 0.0000 1.0000
vn -1.0000 0.0000 0.0000
vn 1.0000 0.0000 0.0000
vn 0.0000 1.0000 0.0000
vn 0.0000 -1.0000 0.0000
vn 0.0000 0.9659 0.2588
vn 0.0000 0.7071 0.7071
vn 0.0000 0.2588 0.9659
vn 0.0000 -0.2588 0.9659
vn 0.0000 -0.7071 0.7071
vn 0.0000 -0.9659 0.2588
vn 0.0000 -0.9659 -0.2588
vn 0.0000 -0.7071 -0.7071
vn 0.0000 -0.2588 -0.9659
vn 0.0000 0.2588 -0.9659
vn 0.0000 0.7071 -0.7071
vn 0.0000 0.9659 -0.2588
vn 1.0000 0.0000 0.0000
vn -1.0000 0.0000 0.0000
vn 1.0000 0.0000 0.0000
vn -1.0000 0.0000 0.0000
vn 1.0000 0.0000 0.0000
vn -1.0000 0.0000 0.0000
vn 1.0000 0.0000 0.0000
vn -1.0000 0.0000 0.0000
vn 1.0000 0.0000 0.0000
vn -1.0000 -0.0000 0.0000
vn 1.0000 0.0000 0.0000
vn -1.0000 0.0000 0.0000
vn 1.0000 0.0000 0.0000
vn -1.0000 0.0000 0.0000
vn 1.0000 -0.0000 0.0000
vn -1.0000 -0.0000 0.0000
vn 1.0000 0.0000 0.0000
vn -1.0000 0.0000 0.0000
vn 1.0000 0.0000 0.0000
vn -1.0000 0.0000 0.0000
vn 1.0000 0.0000 0.0000
vn -1.0000 0.0000 0.0000
vn 1.0000 0.0000 0.0000
vn -1.0000 0.0000 0.0000
vn 0.0000 0.9749 0.2225
vn 0.0000 0.7818 0.6235
vn 0.0000 0.4339 0.9010
vn 0.0000 0.0000 1.0000
vn 0.0000 -0.4339 0.9010
vn 0.0000 -0.7818 0.6235
vn 0.0000 -0.9749 0.2225
vn 0.0000 -0.9749 -0.2225
vn 0.0000 -0.7818 -0.6235
vn 0.0000 -0.4339 -0.9010
vn 0.0000 -0.0000 -1.0000
vn 0.0000 0.4339 -0.9010
vn 0.0000 0.7818 -0.6235
vn 0.0000 0.9749 -0.2225
vn 1.0000 0.0000 0.0000
vn -1.0000 0.0000 0.0000
vn 1.0000 -0.0000 0.0000
vn -1.0000 -0.0000 0.0000
vn 1.0000 0.0000 0.0000
vn -1.0000 0.0000 0.0000
vn 1.0000 0.0000 0.0000
vn -1.0000 0.0000 0.0000
vn 1.0000 0.0000 0.0000
vn -1.0000 0.0000 0.0000
vn 1.0000 0.0000 0.0000
vn -1.0000 0.0000 0.0000
vn 1.0000 0.0000 0.0000
vn -1.0000 0.0000 0.0000
vn 1.0000 0.0000 0.0000
vn -1.0000 0.0000 0.0000
vn 1.0000 0.0000 0.0000
vn -1.0000 0.0000 0.0000
vn 1.0000 0.0000 0.0000
vn -1.0000 0.0000 0.0000
vn 1.0000 0.0000 0.0000
vn -1.0000 0.0000 0.0000
vn 1.0000 0.0000 0.0000
vn -1.0000 0.0000 0.0000
vn 1.0000 0.0000 0.0000
vn -1.0000 -0.0000 0.0000
vn 1.0000 0.0000 0.0000
vn -1.0000 0.0000 0.0000
vn 0.2579 0.9625 0.0838
vn 0.1594 0.9625 0.2194
vn 0.0000 0.9625 0.2712
vn -0.1594 0.9625 0.2194
vn -0.2579 0.9625 0.0838
vn -0.2579 0.9625 -0.0838
vn -0.1594 0.9625 -0.2194
vn 0.0000 0.9625 -0.2712
vn 0.1594 0.9625 -0.2194
vn 0.2579 0.9625 -0.0838
vn 0.6892 0.6892 0.2239
vn 0.4259 0.6892 0.5862
vn 0.0000 0.6892 0.7246
vn -0.4259 0.6892 0.5862
vn -0.6892 0.6892 0.2239
vn -0.6892 0.6892 -0.2239
vn -0.4259 0.6892 -0.5862
vn 0.0000 0.6892 -0.7246
vn 0.4259 0.6892 -0.5862
vn 0.6892 0.6892 -0.2239
vn 0.9216 0.2469 0.2994
vn 0.5696 0.2469 0.7840
vn 0.0000 0.2469 0.9690
vn -0.5696 0.2469 0.7840
vn -0.9216 0.2469 0.2994
vn -0.9216 0.2469 -0.2994
vn -0.5696 0.2469 -0.7840
vn 0.0000 0.2469 -0.9690
vn 0.5696 0.2469 -0.7840
vn 0.9216 0.2469 -0.2994
vn 0.9216 -0.2469 0.2994
vn 0.5696 -0.2469 0.7840
vn 0.0000 -0.2469 0.9690
vn -0.5696 -0.2469 0.7840
vn -0.9216 -0.2469 0.2994
vn -0.9216 -0.2469 -0.2994
vn -0.5696 -0.2469 -0.7840
vn 0.0000 -0.2469 -0.9690
vn 0.5696 -0.2469 -0.7840
vn 0.9216 -0.2469 -0.2994
vn 0.6892 -0.6892 0.2239
vn 0.4259 -0.6892 0.5862
vn 0.0000 -0.6892 0.7246
vn -0.4259 -0.6892 0.5862
vn -0.6892 -0.6892 0.2239
vn -0.6892 -0.6892 -0.2239
vn -0.4259 -0.6892 -0.5862
vn 0.0000 -0.6892 -0.7246
vn 0.4259 -0.6892 -0.5862
vn 0.6892 -0.6892 -0.2239
vn 0.2579 -0.9625 0.0838
vn 0.1594 -0.9625 0.2194
vn 0.0000 -0.9625 0.2712
vn -0.1594 -0.9625 0.2194
vn -0.2579 -0.9625 0.0838
vn -0.2579 -0.9625 -0.0838
vn -0.1594 -0.9625 -0.2194
vn 0.0000 -0.9625 -0.2712
vn 0.1594 -0.9625 -0.2194
vn 0.2579 -0.9625 -0.0838
vn 0.9749 0.0000 0.2225
vn 0.7818 0.0000 0.6235
vn 0.4339 0.0000 0.9010
vn 0.0000 0.0000 1.0000
vn -0.4339 0.0000 0.9010
vn -0.7818 0.0000 0.6235
vn -0.9749 0.0000 0.2225
vn -0.9749 0.0000 -0.2225
vn -0.7818 0.0000 -0.6235
vn -0.4339 0.0000 -0.9010
vn -0.0000 0.0000 -1.0000
vn 0.4339 0.0000 -0.9010
vn 0.7818 0.0000 -0.6235
vn 0.9749 0.0000 -0.2225
vn 0.0000 1.0000 0.0000
vn 0.0000 -1.0000 0.0000
vn 0.0000 1.0000 0.0000
vn 0.0000 -1.0000 -0.0000
vn 0.0000 1.0000 0.0000
vn 0.0000 -1.0000 0.0000
vn 0.0000 1.0000 0.0000
vn 0.0000 -1.0000 0.0000
vn 0.0000 1.0000 -0.0000
vn 0.0000 -1.0000 0.0000
vn 0.0000 1.0000 0.0000
vn 0.0000 -1.0000 -0.0000
vn 0.0000 1.0000 0.0000
vn 0.0000 -1.0000 0.0000
vn 0.0000 1.0000 0.0000
vn 0.0000 -1.0000 0.0000
vn 0.0000 1.0000 0.0000
vn 0.0000 -1.0000 0.0000
vn 0.0000 1.0000 0.0000
vn 0.0000 -1.0000 -0.0000
vn 0.0000 1.0000 0.0000
vn 0.0000 -1.0000 0.0000
vn 0.0000 1.0000 -0.0000
vn 0.0000 -1.0000 0.0000
vn 0.0000 1.0000 0.0000
vn 0.0000 -1.0000 0.0000
vn 0.0000 1.0000 0.0000
vn 0.0000 -1.0000 0.0000
vn 0.2579 0.9625 0.0838
vn 0.1594 0.9625 0.2194
vn 0.0000 0.9625 0.2712
vn -0.1594 0.9625 0.2194
vn -0.2579 0.9625 0.0838
vn -0.2579 0.9625 -0.0838
vn -0.1594 0.9625 -0.2194
vn 0.0000 0.9625 -0.2712
vn 0.1594 0.9625 -0.2194
vn 0.2579 0.9625 -0.0838
vn 0.6892 0.6892 0.2239
vn 0.4259 0.6892 0.5862
vn 0.0000 0.6892 0.7246
vn -0.4259 0.6892 0.5862
vn -0.6892 0.6892 0.2239
vn -0.6892 0.6892 -0.2239
vn -0.4259 0.6892 -0.5862
vn 0.0000 0.6892 -0.7246
vn 0.4259 0.6892 -0.5862
vn 0.6892 0.6892 -0.2239
vn 0.9216 0.2469 0.2994
vn 0.5696 0.2469 0.7840
vn 0.0000 0.2469 0.9690
vn -0.5696 0.2469 0.7840
vn -0.9216 0.2469 0.2994
vn -0.9216 0.2469 -0.2994
vn -0.5696 0.2469 -0.7840
vn 0.0000 0.2469 -0.9690
vn 0.5696 0.2469 -0.7840
vn 0.9216 0.2469 -0.2994
vn 0.9216 -0.2469 0.2994
vn 0.5696 -0.2469 0.7840
vn 0.0000 -0.2469 0.9690
vn -0.5696 -0.2469 0.7840
vn -0.9216 -0.2469 0.2994
vn -0.9216 -0.2469 -0.2994
vn -0.5696 -0.2469 -0.7840
vn 0.0000 -0.2469 -0.9690
vn 0.5696 -0.2469 -0.7840
vn 0.9216 -0.2469 -0.2994
vn 0.6892 -0.6892 0.2239
vn 0.4259 -0.6892 0.5862
vn 0.0000 -0.6892 0.7246
vn -0.4259 -0.6892 0.5862
vn -0.6892 -0.6892 0.2239
vn -0.6892 -0.6892 -0.2239
vn -0.4259 -0.6892 -0.5862
vn 0.0000 -0.6892 -0.7246
vn 0.4259 -0.6892 -0.5862
vn 0.6892 -0.6892 -0.2239
vn 0.2579 -0.9625 0.0838
vn 0.1594 -0.9625 0.2194
vn 0.0000 -0.9625 0.2712
vn -0.1594 -0.9625 0.2194
vn -0.2579 -0.9625 0.0838
vn -0.2579 -0.9625 -0.0838
vn -0.1594 -0.9625 -0.2194
vn 0.0000 -0.9625 -0.2712
vn 0.1594 -0.9625 -0.2194
vn 0.2579 -0.9625 -0.0838
vn 0.9749 0.2225 0.0000
vn 0.7818 0.6235 0.0000
vn 0.4339 0.9010 0.0000
vn 0.0000 1.0000 0.0000
vn -0.4339 0.9010 0.0000
vn -0.7818 0.6235 0.0000
vn -0.9749 0.2225 0.0000
vn -0.9749 -0.2225 0.0000
vn -0.7818 -0.6235 0.0000
vn -0.4339 -0.9010 0.0000
vn 0.0000 -1.0000 0.0000
vn 0.4339 -0.9010 0.0000
vn 0.7818 -0.6235 0.0000
vn 0.9749 -0.2225 0.0000
vn 0.0000 0.0000 1.0000
vn 0.0000 0.0000 -1.0000
vn 0.0000 0.0000 1.0000
vn 0.0000 0.0000 -1.0000
vn 0.0000 0.0000 1.0000
vn 0.0000 0.0000 -1.0000
vn 0.0000 0.0000 1.0000
vn 0.0000 0.0000 -1.0000
vn 0.0000 0.0000 1.0000
vn 0.0000 0.0000 -1.0000
vn 0.0000 0.0000 1.0000
vn 0.0000 0.0000 -1.0000
vn 0.0000 0.0000 1.0000
vn 0.0000 0.0000 -1.0000
vn 0.0000 0.0000 1.0000
vn 0.0000 0.0000 -1.0000
vn 0.0000 0.0000 1.0000
vn 0.0000 0.0000 -1.0000
vn 0.0000 0.0000 1.0000
vn 0.0000 0.0000 -1.0000
vn 0.0000 0.0000 1.0000
vn 0.0000 0.0000 -1.0000
vn 0.0000 0.0000 1.0000
vn 0.0000 0.0000 -1.0000
vn 0.0000 0.0000 1.0000
vn 0.0000 0.0000 -1.0000
vn 0.0000 0.0000 1.0000
vn 0.0000 0.0000 -1.0000
vn 0.0000 0.0000 -1.0000
vn 0.0000 0.0000 1.0000
vn -1.0000 0.0000 0.0000
vn 1.0000 0.0000 0.0000
vn 0.0000 1.0000 0.0000
vn 0.0000 -1.0000 0.0000
vn 0.0000 0.0000 -1.0000
vn 0.0000 0.0000 1.0000
vn -1.0000 0.0000 0.0000
vn 1.0000 0.0000 0.0000
vn 0.0000 1.0000 0.0000
vn 0.0000 -1.0000 0.0000
usemtl core_trim
f 1//1 4//1 3//1 2//1
f 5//2 6//2 7//2 8//2
f 1//3 5//3 8//3 4//3
f 2//4 3//4 7//4 6//4
f 4//5 8//5 7//5 3//5
f 1//6 2//6 6//6 5//6
usemtl core_white
f 9//7 12//7 11//7 10//7
f 13//8 14//8 15//8 16//8
f 9//9 13//9 16//9 12//9
f 10//10 11//10 15//10 14//10
f 12//11 16//11 15//11 11//11
f 9//12 10//12 14//12 13//12
usemtl core_panel
f 17//13 20//13 19//13 18//13
f 21//14 22//14 23//14 24//14
f 17//15 21//15 24//15 20//15
f 18//16 19//16 23//16 22//16
f 20//17 24//17 23//17 19//17
f 17//18 18//18 22//18 21//18
f 25//19 28//19 27//19 26//19
f 29//20 30//20 31//20 32//20
f 25//21 29//21 32//21 28//21
f 26//22 27//22 31//22 30//22
f 28//23 32//23 31//23 27//23
f 25//24 26//24 30//24 29//24
f 33//25 36//25 35//25 34//25
f 37//26 38//26 39//26 40//26
f 33//27 37//27 40//27 36//27
f 34//28 35//28 39//28 38//28
f 36//29 40//29 39//29 35//29
f 33//30 34//30 38//30 37//30
usemtl core_trim
f 41//31 44//31 43//31 42//31
f 45//32 46//32 47//32 48//32
f 41//33 45//33 48//33 44//33
f 42//34 43//34 47//34 46//34
f 44//35 48//35 47//35 43//35
f 41//36 42//36 46//36 45//36
usemtl core_led
f 49//37 52//37 51//37 50//37
f 53//38 54//38 55//38 56//38
f 49//39 53//39 56//39 52//39
f 50//40 51//40 55//40 54//40
f 52//41 56//41 55//41 51//41
f 49//42 50//42 54//42 53//42
usemtl core_trim
f 57//43 60//43 59//43 58//43
f 61//44 62//44 63//44 64//44
f 57//45 61//45 64//45 60//45
f 58//46 59//46 63//46 62//46
f 60//47 64//47 63//47 59//47
f 57//48 58//48 62//48 61//48
f 65//49 68//49 67//49 66//49
f 69//50 70//50 71//50 72//50
f 65//51 69//51 72//51 68//51
f 66//52 67//52 71//52 70//52
f 68//53 72//53 71//53 67//53
f 65//54 66//54 70//54 69//54
usemtl label_white
f 73//55 76//55 75//55 74//55
f 77//56 78//56 79//56 80//56
f 73//57 77//57 80//57 76//57
f 74//58 75//58 79//58 78//58
f 76//59 80//59 79//59 75//59
f 73//60 74//60 78//60 77//60
usemtl label_black
f 81//61 84//61 83//61 82//61
f 85//62 86//62 87//62 88//62
f 81//63 85//63 88//63 84//63
f 82//64 83//64 87//64 86//64
f 84//65 88//65 87//65 83//65
f 81//66 82//66 86//66 85//66
usemtl core_vent
f 89//67 92//67 91//67 90//67
f 93//68 94//68 95//68 96//68
f 89//69 93//69 96//69 92//69
f 90//70 91//70 95//70 94//70
f 92//71 96//71 95//71 91//71
f 89//72 90//72 94//72 93//72
f 97//73 100//73 99//73 98//73
f 101//74 102//74 103//74 104//74
f 97//75 101//75 104//75 100//75
f 98//76 99//76 103//76 102//76
f 100//77 104//77 103//77 99//77
f 97//78 98//78 102//78 101//78
f 105//79 108//79 107//79 106//79
f 109//80 110//80 111//80 112//80
f 105//81 109//81 112//81 108//81
f 106//82 107//82 111//82 110//82
f 108//83 112//83 111//83 107//83
f 105//84 106//84 110//84 109//84
f 113//85 116//85 115//85 114//85
f 117//86 118//86 119//86 120//86
f 113//87 117//87 120//87 116//87
f 114//88 115//88 119//88 118//88
f 116//89 120//89 119//89 115//89
f 113//90 114//90 118//90 117//90
f 121//91 124//91 123//91 122//91
f 125//92 126//92 127//92 128//92
f 121//93 125//93 128//93 124//93
f 122//94 123//94 127//94 126//94
f 124//95 128//95 127//95 123//95
f 121//96 122//96 126//96 125//96
f 129//97 132//97 131//97 130//97
f 133//98 134//98 135//98 136//98
f 129//99 133//99 136//99 132//99
f 130//100 131//100 135//100 134//100
f 132//101 136//101 135//101 131//101
f 129//102 130//102 134//102 133//102
f 137//103 140//103 139//103 138//103
f 141//104 142//104 143//104 144//104
f 137//105 141//105 144//105 140//105
f 138//106 139//106 143//106 142//106
f 140//107 144//107 143//107 139//107
f 137//108 138//108 142//108 141//108
f 145//109 148//109 147//109 146//109
f 149//110 150//110 151//110 152//110
f 145//111 149//111 152//111 148//111
f 146//112 147//112 151//112 150//112
f 148//113 152//113 151//113 147//113
f 145//114 146//114 150//114 149//114
f 153//115 156//115 155//115 154//115
f 157//116 158//116 159//116 160//116
f 153//117 157//117 160//117 156//117
f 154//118 155//118 159//118 158//118
f 156//119 160//119 159//119 155//119
f 153//120 154//120 158//120 157//120
f 161//121 164//121 163//121 162//121
f 165//122 166//122 167//122 168//122
f 161//123 165//123 168//123 164//123
f 162//124 163//124 167//124 166//124
f 164//125 168//125 167//125 163//125
f 161//126 162//126 166//126 165//126
f 169//127 172//127 171//127 170//127
f 173//128 174//128 175//128 176//128
f 169//129 173//129 176//129 172//129
f 170//130 171//130 175//130 174//130
f 172//131 176//131 175//131 171//131
f 169//132 170//132 174//132 173//132
f 177//133 180//133 179//133 178//133
f 181//134 182//134 183//134 184//134
f 177//135 181//135 184//135 180//135
f 178//136 179//136 183//136 182//136
f 180//137 184//137 183//137 179//137
f 177//138 178//138 182//138 181//138
f 185//139 188//139 187//139 186//139
f 189//140 190//140 191//140 192//140
f 185//141 189//141 192//141 188//141
f 186//142 187//142 191//142 190//142
f 188//143 192//143 191//143 187//143
f 185//144 186//144 190//144 189//144
f 193//145 196//145 195//145 194//145
f 197//146 198//146 199//146 200//146
f 193//147 197//147 200//147 196//147
f 194//148 195//148 199//148 198//148
f 196//149 200//149 199//149 195//149
f 193//150 194//150 198//150 197//150
f 201//151 204//151 203//151 202//151
f 205//152 206//152 207//152 208//152
f 201//153 205//153 208//153 204//153
f 202//154 203//154 207//154 206//154
f 204//155 208//155 207//155 203//155
f 201//156 202//156 206//156 205//156
f 209//157 212//157 211//157 210//157
f 213//158 214//158 215//158 216//158
f 209//159 213//159 216//159 212//159
f 210//160 211//160 215//160 214//160
f 212//161 216//161 215//161 211//161
f 209//162 210//162 214//162 213//162
f 217//163 220//163 219//163 218//163
f 221//164 222//164 223//164 224//164
f 217//165 221//165 224//165 220//165
f 218//166 219//166 223//166 222//166
f 220//167 224//167 223//167 219//167
f 217//168 218//168 222//168 221//168
f 225//169 228//169 227//169 226//169
f 229//170 230//170 231//170 232//170
f 225//171 229//171 232//171 228//171
f 226//172 227//172 231//172 230//172
f 228//173 232//173 231//173 227//173
f 225//174 226//174 230//174 229//174
usemtl core_trim
f 233//175 236//175 235//175 234//175
f 237//176 238//176 239//176 240//176
f 233//177 237//177 240//177 236//177
f 234//178 235//178 239//178 238//178
f 236//179 240//179 239//179 235//179
f 233//180 234//180 238//180 237//180
usemtl galvanized
f 242//181 244//181 243//181 241//181
f 244//182 246//182 245//182 243//182
f 246//183 248//183 247//183 245//183
f 248//184 250//184 249//184 247//184
f 250//185 252//185 251//185 249//185
f 252//186 254//186 253//186 251//186
f 254//187 256//187 255//187 253//187
f 256//188 258//188 257//188 255//188
f 258//189 260//189 259//189 257//189
f 260//190 262//190 261//190 259//190
f 262//191 264//191 263//191 261//191
f 264//192 242//192 241//192 263//192
f 241//193 243//193 265//193
f 244//194 242//194 266//194
f 243//195 245//195 265//195
f 246//196 244//196 266//196
f 245//197 247//197 265//197
f 248//198 246//198 266//198
f 247//199 249//199 265//199
f 250//200 248//200 266//200
f 249//201 251//201 265//201
f 252//202 250//202 266//202
f 251//203 253//203 265//203
f 254//204 252//204 266//204
f 253//205 255//205 265//205
f 256//206 254//206 266//206
f 255//207 257//207 265//207
f 258//208 256//208 266//208
f 257//209 259//209 265//209
f 260//210 258//210 266//210
f 259//211 261//211 265//211
f 262//212 260//212 266//212
f 261//213 263//213 265//213
f 264//214 262//214 266//214
f 263//215 241//215 265//215
f 242//216 264//216 266//216
usemtl conduit_paint
f 268//217 270//217 269//217 267//217
f 270//218 272//218 271//218 269//218
f 272//219 274//219 273//219 271//219
f 274//220 276//220 275//220 273//220
f 276//221 278//221 277//221 275//221
f 278//222 280//222 279//222 277//222
f 280//223 282//223 281//223 279//223
f 282//224 284//224 283//224 281//224
f 284//225 286//225 285//225 283//225
f 286//226 288//226 287//226 285//226
f 288//227 290//227 289//227 287//227
f 290//228 292//228 291//228 289//228
f 292//229 294//229 293//229 291//229
f 294//230 268//230 267//230 293//230
f 267//231 269//231 295//231
f 270//232 268//232 296//232
f 269//233 271//233 295//233
f 272//234 270//234 296//234
f 271//235 273//235 295//235
f 274//236 272//236 296//236
f 273//237 275//237 295//237
f 276//238 274//238 296//238
f 275//239 277//239 295//239
f 278//240 276//240 296//240
f 277//241 279//241 295//241
f 280//242 278//242 296//242
f 279//243 281//243 295//243
f 282//244 280//244 296//244
f 281//245 283//245 295//245
f 284//246 282//246 296//246
f 283//247 285//247 295//247
f 286//248 284//248 296//248
f 285//249 287//249 295//249
f 288//250 286//250 296//250
f 287//251 289//251 295//251
f 290//252 288//252 296//252
f 289//253 291//253 295//253
f 292//254 290//254 296//254
f 291//255 293//255 295//255
f 294//256 292//256 296//256
f 293//257 267//257 295//257
f 268//258 294//258 296//258
f 297//259 298//259 308//259 307//259
f 298//260 299//260 309//260 308//260
f 299//261 300//261 310//261 309//261
f 300//262 301//262 311//262 310//262
f 301//263 302//263 312//263 311//263
f 302//264 303//264 313//264 312//264
f 303//265 304//265 314//265 313//265
f 304//266 305//266 315//266 314//266
f 305//267 306//267 316//267 315//267
f 306//268 297//268 307//268 316//268
f 307//269 308//269 318//269 317//269
f 308//270 309//270 319//270 318//270
f 309//271 310//271 320//271 319//271
f 310//272 311//272 321//272 320//272
f 311//273 312//273 322//273 321//273
f 312//274 313//274 323//274 322//274
f 313//275 314//275 324//275 323//275
f 314//276 315//276 325//276 324//276
f 315//277 316//277 326//277 325//277
f 316//278 307//278 317//278 326//278
f 317//279 318//279 328//279 327//279
f 318//280 319//280 329//280 328//280
f 319//281 320//281 330//281 329//281
f 320//282 321//282 331//282 330//282
f 321//283 322//283 332//283 331//283
f 322//284 323//284 333//284 332//284
f 323//285 324//285 334//285 333//285
f 324//286 325//286 335//286 334//286
f 325//287 326//287 336//287 335//287
f 326//288 317//288 327//288 336//288
f 327//289 328//289 338//289 337//289
f 328//290 329//290 339//290 338//290
f 329//291 330//291 340//291 339//291
f 330//292 331//292 341//292 340//292
f 331//293 332//293 342//293 341//293
f 332//294 333//294 343//294 342//294
f 333//295 334//295 344//295 343//295
f 334//296 335//296 345//296 344//296
f 335//297 336//297 346//297 345//297
f 336//298 327//298 337//298 346//298
f 337//299 338//299 348//299 347//299
f 338//300 339//300 349//300 348//300
f 339//301 340//301 350//301 349//301
f 340//302 341//302 351//302 350//302
f 341//303 342//303 352//303 351//303
f 342//304 343//304 353//304 352//304
f 343//305 344//305 354//305 353//305
f 344//306 345//306 355//306 354//306
f 345//307 346//307 356//307 355//307
f 346//308 337//308 347//308 356//308
f 347//309 348//309 358//309 357//309
f 348//310 349//310 359//310 358//310
f 349//311 350//311 360//311 359//311
f 350//312 351//312 361//312 360//312
f 351//313 352//313 362//313 361//313
f 352//314 353//314 363//314 362//314
f 353//315 354//315 364//315 363//315
f 354//316 355//316 365//316 364//316
f 355//317 356//317 366//317 365//317
f 356//318 347//318 357//318 366//318
f 367//319 369//319 370//319 368//319
f 369//320 371//320 372//320 370//320
f 371//321 373//321 374//321 372//321
f 373//322 375//322 376//322 374//322
f 375//323 377//323 378//323 376//323
f 377//324 379//324 380//324 378//324
f 379//325 381//325 382//325 380//325
f 381//326 383//326 384//326 382//326
f 383//327 385//327 386//327 384//327
f 385//328 387//328 388//328 386//328
f 387//329 389//329 390//329 388//329
f 389//330 391//330 392//330 390//330
f 391//331 393//331 394//331 392//331
f 393//332 367//332 368//332 394//332
f 395//333 369//333 367//333
f 396//334 368//334 370//334
f 395//335 371//335 369//335
f 396//336 370//336 372//336
f 395//337 373//337 371//337
f 396//338 372//338 374//338
f 395//339 375//339 373//339
f 396//340 374//340 376//340
f 395//341 377//341 375//341
f 396//342 376//342 378//342
f 395//343 379//343 377//343
f 396//344 378//344 380//344
f 395//345 381//345 379//345
f 396//346 380//346 382//346
f 395//347 383//347 381//347
f 396//348 382//348 384//348
f 395//349 385//349 383//349
f 396//350 384//350 386//350
f 395//351 387//351 385//351
f 396//352 386//352 388//352
f 395//353 389//353 387//353
f 396//354 388//354 390//354
f 395//355 391//355 389//355
f 396//356 390//356 392//356
f 395//357 393//357 391//357
f 396//358 392//358 394//358
f 395//359 367//359 393//359
f 396//360 394//360 368//360
f 397//361 398//361 408//361 407//361
f 398//362 399//362 409//362 408//362
f 399//363 400//363 410//363 409//363
f 400//364 401//364 411//364 410//364
f 401//365 402//365 412//365 411//365
f 402//366 403//366 413//366 412//366
f 403//367 404//367 414//367 413//367
f 404//368 405//368 415//368 414//368
f 405//369 406//369 416//369 415//369
f 406//370 397//370 407//370 416//370
f 407//371 408//371 418//371 417//371
f 408//372 409//372 419//372 418//372
f 409//373 410//373 420//373 419//373
f 410//374 411//374 421//374 420//374
f 411//375 412//375 422//375 421//375
f 412//376 413//376 423//376 422//376
f 413//377 414//377 424//377 423//377
f 414//378 415//378 425//378 424//378
f 415//379 416//379 426//379 425//379
f 416//380 407//380 417//380 426//380
f 417//381 418//381 428//381 427//381
f 418//382 419//382 429//382 428//382
f 419//383 420//383 430//383 429//383
f 420//384 421//384 431//384 430//384
f 421//385 422//385 432//385 431//385
f 422//386 423//386 433//386 432//386
f 423//387 424//387 434//387 433//387
f 424//388 425//388 435//388 434//388
f 425//389 426//389 436//389 435//389
f 426//390 417//390 427//390 436//390
f 427//391 428//391 438//391 437//391
f 428//392 429//392 439//392 438//392
f 429//393 430//393 440//393 439//393
f 430//394 431//394 441//394 440//394
f 431//395 432//395 442//395 441//395
f 432//396 433//396 443//396 442//396
f 433//397 434//397 444//397 443//397
f 434//398 435//398 445//398 444//398
f 435//399 436//399 446//399 445//399
f 436//400 427//400 437//400 446//400
f 437//401 438//401 448//401 447//401
f 438//402 439//402 449//402 448//402
f 439//403 440//403 450//403 449//403
f 440//404 441//404 451//404 450//404
f 441//405 442//405 452//405 451//405
f 442//406 443//406 453//406 452//406
f 443//407 444//407 454//407 453//407
f 444//408 445//408 455//408 454//408
f 445//409 446//409 456//409 455//409
f 446//410 437//410 447//410 456//410
f 447//411 448//411 458//411 457//411
f 448//412 449//412 459//412 458//412
f 449//413 450//413 460//413 459//413
f 450//414 451//414 461//414 460//414
f 451//415 452//415 462//415 461//415
f 452//416 453//416 463//416 462//416
f 453//417 454//417 464//417 463//417
f 454//418 455//418 465//418 464//418
f 455//419 456//419 466//419 465//419
f 456//420 447//420 457//420 466//420
f 468//421 470//421 469//421 467//421
f 470//422 472//422 471//422 469//422
f 472//423 474//423 473//423 471//423
f 474//424 476//424 475//424 473//424
f 476//425 478//425 477//425 475//425
f 478//426 480//426 479//426 477//426
f 480//427 482//427 481//427 479//427
f 482//428 484//428 483//428 481//428
f 484//429 486//429 485//429 483//429
f 486//430 488//430 487//430 485//430
f 488//431 490//431 489//431 487//431
f 490//432 492//432 491//432 489//432
f 492//433 494//433 493//433 491//433
f 494//434 468//434 467//434 493//434
f 467//435 469//435 495//435
f 470//436 468//436 496//436
f 469//437 471//437 495//437
f 472//438 470//438 496//438
f 471//439 473//439 495//439
f 474//440 472//440 496//440
f 473//441 475//441 495//441
f 476//442 474//442 496//442
f 475//443 477//443 495//443
f 478//444 476//444 496//444
f 477//445 479//445 495//445
f 480//446 478//446 496//446
f 479//447 481//447 495//447
f 482//448 480//448 496//448
f 481//449 483//449 495//449
f 484//450 482//450 496//450
f 483//451 485//451 495//451
f 486//452 484//452 496//452
f 485//453 487//453 495//453
f 488//454 486//454 496//454
f 487//455 489//455 495//455
f 490//456 488//456 496//456
f 489//457 491//457 495//457
f 492//458 490//458 496//458
f 491//459 493//459 495//459
f 494//460 492//460 496//460
f 493//461 467//461 495//461
f 468//462 494//462 496//462
usemtl galvanized
f 497//463 500//463 499//463 498//463
f 501//464 502//464 503//464 504//464
f 497//465 501//465 504//465 500//465
f 498//466 499//466 503//466 502//466
f 500//467 504//467 503//467 499//467
f 497//468 498//468 502//468 501//468
f 505//469 508//469 507//469 506//469
f 509//470 510//470 511//470 512//470
f 505//471 509//471 512//471 508//471
f 506//472 507//472 511//472 510//472
f 508//473 512//473 511//473 507//473
f 505//474 506//474 510//474 509//474
