# breaker_panel.obj  Y-up, meters, origin at ground/wall contact
mtllib breaker_panel.mtl
v -0.2300 0.0000 -0.0050
v -0.2300 0.0000 0.0050
v -0.2300 1.1000 -0.0050
v -0.2300 1.1000 0.0050
v 0.2300 0.0000 -0.0050
v 0.2300 0.0000 0.0050
v 0.2300 1.1000 -0.0050
v 0.2300 1.1000 0.0050
v -0.2200 0.0000 0.0000
v -0.2300 0.0100 0.0000
v -0.2300 0.0000 0.0100
v -0.2200 0.0000 0.1200
v -0.2300 0.0100 0.1200
v -0.2300 0.0000 0.1100
v -0.2200 1.1000 0.0000
v -0.2300 1.0900 0.0000
v -0.2300 1.1000 0.0100
v -0.2200 1.1000 0.1200
v -0.2300 1.0900 0.1200
v -0.2300 1.1000 0.1100
v 0.2200 0.0000 0.0000
v 0.2300 0.0100 0.0000
v 0.2300 0.0000 0.0100
v 0.2200 0.0000 0.1200
v 0.2300 0.0100 0.1200
v 0.2300 0.0000 0.1100
v 0.2200 1.1000 0.0000
v 0.2300 1.0900 0.0000
v 0.2300 1.1000 0.0100
v 0.2200 1.1000 0.1200
v 0.2300 1.0900 0.1200
v 0.2300 1.1000 0.1100
v -0.2100 0.1600 0.1180
v -0.2100 0.1600 0.1240
v -0.2100 1.0800 0.1180
v -0.2100 1.0800 0.1240
v 0.2300 0.1600 0.1180
v 0.2300 0.1600 0.1240
v 0.2300 1.0800 0.1180
v 0.2300 1.0800 0.1240
v -0.1920 0.1700 0.1200
v -0.2000 0.1780 0.1200
v -0.2000 0.1700 0.1280
v -0.1920 0.1700 0.1500
v -0.2000 0.1780 0.1500
v -0.2000 0.1700 0.1420
v -0.1920 1.0700 0.1200
v -0.2000 1.0620 0.1200
v -0.2000 1.0700 0.1280
v -0.1920 1.0700 0.1500
v -0.2000 1.0620 0.1500
v -0.2000 1.0700 0.1420
v 0.2120 0.1700 0.1200
v 0.2200 0.1780 0.1200
v 0.2200 0.1700 0.1280
v 0.2120 0.1700 0.1500
v 0.2200 0.1780 0.1500
v 0.2200 0.1700 0.1420
v 0.2120 1.0700 0.1200
v 0.2200 1.0620 0.1200
v 0.2200 1.0700 0.1280
v 0.2120 1.0700 0.1500
v 0.2200 1.0620 0.1500
v 0.2200 1.0700 0.1420
v -0.2210 0.1900 0.1175
v -0.2210 0.1900 0.1525
v -0.2210 1.0500 0.1175
v -0.2210 1.0500 0.1525
v -0.2090 0.1900 0.1175
v -0.2090 0.1900 0.1525
v -0.2090 1.0500 0.1175
v -0.2090 1.0500 0.1525
v 0.1800 0.5750 0.1475
v 0.1800 0.5750 0.1725
v 0.1800 0.6650 0.1475
v 0.1800 0.6650 0.1725
v 0.2000 0.5750 0.1475
v 0.2000 0.5750 0.1725
v 0.2000 0.6650 0.1475
v 0.2000 0.6650 0.1725
v -0.2550 1.1010 0.0000
v -0.2550 1.1010 0.1700
v -0.2550 1.1310 0.0000
v -0.2550 1.1310 0.1700
v 0.2450 1.1010 0.0000
v 0.2450 1.1010 0.1700
v 0.2450 1.1310 0.0000
v 0.2450 1.1310 0.1700
v -0.2000 0.0700 0.1200
v -0.2000 0.0700 0.1400
v -0.2000 0.1700 0.1200
v -0.2000 0.1700 0.1400
v 0.2200 0.0700 0.1200
v 0.2200 0.0700 0.1400
v 0.2200 0.1700 0.1200
v 0.2200 0.1700 0.1400
v -0.0750 -0.0300 0.0600
v -0.0798 -0.0300 0.0747
v -0.0923 -0.0300 0.0838
v -0.1077 -0.0300 0.0838
v -0.1202 -0.0300 0.0747
v -0.1250 -0.0300 0.0600
v -0.1202 -0.0300 0.0453
v -0.1077 -0.0300 0.0362
v -0.0923 -0.0300 0.0362
v -0.0798 -0.0300 0.0453
v -0.0750 0.0200 0.0600
v -0.0798 0.0200 0.0747
v -0.0923 0.0200 0.0838
v -0.1077 0.0200 0.0838
v -0.1202 0.0200 0.0747
v -0.1250 0.0200 0.0600
v -0.1202 0.0200 0.0453
v -0.1077 0.0200 0.0362
v -0.0923 0.0200 0.0362
v -0.0798 0.0200 0.0453
v 0.1250 -0.0300 0.0600
v 0.1202 -0.0300 0.0747
v 0.1077 -0.0300 0.0838
v 0.0923 -0.0300 0.0838
v 0.0798 -0.0300 0.0747
v 0.0750 -0.0300 0.0600
v 0.0798 -0.0300 0.0453
v 0.0923 -0.0300 0.0362
v 0.1077 -0.0300 0.0362
v 0.1202 -0.0300 0.0453
v 0.1250 0.0200 0.0600
v 0.1202 0.0200 0.0747
v 0.1077 0.0200 0.0838
v 0.0923 0.0200 0.0838
v 0.0798 0.0200 0.0747
v 0.0750 0.0200 0.0600
v 0.0798 0.0200 0.0453
v 0.0923 0.0200 0.0362
v 0.1077 0.0200 0.0362
v 0.1202 0.0200 0.0453
v -0.0800 0.9000 0.1500
v -0.0800 0.9000 0.1560
v -0.0800 1.0000 0.1500
v -0.0800 1.0000 0.1560
v 0.0800 0.9000 0.1500
v 0.0800 0.9000 0.1560
v 0.0800 1.0000 0.1500
v 0.0800 1.0000 0.1560
v -0.0600 0.9610 0.1495
v -0.0600 0.9610 0.1565
v -0.0600 0.9690 0.1495
v -0.0600 0.9690 0.1565
v 0.0600 0.9610 0.1495
v 0.0600 0.9610 0.1565
v 0.0600 0.9690 0.1495
v 0.0600 0.9690 0.1565
v -0.0600 0.9410 0.1495
v -0.0600 0.9410 0.1565
v -0.0600 0.9490 0.1495
v -0.0600 0.9490 0.1565
v 0.0600 0.9410 0.1495
v 0.0600 0.9410 0.1565
v 0.0600 0.9490 0.1495
v 0.0600 0.9490 0.1565
v -0.0600 0.9210 0.1495
v -0.0600 0.9210 0.1565
v -0.0600 0.9290 0.1495
v -0.0600 0.9290 0.1565
v 0.0600 0.9210 0.1495
v 0.0600 0.9210 0.1565
v 0.0600 0.9290 0.1495
v 0.0600 0.9290 0.1565
v -0.0500 0.7350 0.1500
v -0.0500 0.7350 0.1560
v -0.0500 0.7850 0.1500
v -0.0500 0.7850 0.1560
v 0.0500 0.7350 0.1500
v 0.0500 0.7350 0.1560
v 0.0500 0.7850 0.1500
v 0.0500 0.7850 0.1560
v -0.0300 0.3800 0.1500
v -0.0300 0.3800 0.1560
v -0.0300 0.4200 0.1500
v -0.0300 0.4200 0.1560
v 0.0300 0.3800 0.1500
v 0.0300 0.3800 0.1560
v 0.0300 0.4200 0.1500
v 0.0300 0.4200 0.1560
v -0.0500 0.2850 0.1500
v -0.0500 0.2850 0.1560
v -0.0500 0.3150 0.1500
v -0.0500 0.3150 0.1560
v 0.0500 0.2850 0.1500
v 0.0500 0.2850 0.1560
v 0.0500 0.3150 0.1500
v 0.0500 0.3150 0.1560
usemtl panel_seam
f 1 3 7
f 7 5 1
f 1 5 6
f 6 2 1
f 5 7 6
f 6 7 8
f 4 3 1
f 1 2 4
f 4 7 3
f 8 7 4
f 2 6 4
f 4 6 8
f 33 35 39
f 39 37 33
f 33 37 38
f 38 34 33
f 37 39 38
f 38 39 40
f 36 35 33
f 33 34 36
f 36 39 35
f 40 39 36
f 34 38 36
f 36 38 40
usemtl panel_paint
f 10 9 11
f 15 16 17
f 22 23 21
f 12 13 14
f 27 29 28
f 19 18 20
f 25 24 26
f 32 30 31
f 27 9 10
f 27 28 22
f 10 16 27
f 22 21 27
f 27 16 15
f 27 21 9
f 30 25 31
f 12 24 30
f 30 13 12
f 30 18 19
f 19 13 30
f 30 24 25
f 20 16 10
f 10 11 20
f 20 13 19
f 11 14 20
f 20 17 16
f 20 14 13
f 26 11 9
f 26 24 12
f 9 21 26
f 26 21 23
f 12 14 26
f 26 14 11
f 22 28 32
f 31 25 32
f 32 23 22
f 25 26 32
f 28 29 32
f 32 26 23
f 32 27 15
f 15 17 32
f 18 30 32
f 29 27 32
f 17 20 32
f 32 20 18
f 42 41 43
f 47 48 49
f 54 55 53
f 44 45 46
f 59 61 60
f 51 50 52
f 57 56 58
f 64 62 63
f 59 41 42
f 59 60 54
f 42 48 59
f 54 53 59
f 59 48 47
f 59 53 41
f 62 57 63
f 44 56 62
f 62 45 44
f 62 50 51
f 51 45 62
f 62 56 57
f 52 48 42
f 42 43 52
f 52 45 51
f 43 46 52
f 52 49 48
f 52 46 45
f 58 43 41
f 58 56 44
f 41 53 58
f 58 53 55
f 44 46 58
f 58 46 43
f 54 60 64
f 63 57 64
f 64 55 54
f 57 58 64
f 60 61 64
f 64 58 55
f 64 59 47
f 47 49 64
f 50 62 64
f 61 59 64
f 49 52 64
f 64 52 50
usemtl galvanized
f 65 67 71
f 71 69 65
f 65 69 70
f 70 66 65
f 69 71 70
f 70 71 72
f 68 67 65
f 65 66 68
f 68 71 67
f 72 71 68
f 66 70 68
f 68 70 72
f 73 75 79
f 79 77 73
f 73 77 78
f 78 74 73
f 77 79 78
f 78 79 80
f 76 75 73
f 73 74 76
f 76 79 75
f 80 79 76
f 74 78 76
f 76 78 80
f 109 100 99
f 110 100 109
f 108 98 97
f 97 107 108
f 99 98 108
f 108 109 99
f 111 100 110
f 111 101 100
f 105 101 102
f 97 98 105
f 105 106 97
f 105 98 99
f 99 100 105
f 102 103 105
f 100 101 105
f 105 103 104
f 97 106 116
f 116 107 97
f 106 105 116
f 116 105 115
f 104 103 114
f 114 103 113
f 114 105 104
f 115 105 114
f 112 111 110
f 112 108 107
f 110 109 112
f 107 116 112
f 109 108 112
f 112 114 113
f 112 116 115
f 115 114 112
f 112 103 102
f 113 103 112
f 102 101 112
f 101 111 112
f 128 118 117
f 117 127 128
f 119 118 128
f 128 129 119
f 122 121 132
f 132 121 131
f 132 123 122
f 133 123 132
f 121 120 130
f 131 121 130
f 119 129 130
f 130 120 119
f 119 120 125
f 117 118 125
f 125 121 122
f 125 118 119
f 125 126 117
f 122 123 125
f 125 120 121
f 125 123 124
f 117 126 136
f 136 127 117
f 126 125 136
f 136 125 135
f 131 130 134
f 134 132 131
f 134 128 127
f 129 128 134
f 133 132 134
f 127 136 134
f 134 130 129
f 134 136 135
f 134 123 133
f 124 123 134
f 134 125 124
f 135 125 134
usemtl steel_paint_dark
f 81 83 87
f 87 85 81
f 81 85 86
f 86 82 81
f 85 87 86
f 86 87 88
f 84 83 81
f 81 82 84
f 84 87 83
f 88 87 84
f 82 86 84
f 84 86 88
f 89 91 95
f 95 93 89
f 89 93 94
f 94 90 89
f 93 95 94
f 94 95 96
f 92 91 89
f 89 90 92
f 92 95 91
f 96 95 92
f 90 94 92
f 92 94 96
usemtl label_white
f 137 139 143
f 143 141 137
f 137 141 142
f 142 138 137
f 141 143 142
f 142 143 144
f 140 139 137
f 137 138 140
f 140 143 139
f 144 143 140
f 138 142 140
f 140 142 144
usemtl label_black
f 145 147 151
f 151 149 145
f 145 149 150
f 150 146 145
f 149 151 150
f 150 151 152
f 148 147 145
f 145 146 148
f 148 151 147
f 152 151 148
f 146 150 148
f 148 150 152
f 153 155 159
f 159 157 153
f 153 157 158
f 158 154 153
f 157 159 158
f 158 159 160
f 156 155 153
f 153 154 156
f 156 159 155
f 160 159 156
f 154 158 156
f 156 158 160
f 161 163 167
f 167 165 161
f 161 165 166
f 166 162 161
f 165 167 166
f 166 167 168
f 164 163 161
f 161 162 164
f 164 167 163
f 168 167 164
f 162 166 164
f 164 166 168
f 185 187 191
f 191 189 185
f 185 189 190
f 190 186 185
f 189 191 190
f 190 191 192
f 188 187 185
f 185 186 188
f 188 191 187
f 192 191 188
f 186 190 188
f 188 190 192
usemtl label_yellow
f 169 171 175
f 175 173 169
f 169 173 174
f 174 170 169
f 173 175 174
f 174 175 176
f 172 171 169
f 169 170 172
f 172 175 171
f 176 175 172
f 170 174 172
f 172 174 176
usemtl label_red
f 177 179 183
f 183 181 177
f 177 181 182
f 182 178 177
f 181 183 182
f 182 183 184
f 180 179 177
f 177 178 180
f 180 183 179
f 184 183 180
f 178 182 180
f 180 182 184
