# conduit_straight.obj  Y-up, meters, origin at ground/wall contact
mtllib conduit_straight.mtl
v 0.0220 1.5000 0.0300
v 0.0220 0.0000 0.0300
v 0.0207 1.5000 0.0375
v 0.0207 0.0000 0.0375
v 0.0169 1.5000 0.0441
v 0.0169 0.0000 0.0441
v 0.0110 1.5000 0.0491
v 0.0110 0.0000 0.0491
v 0.0038 1.5000 0.0517
v 0.0038 0.0000 0.0517
v -0.0038 1.5000 0.0517
v -0.0038 0.0000 0.0517
v -0.0110 1.5000 0.0491
v -0.0110 0.0000 0.0491
v -0.0169 1.5000 0.0441
v -0.0169 0.0000 0.0441
v -0.0207 1.5000 0.0375
v -0.0207 0.0000 0.0375
v -0.0220 1.5000 0.0300
v -0.0220 0.0000 0.0300
v -0.0207 1.5000 0.0225
v -0.0207 0.0000 0.0225
v -0.0169 1.5000 0.0159
v -0.0169 0.0000 0.0159
v -0.0110 1.5000 0.0109
v -0.0110 0.0000 0.0109
v -0.0038 1.5000 0.0083
v -0.0038 0.0000 0.0083
v 0.0038 1.5000 0.0083
v 0.0038 0.0000 0.0083
v 0.0110 1.5000 0.0109
v 0.0110 0.0000 0.0109
v 0.0169 1.5000 0.0159
v 0.0169 0.0000 0.0159
v 0.0207 1.5000 0.0225
v 0.0207 0.0000 0.0225
v 0.0000 1.5000 0.0300
v 0.0000 0.0000 0.0300
v 0.0260 0.5950 0.0300
v 0.0260 0.5450 0.0300
v 0.0244 0.5950 0.0389
v 0.0244 0.5450 0.0389
v 0.0199 0.5950 0.0467
v 0.0199 0.5450 0.0467
v 0.0130 0.5950 0.0525
v 0.0130 0.5450 0.0525
v 0.0045 0.5950 0.0556
v 0.0045 0.5450 0.0556
v -0.0045 0.5950 0.0556
v -0.0045 0.5450 0.0556
v -0.0130 0.5950 0.0525
v -0.0130 0.5450 0.0525
v -0.0199 0.5950 0.0467
v -0.0199 0.5450 0.0467
v -0.0244 0.5950 0.0389
v -0.0244 0.5450 0.0389
v -0.0260 0.5950 0.0300
v -0.0260 0.5450 0.0300
v -0.0244 0.5950 0.0211
v -0.0244 0.5450 0.0211
v -0.0199 0.5950 0.0133
v -0.0199 0.5450 0.0133
v -0.0130 0.5950 0.0075
v -0.0130 0.5450 0.0075
v -0.0045 0.5950 0.0044
v -0.0045 0.5450 0.0044
v 0.0045 0.5950 0.0044
v 0.0045 0.5450 0.0044
v 0.0130 0.5950 0.0075
v 0.0130 0.5450 0.0075
v 0.0199 0.5950 0.0133
v 0.0199 0.5450 0.0133
v 0.0244 0.5950 0.0211
v 0.0244 0.5450 0.0211
v 0.0000 0.5950 0.0300
v 0.0000 0.5450 0.0300
v -0.0500 0.1380 0.0000
v 0.0500 0.1380 0.0000
v 0.0500 0.1620 0.0000
v -0.0500 0.1620 0.0000
v -0.0500 0.1380 0.0160
v 0.0500 0.1380 0.0160
v 0.0500 0.1620 0.0160
v -0.0500 0.1620 0.0160
v -0.0250 0.1380 0.0010
v 0.0250 0.1380 0.0010
v 0.0250 0.1620 0.0010
v -0.0250 0.1620 0.0010
v -0.0250 0.1380 0.0590
v 0.0250 0.1380 0.0590
v 0.0250 0.1620 0.0590
v -0.0250 0.1620 0.0590
v -0.0360 0.1500 0.0190
v -0.0360 0.1500 0.0150
v -0.0378 0.1542 0.0190
v -0.0378 0.1542 0.0150
v -0.0420 0.1560 0.0190
v -0.0420 0.1560 0.0150
v -0.0462 0.1542 0.0190
v -0.0462 0.1542 0.0150
v -0.0480 0.1500 0.0190
v -0.0480 0.1500 0.0150
v -0.0462 0.1458 0.0190
v -0.0462 0.1458 0.0150
v -0.0420 0.1440 0.0190
v -0.0420 0.1440 0.0150
v -0.0378 0.1458 0.0190
v -0.0378 0.1458 0.0150
v -0.0420 0.1500 0.0190
v -0.0420 0.1500 0.0150
v 0.0480 0.1500 0.0190
v 0.0480 0.1500 0.0150
v 0.0462 0.1542 0.0190
v 0.0462 0.1542 0.0150
v 0.0420 0.1560 0.0190
v 0.0420 0.1560 0.0150
v 0.0378 0.1542 0.0190
v 0.0378 0.1542 0.0150
v 0.0360 0.1500 0.0190
v 0.0360 0.1500 0.0150
v 0.0378 0.1458 0.0190
v 0.0378 0.1458 0.0150
v 0.0420 0.1440 0.0190
v 0.0420 0.1440 0.0150
v 0.0462 0.1458 0.0190
v 0.0462 0.1458 0.0150
v 0.0420 0.1500 0.0190
v 0.0420 0.1500 0.0150
v -0.0500 0.7380 0.0000
v 0.0500 0.7380 0.0000
v 0.0500 0.7620 0.0000
v -0.0500 0.7620 0.0000
v -0.0500 0.7380 0.0160
v 0.0500 0.7380 0.0160
v 0.0500 0.7620 0.0160
v -0.0500 0.7620 0.0160
v -0.0250 0.7380 0.0010
v 0.0250 0.7380 0.0010
v 0.0250 0.7620 0.0010
v -0.0250 0.7620 0.0010
v -0.0250 0.7380 0.0590
v 0.0250 0.7380 0.0590
v 0.0250 0.7620 0.0590
v -0.0250 0.7620 0.0590
v -0.0360 0.7500 0.0190
v -0.0360 0.7500 0.0150
v -0.0378 0.7542 0.0190
v -0.0378 0.7542 0.0150
v -0.0420 0.7560 0.0190
v -0.0420 0.7560 0.0150
v -0.0462 0.7542 0.0190
v -0.0462 0.7542 0.0150
v -0.0480 0.7500 0.0190
v -0.0480 0.7500 0.0150
v -0.0462 0.7458 0.0190
v -0.0462 0.7458 0.0150
v -0.0420 0.7440 0.0190
v -0.0420 0.7440 0.0150
v -0.0378 0.7458 0.0190
v -0.0378 0.7458 0.0150
v -0.0420 0.7500 0.0190
v -0.0420 0.7500 0.0150
v 0.0480 0.7500 0.0190
v 0.0480 0.7500 0.0150
v 0.0462 0.7542 0.0190
v 0.0462 0.7542 0.0150
v 0.0420 0.7560 0.0190
v 0.0420 0.7560 0.0150
v 0.0378 0.7542 0.0190
v 0.0378 0.7542 0.0150
v 0.0360 0.7500 0.0190
v 0.0360 0.7500 0.0150
v 0.0378 0.7458 0.0190
v 0.0378 0.7458 0.0150
v 0.0420 0.7440 0.0190
v 0.0420 0.7440 0.0150
v 0.0462 0.7458 0.0190
v 0.0462 0.7458 0.0150
v 0.0420 0.7500 0.0190
v 0.0420 0.7500 0.0150
v -0.0500 1.3380 0.0000
v 0.0500 1.3380 0.0000
v 0.0500 1.3620 0.0000
v -0.0500 1.3620 0.0000
v -0.0500 1.3380 0.0160
v 0.0500 1.3380 0.0160
v 0.0500 1.3620 0.0160
v -0.0500 1.3620 0.0160
v -0.0250 1.3380 0.0010
v 0.0250 1.3380 0.0010
v 0.0250 1.3620 0.0010
v -0.0250 1.3620 0.0010
v -0.0250 1.3380 0.0590
v 0.0250 1.3380 0.0590
v 0.0250 1.3620 0.0590
v -0.0250 1.3620 0.0590
v -0.0360 1.3500 0.0190
v -0.0360 1.3500 0.0150
v -0.0378 1.3542 0.0190
v -0.0378 1.3542 0.0150
v -0.0420 1.3560 0.0190
v -0.0420 1.3560 0.0150
v -0.0462 1.3542 0.0190
v -0.0462 1.3542 0.0150
v -0.0480 1.3500 0.0190
v -0.0480 1.3500 0.0150
v -0.0462 1.3458 0.0190
v -0.0462 1.3458 0.0150
v -0.0420 1.3440 0.0190
v -0.0420 1.3440 0.0150
v -0.0378 1.3458 0.0190
v -0.0378 1.3458 0.0150
v -0.0420 1.3500 0.0190
v -0.0420 1.3500 0.0150
v 0.0480 1.3500 0.0190
v 0.0480 1.3500 0.0150
v 0.0462 1.3542 0.0190
v 0.0462 1.3542 0.0150
v 0.0420 1.3560 0.0190
v 0.0420 1.3560 0.0150
v 0.0378 1.3542 0.0190
v 0.0378 1.3542 0.0150
v 0.0360 1.3500 0.0190
v 0.0360 1.3500 0.0150
v 0.0378 1.3458 0.0190
v 0.0378 1.3458 0.0150
v 0.0420 1.3440 0.0190
v 0.0420 1.3440 0.0150
v 0.0462 1.3458 0.0190
v 0.0462 1.3458 0.0150
v 0.0420 1.3500 0.0190
v 0.0420 1.3500 0.0150
vn 0.9848 0.0000 0.1736
vn 0.8660 0.0000 0.5000
vn 0.6428 0.0000 0.7660
vn 0.3420 0.0000 0.9397
vn 0.0000 0.0000 1.0000
vn -0.3420 0.0000 0.9397
vn -0.6428 0.0000 0.7660
vn -0.8660 0.0000 0.5000
vn -0.9848 0.0000 0.1736
vn -0.9848 0.0000 -0.1736
vn -0.8660 0.0000 -0.5000
vn -0.6428 0.0000 -0.7660
vn -0.3420 0.0000 -0.9397
vn -0.0000 0.0000 -1.0000
vn 0.3420 0.0000 -0.9397
vn 0.6428 0.0000 -0.7660
vn 0.8660 0.0000 -0.5000
vn 0.9848 0.0000 -0.1736
vn 0.0000 1.0000 0.0000
vn 0.0000 -1.0000 0.0000
vn 0.0000 1.0000 0.0000
vn 0.0000 -1.0000 0.0000
vn 0.0000 1.0000 0.0000
vn 0.0000 -1.0000 0.0000
vn 0.0000 1.0000 0.0000
vn 0.0000 -1.0000 0.0000
vn 0.0000 1.0000 0.0000
vn 0.0000 -1.0000 0.0000
vn 0.0000 1.0000 -0.0000
vn 0.0000 -1.0000 0.0000
vn 0.0000 1.0000 0.0000
vn 0.0000 -1.0000 0.0000
vn 0.0000 1.0000 0.0000
vn 0.0000 -1.0000 0.0000
vn 0.0000 1.0000 0.0000
vn 0.0000 -1.0000 0.0000
vn 0.0000 1.0000 0.0000
vn 0.0000 -1.0000 0.0000
vn 0.0000 1.0000 0.0000
vn 0.0000 -1.0000 0.0000
vn 0.0000 1.0000 0.0000
vn 0.0000 -1.0000 0.0000
vn 0.0000 1.0000 0.0000
vn 0.0000 -1.0000 0.0000
vn 0.0000 1.0000 0.0000
vn 0.0000 -1.0000 0.0000
vn 0.0000 1.0000 -0.0000
vn 0.0000 -1.0000 0.0000
vn 0.0000 1.0000 0.0000
vn 0.0000 -1.0000 0.0000
vn 0.0000 1.0000 0.0000
vn 0.0000 -1.0000 0.0000
vn 0.0000 1.0000 -0.0000
vn 0.0000 -1.0000 0.0000
vn 0.9848 0.0000 0.1736
vn 0.8660 0.0000 0.5000
vn 0.6428 0.0000 0.7660
vn 0.3420 0.0000 0.9397
vn 0.0000 0.0000 1.0000
vn -0.3420 0.0000 0.9397
vn -0.6428 0.0000 0.7660
vn -0.8660 0.0000 0.5000
vn -0.9848 0.0000 0.1736
vn -0.9848 0.0000 -0.1736
vn -0.8660 0.0000 -0.5000
vn -0.6428 0.0000 -0.7660
vn -0.3420 0.0000 -0.9397
vn -0.0000 0.0000 -1.0000
vn 0.3420 0.0000 -0.9397
vn 0.6428 0.0000 -0.7660
vn 0.8660 0.0000 -0.5000
vn 0.9848 0.0000 -0.1736
vn 0.0000 1.0000 -0.0000
vn 0.0000 -1.0000 0.0000
vn 0.0000 1.0000 0.0000
vn 0.0000 -1.0000 0.0000
vn 0.0000 1.0000 -0.0000
vn 0.0000 -1.0000 -0.0000
vn 0.0000 1.0000 0.0000
vn 0.0000 -1.0000 -0.0000
vn 0.0000 1.0000 0.0000
vn 0.0000 -1.0000 -0.0000
vn 0.0000 1.0000 0.0000
vn 0.0000 -1.0000 0.0000
vn 0.0000 1.0000 0.0000
vn 0.0000 -1.0000 0.0000
vn 0.0000 1.0000 0.0000
vn 0.0000 -1.0000 0.0000
vn 0.0000 1.0000 0.0000
vn 0.0000 -1.0000 0.0000
vn 0.0000 1.0000 0.0000
vn 0.0000 -1.0000 0.0000
vn 0.0000 1.0000 0.0000
vn 0.0000 -1.0000 -0.0000
vn 0.0000 1.0000 0.0000
vn 0.0000 -1.0000 0.0000
vn 0.0000 1.0000 -0.0000
vn 0.0000 -1.0000 0.0000
vn 0.0000 1.0000 -0.0000
vn 0.0000 -1.0000 0.0000
vn 0.0000 1.0000 0.0000
vn 0.0000 -1.0000 0.0000
vn 0.0000 1.0000 -0.0000
vn 0.0000 -1.0000 0.0000
vn 0.0000 1.0000 0.0000
vn 0.0000 -1.0000 0.0000
vn 0.0000 1.0000 0.0000
vn 0.0000 -1.0000 0.0000
vn 0.0000 0.0000 -1.0000
vn 0.0000 0.0000 1.0000
vn -1.0000 0.0000 0.0000
vn 1.0000 0.0000 0.0000
vn 0.0000 1.0000 0.0000
vn 0.0000 -1.0000 0.0000
vn 0.0000 0.0000 -1.0000
vn 0.0000 0.0000 1.0000
vn -1.0000 0.0000 0.0000
vn 1.0000 0.0000 0.0000
vn 0.0000 1.0000 0.0000
vn 0.0000 -1.0000 0.0000
vn 0.9239 0.3827 0.0000
vn 0.3827 0.9239 0.0000
vn -0.3827 0.9239 0.0000
vn -0.9239 0.3827 0.0000
vn -0.9239 -0.3827 0.0000
vn -0.3827 -0.9239 0.0000
vn 0.3827 -0.9239 0.0000
vn 0.9239 -0.3827 0.0000
vn 0.0000 0.0000 1.0000
vn 0.0000 0.0000 -1.0000
vn 0.0000 0.0000 1.0000
vn 0.0000 0.0000 -1.0000
vn 0.0000 0.0000 1.0000
vn 0.0000 0.0000 -1.0000
vn 0.0000 0.0000 1.0000
vn 0.0000 0.0000 -1.0000
vn 0.0000 0.0000 1.0000
vn 0.0000 0.0000 -1.0000
vn 0.0000 0.0000 1.0000
vn 0.0000 0.0000 -1.0000
vn 0.0000 0.0000 1.0000
vn 0.0000 0.0000 -1.0000
vn 0.0000 0.0000 1.0000
vn 0.0000 0.0000 -1.0000
vn 0.9239 0.3827 0.0000
vn 0.3827 0.9239 0.0000
vn -0.3827 0.9239 0.0000
vn -0.9239 0.3827 0.0000
vn -0.9239 -0.3827 0.0000
vn -0.3827 -0.9239 0.0000
vn 0.3827 -0.9239 0.0000
vn 0.9239 -0.3827 0.0000
vn 0.0000 0.0000 1.0000
vn 0.0000 0.0000 -1.0000
vn 0.0000 0.0000 1.0000
vn 0.0000 0.0000 -1.0000
vn 0.0000 0.0000 1.0000
vn 0.0000 0.0000 -1.0000
vn 0.0000 0.0000 1.0000
vn 0.0000 0.0000 -1.0000
vn 0.0000 0.0000 1.0000
vn 0.0000 0.0000 -1.0000
vn 0.0000 0.0000 1.0000
vn 0.0000 0.0000 -1.0000
vn 0.0000 0.0000 1.0000
vn 0.0000 0.0000 -1.0000
vn 0.0000 0.0000 1.0000
vn 0.0000 0.0000 -1.0000
vn 0.0000 0.0000 -1.0000
vn 0.0000 0.0000 1.0000
vn -1.0000 0.0000 0.0000
vn 1.0000 0.0000 0.0000
vn 0.0000 1.0000 0.0000
vn 0.0000 -1.0000 0.0000
vn 0.0000 0.0000 -1.0000
vn 0.0000 0.0000 1.0000
vn -1.0000 0.0000 0.0000
vn 1.0000 0.0000 0.0000
vn 0.0000 1.0000 0.0000
vn 0.0000 -1.0000 0.0000
vn 0.9239 0.3827 0.0000
vn 0.3827 0.9239 0.0000
vn -0.3827 0.9239 0.0000
vn -0.9239 0.3827 0.0000
vn -0.9239 -0.3827 0.0000
vn -0.3827 -0.9239 0.0000
vn 0.3827 -0.9239 0.0000
vn 0.9239 -0.3827 0.0000
vn 0.0000 0.0000 1.0000
vn 0.0000 0.0000 -1.0000
vn 0.0000 0.0000 1.0000
vn 0.0000 0.0000 -1.0000
vn 0.0000 0.0000 1.0000
vn 0.0000 0.0000 -1.0000
vn 0.0000 0.0000 1.0000
vn 0.0000 0.0000 -1.0000
vn 0.0000 0.0000 1.0000
vn 0.0000 0.0000 -1.0000
vn 0.0000 0.0000 1.0000
vn 0.0000 0.0000 -1.0000
vn 0.0000 0.0000 1.0000
vn 0.0000 0.0000 -1.0000
vn 0.0000 0.0000 1.0000
vn 0.0000 0.0000 -1.0000
vn 0.9239 0.3827 0.0000
vn 0.3827 0.9239 0.0000
vn -0.3827 0.9239 0.0000
vn -0.9239 0.3827 0.0000
vn -0.9239 -0.3827 0.0000
vn -0.3827 -0.9239 0.0000
vn 0.3827 -0.9239 0.0000
vn 0.9239 -0.3827 0.0000
vn 0.0000 0.0000 1.0000
vn 0.0000 0.0000 -1.0000
vn 0.0000 0.0000 1.0000
vn 0.0000 0.0000 -1.0000
vn 0.0000 0.0000 1.0000
vn 0.0000 0.0000 -1.0000
vn 0.0000 0.0000 1.0000
vn 0.0000 0.0000 -1.0000
vn 0.0000 0.0000 1.0000
vn 0.0000 0.0000 -1.0000
vn 0.0000 0.0000 1.0000
vn 0.0000 0.0000 -1.0000
vn 0.0000 0.0000 1.0000
vn 0.0000 0.0000 -1.0000
vn 0.0000 0.0000 1.0000
vn 0.0000 0.0000 -1.0000
vn 0.0000 0.0000 -1.0000
vn 0.0000 0.0000 1.0000
vn -1.0000 0.0000 0.0000
vn 1.0000 0.0000 0.0000
vn 0.0000 1.0000 0.0000
vn 0.0000 -1.0000 0.0000
vn 0.0000 0.0000 -1.0000
vn 0.0000 0.0000 1.0000
vn -1.0000 0.0000 0.0000
vn 1.0000 0.0000 0.0000
vn 0.0000 1.0000 0.0000
vn 0.0000 -1.0000 0.0000
vn 0.9239 0.3827 0.0000
vn 0.3827 0.9239 0.0000
vn -0.3827 0.9239 0.0000
vn -0.9239 0.3827 0.0000
vn -0.9239 -0.3827 0.0000
vn -0.3827 -0.9239 0.0000
vn 0.3827 -0.9239 0.0000
vn 0.9239 -0.3827 0.0000
vn 0.0000 0.0000 1.0000
vn 0.0000 0.0000 -1.0000
vn -0.0000 0.0000 1.0000
vn 0.0000 0.0000 -1.0000
vn 0.0000 0.0000 1.0000
vn 0.0000 0.0000 -1.0000
vn 0.0000 0.0000 1.0000
vn 0.0000 0.0000 -1.0000
vn 0.0000 0.0000 1.0000
vn 0.0000 0.0000 -1.0000
vn 0.0000 0.0000 1.0000
vn 0.0000 0.0000 -1.0000
vn 0.0000 0.0000 1.0000
vn 0.0000 0.0000 -1.0000
vn 0.0000 0.0000 1.0000
vn 0.0000 0.0000 -1.0000
vn 0.9239 0.3827 0.0000
vn 0.3827 0.9239 0.0000
vn -0.3827 0.9239 0.0000
vn -0.9239 0.3827 0.0000
vn -0.9239 -0.3827 0.0000
vn -0.3827 -0.9239 0.0000
vn 0.3827 -0.9239 0.0000
vn 0.9239 -0.3827 0.0000
vn 0.0000 0.0000 1.0000
vn 0.0000 0.0000 -1.0000
vn -0.0000 0.0000 1.0000
vn 0.0000 0.0000 -1.0000
vn 0.0000 0.0000 1.0000
vn 0.0000 0.0000 -1.0000
vn 0.0000 0.0000 1.0000
vn 0.0000 0.0000 -1.0000
vn 0.0000 0.0000 1.0000
vn 0.0000 0.0000 -1.0000
vn 0.0000 0.0000 1.0000
vn 0.0000 0.0000 -1.0000
vn 0.0000 0.0000 1.0000
vn 0.0000 0.0000 -1.0000
vn 0.0000 0.0000 1.0000
vn 0.0000 0.0000 -1.0000
usemtl conduit_paint
f 1//1 3//1 4//1 2//1
f 3//2 5//2 6//2 4//2
f 5//3 7//3 8//3 6//3
f 7//4 9//4 10//4 8//4
f 9//5 11//5 12//5 10//5
f 11//6 13//6 14//6 12//6
f 13//7 15//7 16//7 14//7
f 15//8 17//8 18//8 16//8
f 17//9 19//9 20//9 18//9
f 19//10 21//10 22//10 20//10
f 21//11 23//11 24//11 22//11
f 23//12 25//12 26//12 24//12
f 25//13 27//13 28//13 26//13
f 27//14 29//14 30//14 28//14
f 29//15 31//15 32//15 30//15
f 31//16 33//16 34//16 32//16
f 33//17 35//17 36//17 34//17
f 35//18 1//18 2//18 36//18
f 37//19 3//19 1//19
f 38//20 2//20 4//20
f 37//21 5//21 3//21
f 38//22 4//22 6//22
f 37//23 7//23 5//23
f 38//24 6//24 8//24
f 37//25 9//25 7//25
f 38//26 8//26 10//26
f 37//27 11//27 9//27
f 38//28 10//28 12//28
f 37//29 13//29 11//29
f 38//30 12//30 14//30
f 37//31 15//31 13//31
f 38//32 14//32 16//32
f 37//33 17//33 15//33
f 38//34 16//34 18//34
f 37//35 19//35 17//35
f 38//36 18//36 20//36
f 37//37 21//37 19//37
f 38//38 20//38 22//38
f 37//39 23//39 21//39
f 38//40 22//40 24//40
f 37//41 25//41 23//41
f 38//42 24//42 26//42
f 37//43 27//43 25//43
f 38//44 26//44 28//44
f 37//45 29//45 27//45
f 38//46 28//46 30//46
f 37//47 31//47 29//47
f 38//48 30//48 32//48
f 37//49 33//49 31//49
f 38//50 32//50 34//50
f 37//51 35//51 33//51
f 38//52 34//52 36//52
f 37//53 1//53 35//53
f 38//54 36//54 2//54
usemtl galvanized
f 39//55 41//55 42//55 40//55
f 41//56 43//56 44//56 42//56
f 43//57 45//57 46//57 44//57
f 45//58 47//58 48//58 46//58
f 47//59 49//59 50//59 48//59
f 49//60 51//60 52//60 50//60
f 51//61 53//61 54//61 52//61
f 53//62 55//62 56//62 54//62
f 55//63 57//63 58//63 56//63
f 57//64 59//64 60//64 58//64
f 59//65 61//65 62//65 60//65
f 61//66 63//66 64//66 62//66
f 63//67 65//67 66//67 64//67
f 65//68 67//68 68//68 66//68
f 67//69 69//69 70//69 68//69
f 69//70 71//70 72//70 70//70
f 71//71 73//71 74//71 72//71
f 73//72 39//72 40//72 74//72
f 75//73 41//73 39//73
f 76//74 40//74 42//74
f 75//75 43//75 41//75
f 76//76 42//76 44//76
f 75//77 45//77 43//77
f 76//78 44//78 46//78
f 75//79 47//79 45//79
f 76//80 46//80 48//80
f 75//81 49//81 47//81
f 76//82 48//82 50//82
f 75//83 51//83 49//83
f 76//84 50//84 52//84
f 75//85 53//85 51//85
f 76//86 52//86 54//86
f 75//87 55//87 53//87
f 76//88 54//88 56//88
f 75//89 57//89 55//89
f 76//90 56//90 58//90
f 75//91 59//91 57//91
f 76//92 58//92 60//92
f 75//93 61//93 59//93
f 76//94 60//94 62//94
f 75//95 63//95 61//95
f 76//96 62//96 64//96
f 75//97 65//97 63//97
f 76//98 64//98 66//98
f 75//99 67//99 65//99
f 76//100 66//100 68//100
f 75//101 69//101 67//101
f 76//102 68//102 70//102
f 75//103 71//103 69//103
f 76//104 70//104 72//104
f 75//105 73//105 71//105
f 76//106 72//106 74//106
f 75//107 39//107 73//107
f 76//108 74//108 40//108
f 77//109 80//109 79//109 78//109
f 81//110 82//110 83//110 84//110
f 77//111 81//111 84//111 80//111
f 78//112 79//112 83//112 82//112
f 80//113 84//113 83//113 79//113
f 77//114 78//114 82//114 81//114
f 85//115 88//115 87//115 86//115
f 89//116 90//116 91//116 92//116
f 85//117 89//117 92//117 88//117
f 86//118 87//118 91//118 90//118
f 88//119 92//119 91//119 87//119
f 85//120 86//120 90//120 89//120
f 94//121 96//121 95//121 93//121
f 96//122 98//122 97//122 95//122
f 98//123 100//123 99//123 97//123
f 100//124 102//124 101//124 99//124
f 102//125 104//125 103//125 101//125
f 104//126 106//126 105//126 103//126
f 106//127 108//127 107//127 105//127
f 108//128 94//128 93//128 107//128
f 93//129 95//129 109//129
f 96//130 94//130 110//130
f 95//131 97//131 109//131
f 98//132 96//132 110//132
f 97//133 99//133 109//133
f 100//134 98//134 110//134
f 99//135 101//135 109//135
f 102//136 100//136 110//136
f 101//137 103//137 109//137
f 104//138 102//138 110//138
f 103//139 105//139 109//139
f 106//140 104//140 110//140
f 105//141 107//141 109//141
f 108//142 106//142 110//142
f 107//143 93//143 109//143
f 94//144 108//144 110//144
f 112//145 114//145 113//145 111//145
f 114//146 116//146 115//146 113//146
f 116//147 118//147 117//147 115//147
f 118//148 120//148 119//148 117//148
f 120//149 122//149 121//149 119//149
f 122//150 124//150 123//150 121//150
f 124//151 126//151 125//151 123//151
f 126//152 112//152 111//152 125//152
f 111//153 113//153 127//153
f 114//154 112//154 128//154
f 113//155 115//155 127//155
f 116//156 114//156 128//156
f 115//157 117//157 127//157
f 118//158 116//158 128//158
f 117//159 119//159 127//159
f 120//160 118//160 128//160
f 119//161 121//161 127//161
f 122//162 120//162 128//162
f 121//163 123//163 127//163
f 124//164 122//164 128//164
f 123//165 125//165 127//165
f 126//166 124//166 128//166
f 125//167 111//167 127//167
f 112//168 126//168 128//168
f 129//169 132//169 131//169 130//169
f 133//170 134//170 135//170 136//170
f 129//171 133//171 136//171 132//171
f 130//172 131//172 135//172 134//172
f 132//173 136//173 135//173 131//173
f 129//174 130//174 134//174 133//174
f 137//175 140//175 139//175 138//175
f 141//176 142//176 143//176 144//176
f 137//177 141//177 144//177 140//177
f 138//178 139//178 143//178 142//178
f 140//179 144//179 143//179 139//179
f 137//180 138//180 142//180 141//180
f 146//181 148//181 147//181 145//181
f 148//182 150//182 149//182 147//182
f 150//183 152//183 151//183 149//183
f 152//184 154//184 153//184 151//184
f 154//185 156//185 155//185 153//185
f 156//186 158//186 157//186 155//186
f 158//187 160//187 159//187 157//187
f 160//188 146//188 145//188 159//188
f 145//189 147//189 161//189
f 148//190 146//190 162//190
f 147//191 149//191 161//191
f 150//192 148//192 162//192
f 149//193 151//193 161//193
f 152//194 150//194 162//194
f 151//195 153//195 161//195
f 154//196 152//196 162//196
f 153//197 155//197 161//197
f 156//198 154//198 162//198
f 155//199 157//199 161//199
f 158//200 156//200 162//200
f 157//201 159//201 161//201
f 160//202 158//202 162//202
f 159//203 145//203 161//203
f 146//204 160//204 162//204
f 164//205 166//205 165//205 163//205
f 166//206 168//206 167//206 165//206
f 168//207 170//207 169//207 167//207
f 170//208 172//208 171//208 169//208
f 172//209 174//209 173//209 171//209
f 174//210 176//210 175//210 173//210
f 176//211 178//211 177//211 175//211
f 178//212 164//212 163//212 177//212
f 163//213 165//213 179//213
f 166//214 164//214 180//214
f 165//215 167//215 179//215
f 168//216 166//216 180//216
f 167//217 169//217 179//217
f 170//218 168//218 180//218
f 169//219 171//219 179//219
f 172//220 170//220 180//220
f 171//221 173//221 179//221
f 174//222 172//222 180//222
f 173//223 175//223 179//223
f 176//224 174//224 180//224
f 175//225 177//225 179//225
f 178//226 176//226 180//226
f 177//227 163//227 179//227
f 164//228 178//228 180//228
f 181//229 184//229 183//229 182//229
f 185//230 186//230 187//230 188//230
f 181//231 185//231 188//231 184//231
f 182//232 183//232 187//232 186//232
f 184//233 188//233 187//233 183//233
f 181//234 182//234 186//234 185//234
f 189//235 192//235 191//235 190//235
f 193//236 194//236 195//236 196//236
f 189//237 193//237 196//237 192//237
f 190//238 191//238 195//238 194//238
f 192//239 196//239 195//239 191//239
f 189//240 190//240 194//240 193//240
f 198//241 200//241 199//241 197//241
f 200//242 202//242 201//242 199//242
f 202//243 204//243 203//243 201//243
f 204//244 206//244 205//244 203//244
f 206//245 208//245 207//245 205//245
f 208//246 210//246 209//246 207//246
f 210//247 212//247 211//247 209//247
f 212//248 198//248 197//248 211//248
f 197//249 199//249 213//249
f 200//250 198//250 214//250
f 199//251 201//251 213//251
f 202//252 200//252 214//252
f 201//253 203//253 213//253
f 204//254 202//254 214//254
f 203//255 205//255 213//255
f 206//256 204//256 214//256
f 205//257 207//257 213//257
f 208//258 206//258 214//258
f 207//259 209//259 213//259
f 210//260 208//260 214//260
f 209//261 211//261 213//261
f 212//262 210//262 214//262
f 211//263 197//263 213//263
f 198//264 212//264 214//264
f 216//265 218//265 217//265 215//265
f 218//266 220//266 219//266 217//266
f 220//267 222//267 221//267 219//267
f 222//268 224//268 223//268 221//268
f 224//269 226//269 225//269 223//269
f 226//270 228//270 227//270 225//270
f 228//271 230//271 229//271 227//271
f 230//272 216//272 215//272 229//272
f 215//273 217//273 231//273
f 218//274 216//274 232//274
f 217//275 219//275 231//275
f 220//276 218//276 232//276
f 219//277 221//277 231//277
f 222//278 220//278 232//278
f 221//279 223//279 231//279
f 224//280 222//280 232//280
f 223//281 225//281 231//281
f 226//282 224//282 232//282
f 225//283 227//283 231//283
f 228//284 226//284 232//284
f 227//285 229//285 231//285
f 230//286 228//286 232//286
f 229//287 215//287 231//287
f 216//288 230//288 232//288
