# conduit_nipple.obj  Y-up, meters, origin at ground/wall contact
mtllib conduit_nipple.mtl
v -0.1270 -0.0280 0.0500
v -0.1270 -0.0227 0.0665
v -0.1270 -0.0087 0.0766
v -0.1270 0.0087 0.0766
v -0.1270 0.0227 0.0665
v -0.1270 0.0280 0.0500
v -0.1270 0.0227 0.0335
v -0.1270 0.0087 0.0234
v -0.1270 -0.0087 0.0234
v -0.1270 -0.0227 0.0335
v 0.1270 -0.0280 0.0500
v 0.1270 -0.0227 0.0665
v 0.1270 -0.0087 0.0766
v 0.1270 0.0087 0.0766
v 0.1270 0.0227 0.0665
v 0.1270 0.0280 0.0500
v 0.1270 0.0227 0.0335
v 0.1270 0.0087 0.0234
v 0.1270 -0.0087 0.0234
v 0.1270 -0.0227 0.0335
v -0.1255 -0.0360 0.0500
v -0.1255 -0.0291 0.0712
v -0.1255 -0.0111 0.0842
v -0.1255 0.0111 0.0842
v -0.1255 0.0291 0.0712
v -0.1255 0.0360 0.0500
v -0.1255 0.0291 0.0288
v -0.1255 0.0111 0.0158
v -0.1255 -0.0111 0.0158
v -0.1255 -0.0291 0.0288
v -0.0905 -0.0360 0.0500
v -0.0905 -0.0291 0.0712
v -0.0905 -0.0111 0.0842
v -0.0905 0.0111 0.0842
v -0.0905 0.0291 0.0712
v -0.0905 0.0360 0.0500
v -0.0905 0.0291 0.0288
v -0.0905 0.0111 0.0158
v -0.0905 -0.0111 0.0158
v -0.0905 -0.0291 0.0288
v -0.1270 -0.0320 0.0500
v -0.1270 -0.0259 0.0688
v -0.1270 -0.0099 0.0804
v -0.1270 0.0099 0.0804
v -0.1270 0.0259 0.0688
v -0.1270 0.0320 0.0500
v -0.1270 0.0259 0.0312
v -0.1270 0.0099 0.0196
v -0.1270 -0.0099 0.0196
v -0.1270 -0.0259 0.0312
v -0.1070 -0.0320 0.0500
v -0.1070 -0.0259 0.0688
v -0.1070 -0.0099 0.0804
v -0.1070 0.0099 0.0804
v -0.1070 0.0259 0.0688
v -0.1070 0.0320 0.0500
v -0.1070 0.0259 0.0312
v -0.1070 0.0099 0.0196
v -0.1070 -0.0099 0.0196
v -0.1070 -0.0259 0.0312
v 0.0905 -0.0360 0.0500
v 0.0905 -0.0291 0.0712
v 0.0905 -0.0111 0.0842
v 0.0905 0.0111 0.0842
v 0.0905 0.0291 0.0712
v 0.0905 0.0360 0.0500
v 0.0905 0.0291 0.0288
v 0.0905 0.0111 0.0158
v 0.0905 -0.0111 0.0158
v 0.0905 -0.0291 0.0288
v 0.1255 -0.0360 0.0500
v 0.1255 -0.0291 0.0712
v 0.1255 -0.0111 0.0842
v 0.1255 0.0111 0.0842
v 0.1255 0.0291 0.0712
v 0.1255 0.0360 0.0500
v 0.1255 0.0291 0.0288
v 0.1255 0.0111 0.0158
v 0.1255 -0.0111 0.0158
v 0.1255 -0.0291 0.0288
v 0.1070 -0.0320 0.0500
v 0.1070 -0.0259 0.0688
v 0.1070 -0.0099 0.0804
v 0.1070 0.0099 0.0804
v 0.1070 0.0259 0.0688
v 0.1070 0.0320 0.0500
v 0.1070 0.0259 0.0312
v 0.1070 0.0099 0.0196
v 0.1070 -0.0099 0.0196
v 0.1070 -0.0259 0.0312
v 0.1270 -0.0320 0.0500
v 0.1270 -0.0259 0.0688
v 0.1270 -0.0099 0.0804
v 0.1270 0.0099 0.0804
v 0.1270 0.0259 0.0688
v 0.1270 0.0320 0.0500
v 0.1270 0.0259 0.0312
v 0.1270 0.0099 0.0196
v 0.1270 -0.0099 0.0196
v 0.1270 -0.0259 0.0312
usemtl galvanized
f 1 10 20
f 20 11 1
f 20 10 9
f 9 19 20
f 8 19 9
f 8 18 19
f 1 11 12
f 12 2 1
f 3 2 12
f 12 13 3
f 5 15 16
f 16 6 5
f 16 17 7
f 7 6 16
f 7 17 18
f 18 8 7
f 14 20 19
f 11 20 14
f 16 15 14
f 19 18 14
f 14 17 16
f 18 17 14
f 14 12 11
f 13 12 14
f 4 10 1
f 1 2 4
f 9 10 4
f 4 8 9
f 4 2 3
f 4 5 6
f 6 7 4
f 4 7 8
f 3 13 4
f 13 14 4
f 15 5 4
f 4 14 15
f 32 22 21
f 21 31 32
f 28 27 38
f 38 27 37
f 38 29 28
f 39 29 38
f 21 30 40
f 40 31 21
f 30 29 40
f 40 29 39
f 24 30 21
f 26 27 24
f 21 22 24
f 24 25 26
f 24 27 28
f 24 22 23
f 28 29 24
f 24 29 30
f 36 27 26
f 37 27 36
f 33 24 23
f 34 24 33
f 23 22 33
f 22 32 33
f 35 38 37
f 31 40 35
f 35 32 31
f 37 36 35
f 39 38 35
f 35 40 39
f 34 33 35
f 35 33 32
f 25 24 35
f 35 24 34
f 26 25 35
f 35 36 26
f 72 62 61
f 61 71 72
f 68 67 78
f 78 67 77
f 78 69 68
f 79 69 78
f 61 70 80
f 80 71 61
f 70 69 80
f 80 69 79
f 64 70 61
f 66 67 64
f 61 62 64
f 64 65 66
f 64 67 68
f 64 62 63
f 68 69 64
f 64 69 70
f 76 67 66
f 77 67 76
f 73 64 63
f 74 64 73
f 63 62 73
f 62 72 73
f 75 78 77
f 71 80 75
f 75 72 71
f 77 76 75
f 79 78 75
f 75 80 79
f 74 73 75
f 75 73 72
f 65 64 75
f 75 64 74
f 66 65 75
f 75 76 66
usemtl label_black
f 41 50 60
f 60 51 41
f 60 50 49
f 49 59 60
f 48 47 58
f 58 47 57
f 49 48 58
f 58 59 49
f 52 42 41
f 41 51 52
f 45 50 41
f 41 42 45
f 45 43 44
f 49 50 45
f 45 48 49
f 46 47 45
f 45 47 48
f 42 43 45
f 54 55 45
f 44 54 45
f 56 47 46
f 57 47 56
f 46 45 56
f 56 45 55
f 51 60 53
f 53 52 51
f 53 58 57
f 53 60 59
f 59 58 53
f 53 55 54
f 57 56 53
f 53 56 55
f 44 43 53
f 53 54 44
f 53 43 42
f 42 52 53
f 81 90 100
f 100 91 81
f 100 90 89
f 89 99 100
f 88 87 98
f 98 87 97
f 89 88 98
f 98 99 89
f 92 82 81
f 81 91 92
f 85 90 81
f 81 82 85
f 85 83 84
f 89 90 85
f 85 88 89
f 86 87 85
f 85 87 88
f 82 83 85
f 94 95 85
f 84 94 85
f 96 87 86
f 97 87 96
f 86 85 96
f 96 85 95
f 91 100 93
f 93 92 91
f 93 98 97
f 93 100 99
f 99 98 93
f 93 95 94
f 97 96 93
f 93 96 95
f 84 83 93
f 93 94 84
f 93 83 82
f 82 92 93
