# conduit_lb_riser.obj  Y-up, meters, origin at ground/wall contact
mtllib conduit_lb_riser.mtl
v 0.0220 1.5000 0.0500
v 0.0220 0.3000 0.0500
v 0.0207 1.5000 0.0575
v 0.0207 0.3000 0.0575
v 0.0169 1.5000 0.0641
v 0.0169 0.3000 0.0641
v 0.0110 1.5000 0.0691
v 0.0110 0.3000 0.0691
v 0.0038 1.5000 0.0717
v 0.0038 0.3000 0.0717
v -0.0038 1.5000 0.0717
v -0.0038 0.3000 0.0717
v -0.0110 1.5000 0.0691
v -0.0110 0.3000 0.0691
v -0.0169 1.5000 0.0641
v -0.0169 0.3000 0.0641
v -0.0207 1.5000 0.0575
v -0.0207 0.3000 0.0575
v -0.0220 1.5000 0.0500
v -0.0220 0.3000 0.0500
v -0.0207 1.5000 0.0425
v -0.0207 0.3000 0.0425
v -0.0169 1.5000 0.0359
v -0.0169 0.3000 0.0359
v -0.0110 1.5000 0.0309
v -0.0110 0.3000 0.0309
v -0.0038 1.5000 0.0283
v -0.0038 0.3000 0.0283
v 0.0038 1.5000 0.0283
v 0.0038 0.3000 0.0283
v 0.0110 1.5000 0.0309
v 0.0110 0.3000 0.0309
v 0.0169 1.5000 0.0359
v 0.0169 0.3000 0.0359
v 0.0207 1.5000 0.0425
v 0.0207 0.3000 0.0425
v 0.0000 1.5000 0.0500
v 0.0000 0.3000 0.0500
v 0.0300 0.3300 0.0500
v 0.0300 0.3000 0.0500
v 0.0270 0.3300 0.0630
v 0.0270 0.3000 0.0630
v 0.0187 0.3300 0.0735
v 0.0187 0.3000 0.0735
v 0.0067 0.3300 0.0792
v 0.0067 0.3000 0.0792
v -0.0067 0.3300 0.0792
v -0.0067 0.3000 0.0792
v -0.0187 0.3300 0.0735
v -0.0187 0.3000 0.0735
v -0.0270 0.3300 0.0630
v -0.0270 0.3000 0.0630
v -0.0300 0.3300 0.0500
v -0.0300 0.3000 0.0500
v -0.0270 0.3300 0.0370
v -0.0270 0.3000 0.0370
v -0.0187 0.3300 0.0265
v -0.0187 0.3000 0.0265
v -0.0067 0.3300 0.0208
v -0.0067 0.3000 0.0208
v 0.0067 0.3300 0.0208
v 0.0067 0.3000 0.0208
v 0.0187 0.3300 0.0265
v 0.0187 0.3000 0.0265
v 0.0270 0.3300 0.0370
v 0.0270 0.3000 0.0370
v 0.0000 0.3300 0.0500
v 0.0000 0.3000 0.0500
v -0.0425 0.0900 0.0095
v 0.0425 0.0900 0.0095
v 0.0425 0.3100 0.0095
v -0.0425 0.3100 0.0095
v -0.0425 0.0900 0.0845
v 0.0425 0.0900 0.0845
v 0.0425 0.3100 0.0845
v -0.0425 0.3100 0.0845
v 0.0425 0.3100 0.0845
v 0.0425 0.3100 0.0095
v 0.0393 0.3263 0.0845
v 0.0393 0.3263 0.0095
v 0.0301 0.3401 0.0845
v 0.0301 0.3401 0.0095
v 0.0163 0.3493 0.0845
v 0.0163 0.3493 0.0095
v 0.0000 0.3525 0.0845
v 0.0000 0.3525 0.0095
v -0.0163 0.3493 0.0845
v -0.0163 0.3493 0.0095
v -0.0301 0.3401 0.0845
v -0.0301 0.3401 0.0095
v -0.0393 0.3263 0.0845
v -0.0393 0.3263 0.0095
v -0.0425 0.3100 0.0845
v -0.0425 0.3100 0.0095
v -0.0393 0.2937 0.0845
v -0.0393 0.2937 0.0095
v -0.0301 0.2799 0.0845
v -0.0301 0.2799 0.0095
v -0.0163 0.2707 0.0845
v -0.0163 0.2707 0.0095
v -0.0000 0.2675 0.0845
v -0.0000 0.2675 0.0095
v 0.0163 0.2707 0.0845
v 0.0163 0.2707 0.0095
v 0.0301 0.2799 0.0845
v 0.0301 0.2799 0.0095
v 0.0393 0.2937 0.0845
v 0.0393 0.2937 0.0095
v 0.0000 0.3100 0.0845
v 0.0000 0.3100 0.0095
v 0.0425 0.0900 0.0845
v 0.0425 0.0900 0.0095
v 0.0393 0.1063 0.0845
v 0.0393 0.1063 0.0095
v 0.0301 0.1201 0.0845
v 0.0301 0.1201 0.0095
v 0.0163 0.1293 0.0845
v 0.0163 0.1293 0.0095
v 0.0000 0.1325 0.0845
v 0.0000 0.1325 0.0095
v -0.0163 0.1293 0.0845
v -0.0163 0.1293 0.0095
v -0.0301 0.1201 0.0845
v -0.0301 0.1201 0.0095
v -0.0393 0.1063 0.0845
v -0.0393 0.1063 0.0095
v -0.0425 0.0900 0.0845
v -0.0425 0.0900 0.0095
v -0.0393 0.0737 0.0845
v -0.0393 0.0737 0.0095
v -0.0301 0.0599 0.0845
v -0.0301 0.0599 0.0095
v -0.0163 0.0507 0.0845
v -0.0163 0.0507 0.0095
v -0.0000 0.0475 0.0845
v -0.0000 0.0475 0.0095
v 0.0163 0.0507 0.0845
v 0.0163 0.0507 0.0095
v 0.0301 0.0599 0.0845
v 0.0301 0.0599 0.0095
v 0.0393 0.0737 0.0845
v 0.0393 0.0737 0.0095
v 0.0000 0.0900 0.0845
v 0.0000 0.0900 0.0095
v -0.0350 0.1050 0.0845
v 0.0350 0.1050 0.0845
v 0.0350 0.2950 0.0845
v -0.0350 0.2950 0.0845
v -0.0350 0.1050 0.0905
v 0.0350 0.1050 0.0905
v 0.0350 0.2950 0.0905
v -0.0350 0.2950 0.0905
v 0.0350 0.2950 0.0905
v 0.0350 0.2950 0.0845
v 0.0323 0.3084 0.0905
v 0.0323 0.3084 0.0845
v 0.0247 0.3197 0.0905
v 0.0247 0.3197 0.0845
v 0.0134 0.3273 0.0905
v 0.0134 0.3273 0.0845
v 0.0000 0.3300 0.0905
v 0.0000 0.3300 0.0845
v -0.0134 0.3273 0.0905
v -0.0134 0.3273 0.0845
v -0.0247 0.3197 0.0905
v -0.0247 0.3197 0.0845
v -0.0323 0.3084 0.0905
v -0.0323 0.3084 0.0845
v -0.0350 0.2950 0.0905
v -0.0350 0.2950 0.0845
v -0.0323 0.2816 0.0905
v -0.0323 0.2816 0.0845
v -0.0247 0.2703 0.0905
v -0.0247 0.2703 0.0845
v -0.0134 0.2627 0.0905
v -0.0134 0.2627 0.0845
v -0.0000 0.2600 0.0905
v -0.0000 0.2600 0.0845
v 0.0134 0.2627 0.0905
v 0.0134 0.2627 0.0845
v 0.0247 0.2703 0.0905
v 0.0247 0.2703 0.0845
v 0.0323 0.2816 0.0905
v 0.0323 0.2816 0.0845
v 0.0000 0.2950 0.0905
v 0.0000 0.2950 0.0845
v 0.0350 0.1050 0.0905
v 0.0350 0.1050 0.0845
v 0.0323 0.1184 0.0905
v 0.0323 0.1184 0.0845
v 0.0247 0.1297 0.0905
v 0.0247 0.1297 0.0845
v 0.0134 0.1373 0.0905
v 0.0134 0.1373 0.0845
v 0.0000 0.1400 0.0905
v 0.0000 0.1400 0.0845
v -0.0134 0.1373 0.0905
v -0.0134 0.1373 0.0845
v -0.0247 0.1297 0.0905
v -0.0247 0.1297 0.0845
v -0.0323 0.1184 0.0905
v -0.0323 0.1184 0.0845
v -0.0350 0.1050 0.0905
v -0.0350 0.1050 0.0845
v -0.0323 0.0916 0.0905
v -0.0323 0.0916 0.0845
v -0.0247 0.0803 0.0905
v -0.0247 0.0803 0.0845
v -0.0134 0.0727 0.0905
v -0.0134 0.0727 0.0845
v -0.0000 0.0700 0.0905
v -0.0000 0.0700 0.0845
v 0.0134 0.0727 0.0905
v 0.0134 0.0727 0.0845
v 0.0247 0.0803 0.0905
v 0.0247 0.0803 0.0845
v 0.0323 0.0916 0.0905
v 0.0323 0.0916 0.0845
v 0.0000 0.1050 0.0905
v 0.0000 0.1050 0.0845
v 0.0060 0.3050 0.0925
v 0.0060 0.3050 0.0885
v 0.0042 0.3092 0.0925
v 0.0042 0.3092 0.0885
v 0.0000 0.3110 0.0925
v 0.0000 0.3110 0.0885
v -0.0042 0.3092 0.0925
v -0.0042 0.3092 0.0885
v -0.0060 0.3050 0.0925
v -0.0060 0.3050 0.0885
v -0.0042 0.3008 0.0925
v -0.0042 0.3008 0.0885
v -0.0000 0.2990 0.0925
v -0.0000 0.2990 0.0885
v 0.0042 0.3008 0.0925
v 0.0042 0.3008 0.0885
v 0.0000 0.3050 0.0925
v 0.0000 0.3050 0.0885
v 0.0060 0.0950 0.0925
v 0.0060 0.0950 0.0885
v 0.0042 0.0992 0.0925
v 0.0042 0.0992 0.0885
v 0.0000 0.1010 0.0925
v 0.0000 0.1010 0.0885
v -0.0042 0.0992 0.0925
v -0.0042 0.0992 0.0885
v -0.0060 0.0950 0.0925
v -0.0060 0.0950 0.0885
v -0.0042 0.0908 0.0925
v -0.0042 0.0908 0.0885
v -0.0000 0.0890 0.0925
v -0.0000 0.0890 0.0885
v 0.0042 0.0908 0.0925
v 0.0042 0.0908 0.0885
v 0.0000 0.0950 0.0925
v 0.0000 0.0950 0.0885
v 0.0220 0.2000 0.0300
v 0.0220 0.2000 -0.0300
v 0.0198 0.2095 0.0300
v 0.0198 0.2095 -0.0300
v 0.0137 0.2172 0.0300
v 0.0137 0.2172 -0.0300
v 0.0049 0.2214 0.0300
v 0.0049 0.2214 -0.0300
v -0.0049 0.2214 0.0300
v -0.0049 0.2214 -0.0300
v -0.0137 0.2172 0.0300
v -0.0137 0.2172 -0.0300
v -0.0198 0.2095 0.0300
v -0.0198 0.2095 -0.0300
v -0.0220 0.2000 0.0300
v -0.0220 0.2000 -0.0300
v -0.0198 0.1905 0.0300
v -0.0198 0.1905 -0.0300
v -0.0137 0.1828 0.0300
v -0.0137 0.1828 -0.0300
v -0.0049 0.1786 0.0300
v -0.0049 0.1786 -0.0300
v 0.0049 0.1786 0.0300
v 0.0049 0.1786 -0.0300
v 0.0137 0.1828 0.0300
v 0.0137 0.1828 -0.0300
v 0.0198 0.1905 0.0300
v 0.0198 0.1905 -0.0300
v 0.0000 0.2000 0.0300
v 0.0000 0.2000 -0.0300
v -0.0500 0.8880 0.0200
v 0.0500 0.8880 0.0200
v 0.0500 0.9120 0.0200
v -0.0500 0.9120 0.0200
v -0.0500 0.8880 0.0360
v 0.0500 0.8880 0.0360
v 0.0500 0.9120 0.0360
v -0.0500 0.9120 0.0360
v -0.0250 0.8880 0.0210
v 0.0250 0.8880 0.0210
v 0.0250 0.9120 0.0210
v -0.0250 0.9120 0.0210
v -0.0250 0.8880 0.0790
v 0.0250 0.8880 0.0790
v 0.0250 0.9120 0.0790
v -0.0250 0.9120 0.0790
v -0.0360 0.9000 0.0390
v -0.0360 0.9000 0.0350
v -0.0378 0.9042 0.0390
v -0.0378 0.9042 0.0350
v -0.0420 0.9060 0.0390
v -0.0420 0.9060 0.0350
v -0.0462 0.9042 0.0390
v -0.0462 0.9042 0.0350
v -0.0480 0.9000 0.0390
v -0.0480 0.9000 0.0350
v -0.0462 0.8958 0.0390
v -0.0462 0.8958 0.0350
v -0.0420 0.8940 0.0390
v -0.0420 0.8940 0.0350
v -0.0378 0.8958 0.0390
v -0.0378 0.8958 0.0350
v -0.0420 0.9000 0.0390
v -0.0420 0.9000 0.0350
v 0.0480 0.9000 0.0390
v 0.0480 0.9000 0.0350
v 0.0462 0.9042 0.0390
v 0.0462 0.9042 0.0350
v 0.0420 0.9060 0.0390
v 0.0420 0.9060 0.0350
v 0.0378 0.9042 0.0390
v 0.0378 0.9042 0.0350
v 0.0360 0.9000 0.0390
v 0.0360 0.9000 0.0350
v 0.0378 0.8958 0.0390
v 0.0378 0.8958 0.0350
v 0.0420 0.8940 0.0390
v 0.0420 0.8940 0.0350
v 0.0462 0.8958 0.0390
v 0.0462 0.8958 0.0350
v 0.0420 0.9000 0.0390
v 0.0420 0.9000 0.0350
v -0.0500 1.3880 0.0200
v 0.0500 1.3880 0.0200
v 0.0500 1.4120 0.0200
v -0.0500 1.4120 0.0200
v -0.0500 1.3880 0.0360
v 0.0500 1.3880 0.0360
v 0.0500 1.4120 0.0360
v -0.0500 1.4120 0.0360
v -0.0250 1.3880 0.0210
v 0.0250 1.3880 0.0210
v 0.0250 1.4120 0.0210
v -0.0250 1.4120 0.0210
v -0.0250 1.3880 0.0790
v 0.0250 1.3880 0.0790
v 0.0250 1.4120 0.0790
v -0.0250 1.4120 0.0790
v -0.0360 1.4000 0.0390
v -0.0360 1.4000 0.0350
v -0.0378 1.4042 0.0390
v -0.0378 1.4042 0.0350
v -0.0420 1.4060 0.0390
v -0.0420 1.4060 0.0350
v -0.0462 1.4042 0.0390
v -0.0462 1.4042 0.0350
v -0.0480 1.4000 0.0390
v -0.0480 1.4000 0.0350
v -0.0462 1.3958 0.0390
v -0.0462 1.3958 0.0350
v -0.0420 1.3940 0.0390
v -0.0420 1.3940 0.0350
v -0.0378 1.3958 0.0390
v -0.0378 1.3958 0.0350
v -0.0420 1.4000 0.0390
v -0.0420 1.4000 0.0350
v 0.0480 1.4000 0.0390
v 0.0480 1.4000 0.0350
v 0.0462 1.4042 0.0390
v 0.0462 1.4042 0.0350
v 0.0420 1.4060 0.0390
v 0.0420 1.4060 0.0350
v 0.0378 1.4042 0.0390
v 0.0378 1.4042 0.0350
v 0.0360 1.4000 0.0390
v 0.0360 1.4000 0.0350
v 0.0378 1.3958 0.0390
v 0.0378 1.3958 0.0350
v 0.0420 1.3940 0.0390
v 0.0420 1.3940 0.0350
v 0.0462 1.3958 0.0390
v 0.0462 1.3958 0.0350
v 0.0420 1.4000 0.0390
v 0.0420 1.4000 0.0350
vn 0.9848 0.0000 0.1736
vn 0.8660 0.0000 0.5000
vn 0.6428 0.0000 0.7660
vn 0.3420 0.0000 0.9397
vn 0.0000 0.0000 1.0000
vn -0.3420 0.0000 0.9397
vn -0.6428 0.0000 0.7660
vn -0.8660 0.0000 0.5000
vn -0.9848 0.0000 0.1736
vn -0.9848 0.0000 -0.1736
vn -0.8660 0.0000 -0.5000
vn -0.6428 0.0000 -0.7660
vn -0.3420 0.0000 -0.9397
vn -0.0000 0.0000 -1.0000
vn 0.3420 0.0000 -0.9397
vn 0.6428 0.0000 -0.7660
vn 0.8660 0.0000 -0.5000
vn 0.9848 0.0000 -0.1736
vn 0.0000 1.0000 0.0000
vn 0.0000 -1.0000 0.0000
vn 0.0000 1.0000 0.0000
vn 0.0000 -1.0000 0.0000
vn 0.0000 1.0000 0.0000
vn 0.0000 -1.0000 -0.0000
vn 0.0000 1.0000 0.0000
vn 0.0000 -1.0000 0.0000
vn 0.0000 1.0000 0.0000
vn 0.0000 -1.0000 -0.0000
vn 0.0000 1.0000 -0.0000
vn 0.0000 -1.0000 0.0000
vn 0.0000 1.0000 0.0000
vn 0.0000 -1.0000 -0.0000
vn 0.0000 1.0000 0.0000
vn 0.0000 -1.0000 0.0000
vn 0.0000 1.0000 0.0000
vn 0.0000 -1.0000 0.0000
vn 0.0000 1.0000 0.0000
vn 0.0000 -1.0000 0.0000
vn 0.0000 1.0000 0.0000
vn 0.0000 -1.0000 0.0000
vn 0.0000 1.0000 0.0000
vn 0.0000 -1.0000 0.0000
vn 0.0000 1.0000 0.0000
vn 0.0000 -1.0000 -0.0000
vn 0.0000 1.0000 0.0000
vn 0.0000 -1.0000 0.0000
vn 0.0000 1.0000 -0.0000
vn 0.0000 -1.0000 0.0000
vn 0.0000 1.0000 0.0000
vn 0.0000 -1.0000 0.0000
vn 0.0000 1.0000 0.0000
vn 0.0000 -1.0000 0.0000
vn 0.0000 1.0000 -0.0000
vn 0.0000 -1.0000 0.0000
vn 0.9749 0.0000 0.2225
vn 0.7818 0.0000 0.6235
vn 0.4339 0.0000 0.9010
vn 0.0000 0.0000 1.0000
vn -0.4339 0.0000 0.9010
vn -0.7818 0.0000 0.6235
vn -0.9749 0.0000 0.2225
vn -0.9749 0.0000 -0.2225
vn -0.7818 0.0000 -0.6235
vn -0.4339 0.0000 -0.9010
vn -0.0000 0.0000 -1.0000
vn 0.4339 0.0000 -0.9010
vn 0.7818 0.0000 -0.6235
vn 0.9749 0.0000 -0.2225
vn 0.0000 1.0000 0.0000
vn 0.0000 -1.0000 0.0000
vn 0.0000 1.0000 0.0000
vn 0.0000 -1.0000 0.0000
vn 0.0000 1.0000 0.0000
vn 0.0000 -1.0000 -0.0000
vn 0.0000 1.0000 0.0000
vn 0.0000 -1.0000 0.0000
vn 0.0000 1.0000 0.0000
vn 0.0000 -1.0000 -0.0000
vn 0.0000 1.0000 0.0000
vn 0.0000 -1.0000 0.0000
vn 0.0000 1.0000 0.0000
vn 0.0000 -1.0000 0.0000
vn 0.0000 1.0000 -0.0000
vn 0.0000 -1.0000 0.0000
vn 0.0000 1.0000 0.0000
vn 0.0000 -1.0000 0.0000
vn 0.0000 1.0000 0.0000
vn 0.0000 -1.0000 0.0000
vn 0.0000 1.0000 0.0000
vn 0.0000 -1.0000 -0.0000
vn 0.0000 1.0000 0.0000
vn 0.0000 -1.0000 -0.0000
vn 0.0000 1.0000 0.0000
vn 0.0000 -1.0000 0.0000
vn 0.0000 1.0000 0.0000
vn 0.0000 -1.0000 0.0000
vn 0.0000 0.0000 -1.0000
vn 0.0000 0.0000 1.0000
vn -1.0000 0.0000 0.0000
vn 1.0000 0.0000 0.0000
vn 0.0000 1.0000 0.0000
vn 0.0000 -1.0000 0.0000
vn 0.9808 0.1951 0.0000
vn 0.8315 0.5556 0.0000
vn 0.5556 0.8315 0.0000
vn 0.1951 0.9808 0.0000
vn -0.1951 0.9808 0.0000
vn -0.5556 0.8315 0.0000
vn -0.8315 0.5556 0.0000
vn -0.9808 0.1951 0.0000
vn -0.9808 -0.1951 0.0000
vn -0.8315 -0.5556 0.0000
vn -0.5556 -0.8315 0.0000
vn -0.1951 -0.9808 0.0000
vn 0.1951 -0.9808 0.0000
vn 0.5556 -0.8315 0.0000
vn 0.8315 -0.5556 0.0000
vn 0.9808 -0.1951 0.0000
vn 0.0000 0.0000 1.0000
vn 0.0000 0.0000 -1.0000
vn -0.0000 0.0000 1.0000
vn 0.0000 0.0000 -1.0000
vn 0.0000 0.0000 1.0000
vn 0.0000 0.0000 -1.0000
vn -0.0000 0.0000 1.0000
vn 0.0000 0.0000 -1.0000
vn 0.0000 0.0000 1.0000
vn 0.0000 0.0000 -1.0000
vn -0.0000 0.0000 1.0000
vn 0.0000 0.0000 -1.0000
vn 0.0000 0.0000 1.0000
vn 0.0000 0.0000 -1.0000
vn 0.0000 0.0000 1.0000
vn 0.0000 0.0000 -1.0000
vn 0.0000 0.0000 1.0000
vn 0.0000 0.0000 -1.0000
vn 0.0000 0.0000 1.0000
vn 0.0000 0.0000 -1.0000
vn -0.0000 0.0000 1.0000
vn 0.0000 0.0000 -1.0000
vn 0.0000 0.0000 1.0000
vn 0.0000 0.0000 -1.0000
vn -0.0000 0.0000 1.0000
vn 0.0000 0.0000 -1.0000
vn 0.0000 0.0000 1.0000
vn 0.0000 0.0000 -1.0000
vn -0.0000 0.0000 1.0000
vn 0.0000 0.0000 -1.0000
vn 0.0000 0.0000 1.0000
vn 0.0000 0.0000 -1.0000
vn 0.9808 0.1951 0.0000
vn 0.8315 0.5556 0.0000
vn 0.5556 0.8315 0.0000
vn 0.1951 0.9808 0.0000
vn -0.1951 0.9808 0.0000
vn -0.5556 0.8315 0.0000
vn -0.8315 0.5556 0.0000
vn -0.9808 0.1951 0.0000
vn -0.9808 -0.1951 0.0000
vn -0.8315 -0.5556 0.0000
vn -0.5556 -0.8315 0.0000
vn -0.1951 -0.9808 0.0000
vn 0.1951 -0.9808 0.0000
vn 0.5556 -0.8315 0.0000
vn 0.8315 -0.5556 0.0000
vn 0.9808 -0.1951 0.0000
vn 0.0000 0.0000 1.0000
vn 0.0000 0.0000 -1.0000
vn 0.0000 0.0000 1.0000
vn 0.0000 0.0000 -1.0000
vn 0.0000 0.0000 1.0000
vn -0.0000 0.0000 -1.0000
vn 0.0000 0.0000 1.0000
vn 0.0000 0.0000 -1.0000
vn 0.0000 0.0000 1.0000
vn -0.0000 0.0000 -1.0000
vn 0.0000 0.0000 1.0000
vn 0.0000 0.0000 -1.0000
vn -0.0000 0.0000 1.0000
vn -0.0000 0.0000 -1.0000
vn 0.0000 0.0000 1.0000
vn 0.0000 0.0000 -1.0000
vn 0.0000 0.0000 1.0000
vn 0.0000 0.0000 -1.0000
vn -0.0000 0.0000 1.0000
vn 0.0000 0.0000 -1.0000
vn 0.0000 0.0000 1.0000
vn 0.0000 0.0000 -1.0000
vn 0.0000 0.0000 1.0000
vn 0.0000 0.0000 -1.0000
vn -0.0000 0.0000 1.0000
vn 0.0000 0.0000 -1.0000
vn 0.0000 0.0000 1.0000
vn -0.0000 0.0000 -1.0000
vn 0.0000 0.0000 1.0000
vn 0.0000 0.0000 -1.0000
vn 0.0000 0.0000 1.0000
vn 0.0000 0.0000 -1.0000
vn 0.0000 0.0000 -1.0000
vn 0.0000 0.0000 1.0000
vn -1.0000 0.0000 0.0000
vn 1.0000 0.0000 0.0000
vn 0.0000 1.0000 0.0000
vn 0.0000 -1.0000 0.0000
vn 0.9808 0.1951 0.0000
vn 0.8315 0.5556 0.0000
vn 0.5556 0.8315 0.0000
vn 0.1951 0.9808 0.0000
vn -0.1951 0.9808 0.0000
vn -0.5556 0.8315 0.0000
vn -0.8315 0.5556 0.0000
vn -0.9808 0.1951 0.0000
vn -0.9808 -0.1951 0.0000
vn -0.8315 -0.5556 0.0000
vn -0.5556 -0.8315 0.0000
vn -0.1951 -0.9808 0.0000
vn 0.1951 -0.9808 0.0000
vn 0.5556 -0.8315 0.0000
vn 0.8315 -0.5556 0.0000
vn 0.9808 -0.1951 0.0000
vn 0.0000 0.0000 1.0000
vn 0.0000 0.0000 -1.0000
vn 0.0000 0.0000 1.0000
vn 0.0000 0.0000 -1.0000
vn 0.0000 0.0000 1.0000
vn 0.0000 0.0000 -1.0000
vn 0.0000 0.0000 1.0000
vn 0.0000 0.0000 -1.0000
vn 0.0000 0.0000 1.0000
vn -0.0000 0.0000 -1.0000
vn -0.0000 0.0000 1.0000
vn 0.0000 0.0000 -1.0000
vn 0.0000 0.0000 1.0000
vn 0.0000 0.0000 -1.0000
vn 0.0000 0.0000 1.0000
vn 0.0000 0.0000 -1.0000
vn 0.0000 0.0000 1.0000
vn 0.0000 0.0000 -1.0000
vn 0.0000 0.0000 1.0000
vn 0.0000 0.0000 -1.0000
vn -0.0000 0.0000 1.0000
vn 0.0000 0.0000 -1.0000
vn 0.0000 0.0000 1.0000
vn -0.0000 0.0000 -1.0000
vn 0.0000 0.0000 1.0000
vn 0.0000 0.0000 -1.0000
vn 0.0000 0.0000 1.0000
vn 0.0000 0.0000 -1.0000
vn -0.0000 0.0000 1.0000
vn -0.0000 0.0000 -1.0000
vn 0.0000 0.0000 1.0000
vn 0.0000 0.0000 -1.0000
vn 0.9808 0.1951 0.0000
vn 0.8315 0.5556 0.0000
vn 0.5556 0.8315 0.0000
vn 0.1951 0.9808 0.0000
vn -0.1951 0.9808 0.0000
vn -0.5556 0.8315 0.0000
vn -0.8315 0.5556 0.0000
vn -0.9808 0.1951 0.0000
vn -0.9808 -0.1951 0.0000
vn -0.8315 -0.5556 0.0000
vn -0.5556 -0.8315 0.0000
vn -0.1951 -0.9808 0.0000
vn 0.1951 -0.9808 0.0000
vn 0.5556 -0.8315 0.0000
vn 0.8315 -0.5556 0.0000
vn 0.9808 -0.1951 0.0000
vn 0.0000 0.0000 1.0000
vn 0.0000 0.0000 -1.0000
vn 0.0000 0.0000 1.0000
vn 0.0000 0.0000 -1.0000
vn 0.0000 0.0000 1.0000
vn 0.0000 0.0000 -1.0000
vn 0.0000 0.0000 1.0000
vn -0.0000 0.0000 -1.0000
vn 0.0000 0.0000 1.0000
vn 0.0000 0.0000 -1.0000
vn -0.0000 0.0000 1.0000
vn 0.0000 0.0000 -1.0000
vn 0.0000 0.0000 1.0000
vn 0.0000 0.0000 -1.0000
vn 0.0000 0.0000 1.0000
vn 0.0000 0.0000 -1.0000
vn 0.0000 0.0000 1.0000
vn 0.0000 0.0000 -1.0000
vn 0.0000 0.0000 1.0000
vn 0.0000 0.0000 -1.0000
vn -0.0000 0.0000 1.0000
vn -0.0000 0.0000 -1.0000
vn 0.0000 0.0000 1.0000
vn 0.0000 0.0000 -1.0000
vn 0.0000 0.0000 1.0000
vn -0.0000 0.0000 -1.0000
vn 0.0000 0.0000 1.0000
vn 0.0000 0.0000 -1.0000
vn 0.0000 0.0000 1.0000
vn 0.0000 0.0000 -1.0000
vn 0.0000 0.0000 1.0000
vn 0.0000 0.0000 -1.0000
vn 0.9239 0.3827 0.0000
vn 0.3827 0.9239 0.0000
vn -0.3827 0.9239 0.0000
vn -0.9239 0.3827 0.0000
vn -0.9239 -0.3827 0.0000
vn -0.3827 -0.9239 0.0000
vn 0.3827 -0.9239 0.0000
vn 0.9239 -0.3827 0.0000
vn 0.0000 0.0000 1.0000
vn 0.0000 0.0000 -1.0000
vn 0.0000 0.0000 1.0000
vn 0.0000 0.0000 -1.0000
vn 0.0000 0.0000 1.0000
vn 0.0000 0.0000 -1.0000
vn 0.0000 0.0000 1.0000
vn 0.0000 0.0000 -1.0000
vn 0.0000 0.0000 1.0000
vn 0.0000 0.0000 -1.0000
vn 0.0000 0.0000 1.0000
vn 0.0000 0.0000 -1.0000
vn 0.0000 0.0000 1.0000
vn 0.0000 0.0000 -1.0000
vn 0.0000 0.0000 1.0000
vn 0.0000 0.0000 -1.0000
vn 0.9239 0.3827 0.0000
vn 0.3827 0.9239 0.0000
vn -0.3827 0.9239 0.0000
vn -0.9239 0.3827 0.0000
vn -0.9239 -0.3827 0.0000
vn -0.3827 -0.9239 0.0000
vn 0.3827 -0.9239 0.0000
vn 0.9239 -0.3827 0.0000
vn 0.0000 0.0000 1.0000
vn 0.0000 0.0000 -1.0000
vn 0.0000 0.0000 1.0000
vn 0.0000 0.0000 -1.0000
vn 0.0000 0.0000 1.0000
vn 0.0000 0.0000 -1.0000
vn 0.0000 0.0000 1.0000
vn 0.0000 0.0000 -1.0000
vn 0.0000 0.0000 1.0000
vn 0.0000 0.0000 -1.0000
vn 0.0000 0.0000 1.0000
vn 0.0000 0.0000 -1.0000
vn 0.0000 0.0000 1.0000
vn 0.0000 0.0000 -1.0000
vn 0.0000 0.0000 1.0000
vn 0.0000 0.0000 -1.0000
vn 0.9749 0.2225 0.0000
vn 0.7818 0.6235 0.0000
vn 0.4339 0.9010 0.0000
vn 0.0000 1.0000 0.0000
vn -0.4339 0.9010 0.0000
vn -0.7818 0.6235 0.0000
vn -0.9749 0.2225 0.0000
vn -0.9749 -0.2225 0.0000
vn -0.7818 -0.6235 0.0000
vn -0.4339 -0.9010 0.0000
vn 0.0000 -1.0000 0.0000
vn 0.4339 -0.9010 0.0000
vn 0.7818 -0.6235 0.0000
vn 0.9749 -0.2225 0.0000
vn 0.0000 0.0000 1.0000
vn 0.0000 0.0000 -1.0000
vn 0.0000 0.0000 1.0000
vn 0.0000 0.0000 -1.0000
vn -0.0000 0.0000 1.0000
vn 0.0000 0.0000 -1.0000
vn 0.0000 0.0000 1.0000
vn 0.0000 0.0000 -1.0000
vn 0.0000 0.0000 1.0000
vn 0.0000 0.0000 -1.0000
vn -0.0000 0.0000 1.0000
vn -0.0000 0.0000 -1.0000
vn 0.0000 0.0000 1.0000
vn 0.0000 0.0000 -1.0000
vn 0.0000 0.0000 1.0000
vn 0.0000 0.0000 -1.0000
vn -0.0000 0.0000 1.0000
vn -0.0000 0.0000 -1.0000
vn 0.0000 0.0000 1.0000
vn 0.0000 0.0000 -1.0000
vn 0.0000 0.0000 1.0000
vn 0.0000 0.0000 -1.0000
vn 0.0000 0.0000 1.0000
vn -0.0000 0.0000 -1.0000
vn 0.0000 0.0000 1.0000
vn 0.0000 0.0000 -1.0000
vn 0.0000 0.0000 1.0000
vn 0.0000 0.0000 -1.0000
vn 0.0000 0.0000 -1.0000
vn 0.0000 0.0000 1.0000
vn -1.0000 0.0000 0.0000
vn 1.0000 0.0000 0.0000
vn 0.0000 1.0000 0.0000
vn 0.0000 -1.0000 0.0000
vn 0.0000 0.0000 -1.0000
vn 0.0000 0.0000 1.0000
vn -1.0000 0.0000 0.0000
vn 1.0000 0.0000 0.0000
vn 0.0000 1.0000 0.0000
vn 0.0000 -1.0000 0.0000
vn 0.9239 0.3827 0.0000
vn 0.3827 0.9239 0.0000
vn -0.3827 0.9239 0.0000
vn -0.9239 0.3827 0.0000
vn -0.9239 -0.3827 0.0000
vn -0.3827 -0.9239 0.0000
vn 0.3827 -0.9239 0.0000
vn 0.9239 -0.3827 0.0000
vn 0.0000 0.0000 1.0000
vn 0.0000 0.0000 -1.0000
vn 0.0000 0.0000 1.0000
vn 0.0000 0.0000 -1.0000
vn 0.0000 0.0000 1.0000
vn 0.0000 0.0000 -1.0000
vn 0.0000 0.0000 1.0000
vn 0.0000 0.0000 -1.0000
vn 0.0000 0.0000 1.0000
vn 0.0000 0.0000 -1.0000
vn 0.0000 0.0000 1.0000
vn 0.0000 0.0000 -1.0000
vn 0.0000 0.0000 1.0000
vn 0.0000 0.0000 -1.0000
vn 0.0000 0.0000 1.0000
vn 0.0000 0.0000 -1.0000
vn 0.9239 0.3827 0.0000
vn 0.3827 0.9239 0.0000
vn -0.3827 0.9239 0.0000
vn -0.9239 0.3827 0.0000
vn -0.9239 -0.3827 0.0000
vn -0.3827 -0.9239 0.0000
vn 0.3827 -0.9239 0.0000
vn 0.9239 -0.3827 0.0000
vn 0.0000 0.0000 1.0000
vn 0.0000 0.0000 -1.0000
vn 0.0000 0.0000 1.0000
vn 0.0000 0.0000 -1.0000
vn 0.0000 0.0000 1.0000
vn 0.0000 0.0000 -1.0000
vn 0.0000 0.0000 1.0000
vn 0.0000 0.0000 -1.0000
vn 0.0000 0.0000 1.0000
vn 0.0000 0.0000 -1.0000
vn 0.0000 0.0000 1.0000
vn 0.0000 0.0000 -1.0000
vn 0.0000 0.0000 1.0000
vn 0.0000 0.0000 -1.0000
vn 0.0000 0.0000 1.0000
vn 0.0000 0.0000 -1.0000
vn 0.0000 0.0000 -1.0000
vn 0.0000 0.0000 1.0000
vn -1.0000 0.0000 0.0000
vn 1.0000 0.0000 0.0000
vn 0.0000 1.0000 0.0000
vn 0.0000 -1.0000 0.0000
vn 0.0000 0.0000 -1.0000
vn 0.0000 0.0000 1.0000
vn -1.0000 0.0000 0.0000
vn 1.0000 0.0000 0.0000
vn 0.0000 1.0000 0.0000
vn 0.0000 -1.0000 0.0000
vn 0.9239 0.3827 0.0000
vn 0.3827 0.9239 0.0000
vn -0.3827 0.9239 0.0000
vn -0.9239 0.3827 0.0000
vn -0.9239 -0.3827 0.0000
vn -0.3827 -0.9239 0.0000
vn 0.3827 -0.9239 0.0000
vn 0.9239 -0.3827 0.0000
vn 0.0000 0.0000 1.0000
vn 0.0000 0.0000 -1.0000
vn 0.0000 0.0000 1.0000
vn 0.0000 0.0000 -1.0000
vn 0.0000 0.0000 1.0000
vn 0.0000 0.0000 -1.0000
vn 0.0000 0.0000 1.0000
vn 0.0000 0.0000 -1.0000
vn 0.0000 0.0000 1.0000
vn 0.0000 0.0000 -1.0000
vn 0.0000 0.0000 1.0000
vn 0.0000 0.0000 -1.0000
vn 0.0000 0.0000 1.0000
vn 0.0000 0.0000 -1.0000
vn 0.0000 0.0000 1.0000
vn 0.0000 0.0000 -1.0000
vn 0.9239 0.3827 0.0000
vn 0.3827 0.9239 0.0000
vn -0.3827 0.9239 0.0000
vn -0.9239 0.3827 0.0000
vn -0.9239 -0.3827 0.0000
vn -0.3827 -0.9239 0.0000
vn 0.3827 -0.9239 0.0000
vn 0.9239 -0.3827 0.0000
vn 0.0000 0.0000 1.0000
vn 0.0000 0.0000 -1.0000
vn 0.0000 0.0000 1.0000
vn 0.0000 0.0000 -1.0000
vn 0.0000 0.0000 1.0000
vn 0.0000 0.0000 -1.0000
vn 0.0000 0.0000 1.0000
vn 0.0000 0.0000 -1.0000
vn 0.0000 0.0000 1.0000
vn 0.0000 0.0000 -1.0000
vn 0.0000 0.0000 1.0000
vn 0.0000 0.0000 -1.0000
vn 0.0000 0.0000 1.0000
vn 0.0000 0.0000 -1.0000
vn 0.0000 0.0000 1.0000
vn 0.0000 0.0000 -1.0000
usemtl conduit_paint
f 1//1 3//1 4//1 2//1
f 3//2 5//2 6//2 4//2
f 5//3 7//3 8//3 6//3
f 7//4 9//4 10//4 8//4
f 9//5 11//5 12//5 10//5
f 11//6 13//6 14//6 12//6
f 13//7 15//7 16//7 14//7
f 15//8 17//8 18//8 16//8
f 17//9 19//9 20//9 18//9
f 19//10 21//10 22//10 20//10
f 21//11 23//11 24//11 22//11
f 23//12 25//12 26//12 24//12
f 25//13 27//13 28//13 26//13
f 27//14 29//14 30//14 28//14
f 29//15 31//15 32//15 30//15
f 31//16 33//16 34//16 32//16
f 33//17 35//17 36//17 34//17
f 35//18 1//18 2//18 36//18
f 37//19 3//19 1//19
f 38//20 2//20 4//20
f 37//21 5//21 3//21
f 38//22 4//22 6//22
f 37//23 7//23 5//23
f 38//24 6//24 8//24
f 37//25 9//25 7//25
f 38//26 8//26 10//26
f 37//27 11//27 9//27
f 38//28 10//28 12//28
f 37//29 13//29 11//29
f 38//30 12//30 14//30
f 37//31 15//31 13//31
f 38//32 14//32 16//32
f 37//33 17//33 15//33
f 38//34 16//34 18//34
f 37//35 19//35 17//35
f 38//36 18//36 20//36
f 37//37 21//37 19//37
f 38//38 20//38 22//38
f 37//39 23//39 21//39
f 38//40 22//40 24//40
f 37//41 25//41 23//41
f 38//42 24//42 26//42
f 37//43 27//43 25//43
f 38//44 26//44 28//44
f 37//45 29//45 27//45
f 38//46 28//46 30//46
f 37//47 31//47 29//47
f 38//48 30//48 32//48
f 37//49 33//49 31//49
f 38//50 32//50 34//50
f 37//51 35//51 33//51
f 38//52 34//52 36//52
f 37//53 1//53 35//53
f 38//54 36//54 2//54
usemtl galvanized
f 39//55 41//55 42//55 40//55
f 41//56 43//56 44//56 42//56
f 43//57 45//57 46//57 44//57
f 45//58 47//58 48//58 46//58
f 47//59 49//59 50//59 48//59
f 49//60 51//60 52//60 50//60
f 51//61 53//61 54//61 52//61
f 53//62 55//62 56//62 54//62
f 55//63 57//63 58//63 56//63
f 57//64 59//64 60//64 58//64
f 59//65 61//65 62//65 60//65
f 61//66 63//66 64//66 62//66
f 63//67 65//67 66//67 64//67
f 65//68 39//68 40//68 66//68
f 67//69 41//69 39//69
f 68//70 40//70 42//70
f 67//71 43//71 41//71
f 68//72 42//72 44//72
f 67//73 45//73 43//73
f 68//74 44//74 46//74
f 67//75 47//75 45//75
f 68//76 46//76 48//76
f 67//77 49//77 47//77
f 68//78 48//78 50//78
f 67//79 51//79 49//79
f 68//80 50//80 52//80
f 67//81 53//81 51//81
f 68//82 52//82 54//82
f 67//83 55//83 53//83
f 68//84 54//84 56//84
f 67//85 57//85 55//85
f 68//86 56//86 58//86
f 67//87 59//87 57//87
f 68//88 58//88 60//88
f 67//89 61//89 59//89
f 68//90 60//90 62//90
f 67//91 63//91 61//91
f 68//92 62//92 64//92
f 67//93 65//93 63//93
f 68//94 64//94 66//94
f 67//95 39//95 65//95
f 68//96 66//96 40//96
usemtl conduit_paint
f 69//97 72//97 71//97 70//97
f 73//98 74//98 75//98 76//98
f 69//99 73//99 76//99 72//99
f 70//100 71//100 75//100 74//100
f 72//101 76//101 75//101 71//101
f 69//102 70//102 74//102 73//102
f 78//103 80//103 79//103 77//103
f 80//104 82//104 81//104 79//104
f 82//105 84//105 83//105 81//105
f 84//106 86//106 85//106 83//106
f 86//107 88//107 87//107 85//107
f 88//108 90//108 89//108 87//108
f 90//109 92//109 91//109 89//109
f 92//110 94//110 93//110 91//110
f 94//111 96//111 95//111 93//111
f 96//112 98//112 97//112 95//112
f 98//113 100//113 99//113 97//113
f 100//114 102//114 101//114 99//114
f 102//115 104//115 103//115 101//115
f 104//116 106//116 105//116 103//116
f 106//117 108//117 107//117 105//117
f 108//118 78//118 77//118 107//118
f 77//119 79//119 109//119
f 80//120 78//120 110//120
f 79//121 81//121 109//121
f 82//122 80//122 110//122
f 81//123 83//123 109//123
f 84//124 82//124 110//124
f 83//125 85//125 109//125
f 86//126 84//126 110//126
f 85//127 87//127 109//127
f 88//128 86//128 110//128
f 87//129 89//129 109//129
f 90//130 88//130 110//130
f 89//131 91//131 109//131
f 92//132 90//132 110//132
f 91//133 93//133 109//133
f 94//134 92//134 110//134
f 93//135 95//135 109//135
f 96//136 94//136 110//136
f 95//137 97//137 109//137
f 98//138 96//138 110//138
f 97//139 99//139 109//139
f 100//140 98//140 110//140
f 99//141 101//141 109//141
f 102//142 100//142 110//142
f 101//143 103//143 109//143
f 104//144 102//144 110//144
f 103//145 105//145 109//145
f 106//146 104//146 110//146
f 105//147 107//147 109//147
f 108//148 106//148 110//148
f 107//149 77//149 109//149
f 78//150 108//150 110//150
f 112//151 114//151 113//151 111//151
f 114//152 116//152 115//152 113//152
f 116//153 118//153 117//153 115//153
f 118//154 120//154 119//154 117//154
f 120//155 122//155 121//155 119//155
f 122//156 124//156 123//156 121//156
f 124//157 126//157 125//157 123//157
f 126//158 128//158 127//158 125//158
f 128//159 130//159 129//159 127//159
f 130//160 132//160 131//160 129//160
f 132//161 134//161 133//161 131//161
f 134//162 136//162 135//162 133//162
f 136//163 138//163 137//163 135//163
f 138//164 140//164 139//164 137//164
f 140//165 142//165 141//165 139//165
f 142//166 112//166 111//166 141//166
f 111//167 113//167 143//167
f 114//168 112//168 144//168
f 113//169 115//169 143//169
f 116//170 114//170 144//170
f 115//171 117//171 143//171
f 118//172 116//172 144//172
f 117//173 119//173 143//173
f 120//174 118//174 144//174
f 119//175 121//175 143//175
f 122//176 120//176 144//176
f 121//177 123//177 143//177
f 124//178 122//178 144//178
f 123//179 125//179 143//179
f 126//180 124//180 144//180
f 125//181 127//181 143//181
f 128//182 126//182 144//182
f 127//183 129//183 143//183
f 130//184 128//184 144//184
f 129//185 131//185 143//185
f 132//186 130//186 144//186
f 131//187 133//187 143//187
f 134//188 132//188 144//188
f 133//189 135//189 143//189
f 136//190 134//190 144//190
f 135//191 137//191 143//191
f 138//192 136//192 144//192
f 137//193 139//193 143//193
f 140//194 138//194 144//194
f 139//195 141//195 143//195
f 142//196 140//196 144//196
f 141//197 111//197 143//197
f 112//198 142//198 144//198
usemtl steel_paint_dark
f 145//199 148//199 147//199 146//199
f 149//200 150//200 151//200 152//200
f 145//201 149//201 152//201 148//201
f 146//202 147//202 151//202 150//202
f 148//203 152//203 151//203 147//203
f 145//204 146//204 150//204 149//204
f 154//205 156//205 155//205 153//205
f 156//206 158//206 157//206 155//206
f 158//207 160//207 159//207 157//207
f 160//208 162//208 161//208 159//208
f 162//209 164//209 163//209 161//209
f 164//210 166//210 165//210 163//210
f 166//211 168//211 167//211 165//211
f 168//212 170//212 169//212 167//212
f 170//213 172//213 171//213 169//213
f 172//214 174//214 173//214 171//214
f 174//215 176//215 175//215 173//215
f 176//216 178//216 177//216 175//216
f 178//217 180//217 179//217 177//217
f 180//218 182//218 181//218 179//218
f 182//219 184//219 183//219 181//219
f 184//220 154//220 153//220 183//220
f 153//221 155//221 185//221
f 156//222 154//222 186//222
f 155//223 157//223 185//223
f 158//224 156//224 186//224
f 157//225 159//225 185//225
f 160//226 158//226 186//226
f 159//227 161//227 185//227
f 162//228 160//228 186//228
f 161//229 163//229 185//229
f 164//230 162//230 186//230
f 163//231 165//231 185//231
f 166//232 164//232 186//232
f 165//233 167//233 185//233
f 168//234 166//234 186//234
f 167//235 169//235 185//235
f 170//236 168//236 186//236
f 169//237 171//237 185//237
f 172//238 170//238 186//238
f 171//239 173//239 185//239
f 174//240 172//240 186//240
f 173//241 175//241 185//241
f 176//242 174//242 186//242
f 175//243 177//243 185//243
f 178//244 176//244 186//244
f 177//245 179//245 185//245
f 180//246 178//246 186//246
f 179//247 181//247 185//247
f 182//248 180//248 186//248
f 181//249 183//249 185//249
f 184//250 182//250 186//250
f 183//251 153//251 185//251
f 154//252 184//252 186//252
f 188//253 190//253 189//253 187//253
f 190//254 192//254 191//254 189//254
f 192//255 194//255 193//255 191//255
f 194//256 196//256 195//256 193//256
f 196//257 198//257 197//257 195//257
f 198//258 200//258 199//258 197//258
f 200//259 202//259 201//259 199//259
f 202//260 204//260 203//260 201//260
f 204//261 206//261 205//261 203//261
f 206//262 208//262 207//262 205//262
f 208//263 210//263 209//263 207//263
f 210//264 212//264 211//264 209//264
f 212//265 214//265 213//265 211//265
f 214//266 216//266 215//266 213//266
f 216//267 218//267 217//267 215//267
f 218//268 188//268 187//268 217//268
f 187//269 189//269 219//269
f 190//270 188//270 220//270
f 189//271 191//271 219//271
f 192//272 190//272 220//272
f 191//273 193//273 219//273
f 194//274 192//274 220//274
f 193//275 195//275 219//275
f 196//276 194//276 220//276
f 195//277 197//277 219//277
f 198//278 196//278 220//278
f 197//279 199//279 219//279
f 200//280 198//280 220//280
f 199//281 201//281 219//281
f 202//282 200//282 220//282
f 201//283 203//283 219//283
f 204//284 202//284 220//284
f 203//285 205//285 219//285
f 206//286 204//286 220//286
f 205//287 207//287 219//287
f 208//288 206//288 220//288
f 207//289 209//289 219//289
f 210//290 208//290 220//290
f 209//291 211//291 219//291
f 212//292 210//292 220//292
f 211//293 213//293 219//293
f 214//294 212//294 220//294
f 213//295 215//295 219//295
f 216//296 214//296 220//296
f 215//297 217//297 219//297
f 218//298 216//298 220//298
f 217//299 187//299 219//299
f 188//300 218//300 220//300
usemtl galvanized
f 222//301 224//301 223//301 221//301
f 224//302 226//302 225//302 223//302
f 226//303 228//303 227//303 225//303
f 228//304 230//304 229//304 227//304
f 230//305 232//305 231//305 229//305
f 232//306 234//306 233//306 231//306
f 234//307 236//307 235//307 233//307
f 236//308 222//308 221//308 235//308
f 221//309 223//309 237//309
f 224//310 222//310 238//310
f 223//311 225//311 237//311
f 226//312 224//312 238//312
f 225//313 227//313 237//313
f 228//314 226//314 238//314
f 227//315 229//315 237//315
f 230//316 228//316 238//316
f 229//317 231//317 237//317
f 232//318 230//318 238//318
f 231//319 233//319 237//319
f 234//320 232//320 238//320
f 233//321 235//321 237//321
f 236//322 234//322 238//322
f 235//323 221//323 237//323
f 222//324 236//324 238//324
f 240//325 242//325 241//325 239//325
f 242//326 244//326 243//326 241//326
f 244//327 246//327 245//327 243//327
f 246//328 248//328 247//328 245//328
f 248//329 250//329 249//329 247//329
f 250//330 252//330 251//330 249//330
f 252//331 254//331 253//331 251//331
f 254//332 240//332 239//332 253//332
f 239//333 241//333 255//333
f 242//334 240//334 256//334
f 241//335 243//335 255//335
f 244//336 242//336 256//336
f 243//337 245//337 255//337
f 246//338 244//338 256//338
f 245//339 247//339 255//339
f 248//340 246//340 256//340
f 247//341 249//341 255//341
f 250//342 248//342 256//342
f 249//343 251//343 255//343
f 252//344 250//344 256//344
f 251//345 253//345 255//345
f 254//346 252//346 256//346
f 253//347 239//347 255//347
f 240//348 254//348 256//348
usemtl conduit_paint
f 258//349 260//349 259//349 257//349
f 260//350 262//350 261//350 259//350
f 262//351 264//351 263//351 261//351
f 264//352 266//352 265//352 263//352
f 266//353 268//353 267//353 265//353
f 268//354 270//354 269//354 267//354
f 270//355 272//355 271//355 269//355
f 272//356 274//356 273//356 271//356
f 274//357 276//357 275//357 273//357
f 276//358 278//358 277//358 275//358
f 278//359 280//359 279//359 277//359
f 280//360 282//360 281//360 279//360
f 282//361 284//361 283//361 281//361
f 284//362 258//362 257//362 283//362
f 257//363 259//363 285//363
f 260//364 258//364 286//364
f 259//365 261//365 285//365
f 262//366 260//366 286//366
f 261//367 263//367 285//367
f 264//368 262//368 286//368
f 263//369 265//369 285//369
f 266//370 264//370 286//370
f 265//371 267//371 285//371
f 268//372 266//372 286//372
f 267//373 269//373 285//373
f 270//374 268//374 286//374
f 269//375 271//375 285//375
f 272//376 270//376 286//376
f 271//377 273//377 285//377
f 274//378 272//378 286//378
f 273//379 275//379 285//379
f 276//380 274//380 286//380
f 275//381 277//381 285//381
f 278//382 276//382 286//382
f 277//383 279//383 285//383
f 280//384 278//384 286//384
f 279//385 281//385 285//385
f 282//386 280//386 286//386
f 281//387 283//387 285//387
f 284//388 282//388 286//388
f 283//389 257//389 285//389
f 258//390 284//390 286//390
usemtl galvanized
f 287//391 290//391 289//391 288//391
f 291//392 292//392 293//392 294//392
f 287//393 291//393 294//393 290//393
f 288//394 289//394 293//394 292//394
f 290//395 294//395 293//395 289//395
f 287//396 288//396 292//396 291//396
f 295//397 298//397 297//397 296//397
f 299//398 300//398 301//398 302//398
f 295//399 299//399 302//399 298//399
f 296//400 297//400 301//400 300//400
f 298//401 302//401 301//401 297//401
f 295//402 296//402 300//402 299//402
f 304//403 306//403 305//403 303//403
f 306//404 308//404 307//404 305//404
f 308//405 310//405 309//405 307//405
f 310//406 312//406 311//406 309//406
f 312//407 314//407 313//407 311//407
f 314//408 316//408 315//408 313//408
f 316//409 318//409 317//409 315//409
f 318//410 304//410 303//410 317//410
f 303//411 305//411 319//411
f 306//412 304//412 320//412
f 305//413 307//413 319//413
f 308//414 306//414 320//414
f 307//415 309//415 319//415
f 310//416 308//416 320//416
f 309//417 311//417 319//417
f 312//418 310//418 320//418
f 311//419 313//419 319//419
f 314//420 312//420 320//420
f 313//421 315//421 319//421
f 316//422 314//422 320//422
f 315//423 317//423 319//423
f 318//424 316//424 320//424
f 317//425 303//425 319//425
f 304//426 318//426 320//426
f 322//427 324//427 323//427 321//427
f 324//428 326//428 325//428 323//428
f 326//429 328//429 327//429 325//429
f 328//430 330//430 329//430 327//430
f 330//431 332//431 331//431 329//431
f 332//432 334//432 333//432 331//432
f 334//433 336//433 335//433 333//433
f 336//434 322//434 321//434 335//434
f 321//435 323//435 337//435
f 324//436 322//436 338//436
f 323//437 325//437 337//437
f 326//438 324//438 338//438
f 325//439 327//439 337//439
f 328//440 326//440 338//440
f 327//441 329//441 337//441
f 330//442 328//442 338//442
f 329//443 331//443 337//443
f 332//444 330//444 338//444
f 331//445 333//445 337//445
f 334//446 332//446 338//446
f 333//447 335//447 337//447
f 336//448 334//448 338//448
f 335//449 321//449 337//449
f 322//450 336//450 338//450
f 339//451 342//451 341//451 340//451
f 343//452 344//452 345//452 346//452
f 339//453 343//453 346//453 342//453
f 340//454 341//454 345//454 344//454
f 342//455 346//455 345//455 341//455
f 339//456 340//456 344//456 343//456
f 347//457 350//457 349//457 348//457
f 351//458 352//458 353//458 354//458
f 347//459 351//459 354//459 350//459
f 348//460 349//460 353//460 352//460
f 350//461 354//461 353//461 349//461
f 347//462 348//462 352//462 351//462
f 356//463 358//463 357//463 355//463
f 358//464 360//464 359//464 357//464
f 360//465 362//465 361//465 359//465
f 362//466 364//466 363//466 361//466
f 364//467 366//467 365//467 363//467
f 366//468 368//468 367//468 365//468
f 368//469 370//469 369//469 367//469
f 370//470 356//470 355//470 369//470
f 355//471 357//471 371//471
f 358//472 356//472 372//472
f 357//473 359//473 371//473
f 360//474 358//474 372//474
f 359//475 361//475 371//475
f 362//476 360//476 372//476
f 361//477 363//477 371//477
f 364//478 362//478 372//478
f 363//479 365//479 371//479
f 366//480 364//480 372//480
f 365//481 367//481 371//481
f 368//482 366//482 372//482
f 367//483 369//483 371//483
f 370//484 368//484 372//484
f 369//485 355//485 371//485
f 356//486 370//486 372//486
f 374//487 376//487 375//487 373//487
f 376//488 378//488 377//488 375//488
f 378//489 380//489 379//489 377//489
f 380//490 382//490 381//490 379//490
f 382//491 384//491 383//491 381//491
f 384//492 386//492 385//492 383//492
f 386//493 388//493 387//493 385//493
f 388//494 374//494 373//494 387//494
f 373//495 375//495 389//495
f 376//496 374//496 390//496
f 375//497 377//497 389//497
f 378//498 376//498 390//498
f 377//499 379//499 389//499
f 380//500 378//500 390//500
f 379//501 381//501 389//501
f 382//502 380//502 390//502
f 381//503 383//503 389//503
f 384//504 382//504 390//504
f 383//505 385//505 389//505
f 386//506 384//506 390//506
f 385//507 387//507 389//507
f 388//508 386//508 390//508
f 387//509 373//509 389//509
f 374//510 388//510 390//510
