# electric_meter.obj  Y-up, meters, origin at ground/wall contact
mtllib electric_meter.mtl
v -0.1500 0.0100 -0.0050
v -0.1500 0.0100 0.0050
v -0.1500 0.5100 -0.0050
v -0.1500 0.5100 0.0050
v 0.1500 0.0100 -0.0050
v 0.1500 0.0100 0.0050
v 0.1500 0.5100 -0.0050
v 0.1500 0.5100 0.0050
v -0.1380 0.0000 0.0000
v -0.1500 0.0120 0.0000
v -0.1500 0.0000 0.0120
v -0.1380 0.0000 0.1100
v -0.1500 0.0120 0.1100
v -0.1500 0.0000 0.0980
v -0.1380 0.5200 0.0000
v -0.1500 0.5080 0.0000
v -0.1500 0.5200 0.0120
v -0.1380 0.5200 0.1100
v -0.1500 0.5080 0.1100
v -0.1500 0.5200 0.0980
v 0.1380 0.0000 0.0000
v 0.1500 0.0120 0.0000
v 0.1500 0.0000 0.0120
v 0.1380 0.0000 0.1100
v 0.1500 0.0120 0.1100
v 0.1500 0.0000 0.0980
v 0.1380 0.5200 0.0000
v 0.1500 0.5080 0.0000
v 0.1500 0.5200 0.0120
v 0.1380 0.5200 0.1100
v 0.1500 0.5080 0.1100
v 0.1500 0.5200 0.0980
v -0.1560 0.0400 0.0450
v -0.1560 0.0400 0.0750
v -0.1560 0.4800 0.0450
v -0.1560 0.4800 0.0750
v -0.1440 0.0400 0.0450
v -0.1440 0.0400 0.0750
v -0.1440 0.4800 0.0450
v -0.1440 0.4800 0.0750
v 0.1250 0.3820 0.0550
v 0.1250 0.3873 0.0677
v 0.1250 0.4000 0.0730
v 0.1250 0.4127 0.0677
v 0.1250 0.4180 0.0550
v 0.1250 0.4127 0.0423
v 0.1250 0.4000 0.0370
v 0.1250 0.3873 0.0423
v 0.1750 0.3820 0.0550
v 0.1750 0.3873 0.0677
v 0.1750 0.4000 0.0730
v 0.1750 0.4127 0.0677
v 0.1750 0.4180 0.0550
v 0.1750 0.4127 0.0423
v 0.1750 0.4000 0.0370
v 0.1750 0.3873 0.0423
v 0.1050 0.3000 0.1100
v 0.0909 0.2475 0.1100
v 0.0525 0.2091 0.1100
v 0.0000 0.1950 0.1100
v -0.0525 0.2091 0.1100
v -0.0909 0.2475 0.1100
v -0.1050 0.3000 0.1100
v -0.0909 0.3525 0.1100
v -0.0525 0.3909 0.1100
v -0.0000 0.4050 0.1100
v 0.0525 0.3909 0.1100
v 0.0909 0.3525 0.1100
v 0.1050 0.3000 0.1700
v 0.0909 0.2475 0.1700
v 0.0525 0.2091 0.1700
v 0.0000 0.1950 0.1700
v -0.0525 0.2091 0.1700
v -0.0909 0.2475 0.1700
v -0.1050 0.3000 0.1700
v -0.0909 0.3525 0.1700
v -0.0525 0.3909 0.1700
v -0.0000 0.4050 0.1700
v 0.0525 0.3909 0.1700
v 0.0909 0.3525 0.1700
v 0.1120 0.3000 0.1700
v 0.0970 0.2440 0.1700
v 0.0560 0.2030 0.1700
v 0.0000 0.1880 0.1700
v -0.0560 0.2030 0.1700
v -0.0970 0.2440 0.1700
v -0.1120 0.3000 0.1700
v -0.0970 0.3560 0.1700
v -0.0560 0.3970 0.1700
v -0.0000 0.4120 0.1700
v 0.0560 0.3970 0.1700
v 0.0970 0.3560 0.1700
v 0.1120 0.3000 0.2000
v 0.0970 0.2440 0.2000
v 0.0560 0.2030 0.2000
v 0.0000 0.1880 0.2000
v -0.0560 0.2030 0.2000
v -0.0970 0.2440 0.2000
v -0.1120 0.3000 0.2000
v -0.0970 0.3560 0.2000
v -0.0560 0.3970 0.2000
v -0.0000 0.4120 0.2000
v 0.0560 0.3970 0.2000
v 0.0970 0.3560 0.2000
v 0.0850 0.3000 0.1700
v 0.0736 0.2575 0.1700
v 0.0425 0.2264 0.1700
v 0.0000 0.2150 0.1700
v -0.0425 0.2264 0.1700
v -0.0736 0.2575 0.1700
v -0.0850 0.3000 0.1700
v -0.0736 0.3425 0.1700
v -0.0425 0.3736 0.1700
v -0.0000 0.3850 0.1700
v 0.0425 0.3736 0.1700
v 0.0736 0.3425 0.1700
v 0.0850 0.3000 0.2000
v 0.0736 0.2575 0.2000
v 0.0425 0.2264 0.2000
v 0.0000 0.2150 0.2000
v -0.0425 0.2264 0.2000
v -0.0736 0.2575 0.2000
v -0.0850 0.3000 0.2000
v -0.0736 0.3425 0.2000
v -0.0425 0.3736 0.2000
v -0.0000 0.3850 0.2000
v 0.0425 0.3736 0.2000
v 0.0736 0.3425 0.2000
v 0.1180 0.3000 0.1875
v 0.1022 0.2410 0.1875
v 0.0590 0.1978 0.1875
v 0.0000 0.1820 0.1875
v -0.0590 0.1978 0.1875
v -0.1022 0.2410 0.1875
v -0.1180 0.3000 0.1875
v -0.1022 0.3590 0.1875
v -0.0590 0.4022 0.1875
v -0.0000 0.4180 0.1875
v 0.0590 0.4022 0.1875
v 0.1022 0.3590 0.1875
v 0.1180 0.3000 0.2125
v 0.1022 0.2410 0.2125
v 0.0590 0.1978 0.2125
v 0.0000 0.1820 0.2125
v -0.0590 0.1978 0.2125
v -0.1022 0.2410 0.2125
v -0.1180 0.3000 0.2125
v -0.1022 0.3590 0.2125
v -0.0590 0.4022 0.2125
v -0.0000 0.4180 0.2125
v 0.0590 0.4022 0.2125
v 0.1022 0.3590 0.2125
v 0.1000 0.3000 0.1875
v 0.0866 0.2500 0.1875
v 0.0500 0.2134 0.1875
v 0.0000 0.2000 0.1875
v -0.0500 0.2134 0.1875
v -0.0866 0.2500 0.1875
v -0.1000 0.3000 0.1875
v -0.0866 0.3500 0.1875
v -0.0500 0.3866 0.1875
v -0.0000 0.4000 0.1875
v 0.0500 0.3866 0.1875
v 0.0866 0.3500 0.1875
v 0.1000 0.3000 0.2125
v 0.0866 0.2500 0.2125
v 0.0500 0.2134 0.2125
v 0.0000 0.2000 0.2125
v -0.0500 0.2134 0.2125
v -0.0866 0.2500 0.2125
v -0.1000 0.3000 0.2125
v -0.0866 0.3500 0.2125
v -0.0500 0.3866 0.2125
v -0.0000 0.4000 0.2125
v 0.0500 0.3866 0.2125
v 0.0866 0.3500 0.2125
v 0.0850 0.3000 0.1950
v 0.0736 0.2575 0.1950
v 0.0425 0.2264 0.1950
v 0.0000 0.2150 0.1950
v -0.0425 0.2264 0.1950
v -0.0736 0.2575 0.1950
v -0.0850 0.3000 0.1950
v -0.0736 0.3425 0.1950
v -0.0425 0.3736 0.1950
v -0.0000 0.3850 0.1950
v 0.0425 0.3736 0.1950
v 0.0736 0.3425 0.1950
v 0.0850 0.3000 0.2050
v 0.0736 0.2575 0.2050
v 0.0425 0.2264 0.2050
v 0.0000 0.2150 0.2050
v -0.0425 0.2264 0.2050
v -0.0736 0.2575 0.2050
v -0.0850 0.3000 0.2050
v -0.0736 0.3425 0.2050
v -0.0425 0.3736 0.2050
v -0.0000 0.3850 0.2050
v 0.0425 0.3736 0.2050
v 0.0736 0.3425 0.2050
v -0.0350 0.2975 0.2050
v -0.0350 0.2975 0.2110
v -0.0350 0.3225 0.2050
v -0.0350 0.3225 0.2110
v 0.0350 0.2975 0.2050
v 0.0350 0.2975 0.2110
v 0.0350 0.3225 0.2050
v 0.0350 0.3225 0.2110
v -0.0300 0.2740 0.2050
v -0.0300 0.2740 0.2110
v -0.0300 0.2860 0.2050
v -0.0300 0.2860 0.2110
v 0.0300 0.2740 0.2050
v 0.0300 0.2740 0.2110
v 0.0300 0.2860 0.2050
v 0.0300 0.2860 0.2110
v 0.0950 0.3000 0.2050
v 0.0823 0.2525 0.2050
v 0.0475 0.2177 0.2050
v 0.0000 0.2050 0.2050
v -0.0475 0.2177 0.2050
v -0.0823 0.2525 0.2050
v -0.0950 0.3000 0.2050
v -0.0823 0.3475 0.2050
v -0.0475 0.3823 0.2050
v -0.0000 0.3950 0.2050
v 0.0475 0.3823 0.2050
v 0.0823 0.3475 0.2050
v 0.0766 0.2795 0.2600
v 0.0561 0.2439 0.2600
v 0.0205 0.2234 0.2600
v -0.0205 0.2234 0.2600
v -0.0561 0.2439 0.2600
v -0.0766 0.2795 0.2600
v -0.0766 0.3205 0.2600
v -0.0561 0.3561 0.2600
v -0.0205 0.3766 0.2600
v 0.0205 0.3766 0.2600
v 0.0561 0.3561 0.2600
v 0.0766 0.3205 0.2600
v 0.0483 0.2870 0.2900
v 0.0354 0.2646 0.2900
v 0.0130 0.2517 0.2900
v -0.0130 0.2517 0.2900
v -0.0354 0.2646 0.2900
v -0.0483 0.2870 0.2900
v -0.0483 0.3130 0.2900
v -0.0354 0.3354 0.2900
v -0.0130 0.3483 0.2900
v 0.0130 0.3483 0.2900
v 0.0354 0.3354 0.2900
v 0.0483 0.3130 0.2900
v 0.0000 0.3000 0.3050
v 0.0650 0.0650 0.1100
v 0.0650 0.0650 0.1160
v 0.0650 0.0950 0.1100
v 0.0650 0.0950 0.1160
v 0.1150 0.0650 0.1100
v 0.1150 0.0650 0.1160
v 0.1150 0.0950 0.1100
v 0.1150 0.0950 0.1160
v -0.1100 0.0600 0.1100
v -0.1100 0.0600 0.1160
v -0.1100 0.1000 0.1100
v -0.1100 0.1000 0.1160
v -0.0100 0.0600 0.1100
v -0.0100 0.0600 0.1160
v -0.0100 0.1000 0.1100
v -0.0100 0.1000 0.1160
v -0.1000 0.0760 0.1095
v -0.1000 0.0760 0.1165
v -0.1000 0.0840 0.1095
v -0.1000 0.0840 0.1165
v -0.0200 0.0760 0.1095
v -0.0200 0.0760 0.1165
v -0.0200 0.0840 0.1095
v -0.0200 0.0840 0.1165
v 0.0300 0.5200 0.0550
v 0.0243 0.5200 0.0726
v 0.0093 0.5200 0.0835
v -0.0093 0.5200 0.0835
v -0.0243 0.5200 0.0726
v -0.0300 0.5200 0.0550
v -0.0243 0.5200 0.0374
v -0.0093 0.5200 0.0265
v 0.0093 0.5200 0.0265
v 0.0243 0.5200 0.0374
v 0.0300 0.7100 0.0550
v 0.0243 0.7100 0.0726
v 0.0093 0.7100 0.0835
v -0.0093 0.7100 0.0835
v -0.0243 0.7100 0.0726
v -0.0300 0.7100 0.0550
v -0.0243 0.7100 0.0374
v -0.0093 0.7100 0.0265
v 0.0093 0.7100 0.0265
v 0.0243 0.7100 0.0374
v 0.0400 0.5350 0.0550
v 0.0324 0.5350 0.0785
v 0.0124 0.5350 0.0930
v -0.0124 0.5350 0.0930
v -0.0324 0.5350 0.0785
v -0.0400 0.5350 0.0550
v -0.0324 0.5350 0.0315
v -0.0124 0.5350 0.0170
v 0.0124 0.5350 0.0170
v 0.0324 0.5350 0.0315
v 0.0400 0.5850 0.0550
v 0.0324 0.5850 0.0785
v 0.0124 0.5850 0.0930
v -0.0124 0.5850 0.0930
v -0.0324 0.5850 0.0785
v -0.0400 0.5850 0.0550
v -0.0324 0.5850 0.0315
v -0.0124 0.5850 0.0170
v 0.0124 0.5850 0.0170
v 0.0324 0.5850 0.0315
usemtl steel_paint_dark
f 1 3 7
f 7 5 1
f 1 5 6
f 6 2 1
f 5 7 6
f 6 7 8
f 4 3 1
f 1 2 4
f 4 7 3
f 8 7 4
f 2 6 4
f 4 6 8
f 33 35 39
f 39 37 33
f 33 37 38
f 38 34 33
f 37 39 38
f 38 39 40
f 36 35 33
f 33 34 36
f 36 39 35
f 40 39 36
f 34 38 36
f 36 38 40
f 66 65 78
f 78 65 77
f 70 58 57
f 57 69 70
f 59 58 70
f 70 71 59
f 60 59 72
f 59 71 72
f 63 62 75
f 75 62 74
f 64 68 57
f 64 62 63
f 57 58 64
f 64 59 60
f 60 61 64
f 66 67 64
f 64 58 59
f 61 62 64
f 67 68 64
f 64 65 66
f 64 75 76
f 63 75 64
f 64 76 77
f 77 65 64
f 57 68 80
f 80 69 57
f 73 62 61
f 74 62 73
f 73 61 60
f 60 72 73
f 79 70 69
f 69 80 79
f 79 78 77
f 77 76 79
f 79 75 74
f 71 70 79
f 79 72 71
f 76 75 79
f 74 73 79
f 79 73 72
f 79 67 66
f 66 78 79
f 79 68 67
f 79 80 68
usemtl steel_paint
f 10 9 11
f 15 16 17
f 22 23 21
f 12 13 14
f 27 29 28
f 19 18 20
f 25 24 26
f 32 30 31
f 27 9 10
f 27 28 22
f 10 16 27
f 22 21 27
f 27 16 15
f 27 21 9
f 30 25 31
f 12 24 30
f 30 13 12
f 30 18 19
f 19 13 30
f 30 24 25
f 20 16 10
f 10 11 20
f 20 13 19
f 11 14 20
f 20 17 16
f 20 14 13
f 26 11 9
f 26 24 12
f 9 21 26
f 26 21 23
f 12 14 26
f 26 14 11
f 22 28 32
f 31 25 32
f 32 23 22
f 25 26 32
f 28 29 32
f 32 26 23
f 32 27 15
f 15 17 32
f 18 30 32
f 29 27 32
f 17 20 32
f 32 20 18
usemtl galvanized
f 47 46 55
f 55 46 54
f 44 48 41
f 45 46 44
f 41 42 44
f 47 48 44
f 44 46 47
f 44 42 43
f 53 46 45
f 54 46 53
f 45 44 53
f 53 44 52
f 50 42 41
f 41 49 50
f 41 48 56
f 56 49 41
f 56 48 47
f 47 55 56
f 54 53 51
f 51 50 49
f 51 55 54
f 51 53 52
f 49 56 51
f 51 56 55
f 52 44 51
f 51 44 43
f 43 42 51
f 42 50 51
f 278 287 297
f 297 288 278
f 297 287 286
f 286 296 297
f 285 284 295
f 295 284 294
f 286 285 295
f 295 296 286
f 293 284 283
f 294 284 293
f 289 279 278
f 278 288 289
f 283 284 282
f 282 287 278
f 278 279 282
f 286 287 282
f 282 285 286
f 282 279 280
f 282 284 285
f 280 281 282
f 290 281 280
f 291 281 290
f 280 279 290
f 279 289 290
f 288 297 292
f 294 293 292
f 292 295 294
f 292 297 296
f 296 295 292
f 291 290 292
f 292 289 288
f 292 290 289
f 292 282 281
f 292 281 291
f 292 293 283
f 283 282 292
f 309 299 298
f 298 308 309
f 313 304 303
f 314 304 313
f 310 301 300
f 311 301 310
f 300 299 310
f 299 309 310
f 302 301 312
f 312 301 311
f 303 302 312
f 312 313 303
f 300 301 306
f 298 299 306
f 306 302 303
f 306 299 300
f 306 307 298
f 303 304 306
f 306 301 302
f 306 304 305
f 298 307 317
f 317 308 298
f 307 306 317
f 317 306 316
f 311 310 315
f 315 309 308
f 315 312 311
f 314 313 315
f 308 317 315
f 315 310 309
f 313 312 315
f 315 317 316
f 315 304 314
f 305 304 315
f 315 306 305
f 316 306 315
usemtl meter_bezel
f 81 94 82
f 81 93 94
f 105 106 118
f 105 118 117
f 93 118 94
f 93 117 118
f 81 82 106
f 81 106 105
f 82 95 83
f 82 94 95
f 106 107 119
f 106 119 118
f 94 119 95
f 94 118 119
f 82 83 107
f 82 107 106
f 83 96 84
f 83 95 96
f 107 108 120
f 107 120 119
f 95 120 96
f 95 119 120
f 83 84 108
f 83 108 107
f 84 97 85
f 84 96 97
f 108 109 121
f 108 121 120
f 96 121 97
f 96 120 121
f 84 85 109
f 84 109 108
f 85 98 86
f 85 97 98
f 109 110 122
f 109 122 121
f 97 122 98
f 97 121 122
f 85 86 110
f 85 110 109
f 86 99 87
f 86 98 99
f 110 111 123
f 110 123 122
f 98 123 99
f 98 122 123
f 86 87 111
f 86 111 110
f 87 100 88
f 87 99 100
f 111 112 124
f 111 124 123
f 99 124 100
f 99 123 124
f 87 88 112
f 87 112 111
f 88 101 89
f 88 100 101
f 112 113 125
f 112 125 124
f 100 125 101
f 100 124 125
f 88 89 113
f 88 113 112
f 89 102 90
f 89 101 102
f 113 114 126
f 113 126 125
f 101 126 102
f 101 125 126
f 89 90 114
f 89 114 113
f 90 103 91
f 90 102 103
f 114 115 127
f 114 127 126
f 102 127 103
f 102 126 127
f 90 91 115
f 90 115 114
f 91 104 92
f 91 103 104
f 115 116 128
f 115 128 127
f 103 128 104
f 103 127 128
f 91 92 116
f 91 116 115
f 92 93 81
f 92 104 93
f 116 105 117
f 116 117 128
f 104 117 93
f 104 128 117
f 92 81 105
f 92 105 116
usemtl meter_ring
f 129 142 130
f 129 141 142
f 153 154 166
f 153 166 165
f 141 166 142
f 141 165 166
f 129 130 154
f 129 154 153
f 130 143 131
f 130 142 143
f 154 155 167
f 154 167 166
f 142 167 143
f 142 166 167
f 130 131 155
f 130 155 154
f 131 144 132
f 131 143 144
f 155 156 168
f 155 168 167
f 143 168 144
f 143 167 168
f 131 132 156
f 131 156 155
f 132 145 133
f 132 144 145
f 156 157 169
f 156 169 168
f 144 169 145
f 144 168 169
f 132 133 157
f 132 157 156
f 133 146 134
f 133 145 146
f 157 158 170
f 157 170 169
f 145 170 146
f 145 169 170
f 133 134 158
f 133 158 157
f 134 147 135
f 134 146 147
f 158 159 171
f 158 171 170
f 146 171 147
f 146 170 171
f 134 135 159
f 134 159 158
f 135 148 136
f 135 147 148
f 159 160 172
f 159 172 171
f 147 172 148
f 147 171 172
f 135 136 160
f 135 160 159
f 136 149 137
f 136 148 149
f 160 161 173
f 160 173 172
f 148 173 149
f 148 172 173
f 136 137 161
f 136 161 160
f 137 150 138
f 137 149 150
f 161 162 174
f 161 174 173
f 149 174 150
f 149 173 174
f 137 138 162
f 137 162 161
f 138 151 139
f 138 150 151
f 162 163 175
f 162 175 174
f 150 175 151
f 150 174 175
f 138 139 163
f 138 163 162
f 139 152 140
f 139 151 152
f 163 164 176
f 163 176 175
f 151 176 152
f 151 175 176
f 139 140 164
f 139 164 163
f 140 141 129
f 140 152 141
f 164 153 165
f 164 165 176
f 152 165 141
f 152 176 165
f 140 129 153
f 140 153 164
usemtl meter_face
f 192 181 180
f 193 181 192
f 190 178 177
f 177 189 190
f 194 181 193
f 194 182 181
f 184 188 177
f 184 182 183
f 177 178 184
f 184 179 180
f 180 181 184
f 186 187 184
f 184 178 179
f 181 182 184
f 187 188 184
f 184 185 186
f 177 188 200
f 200 189 177
f 200 188 187
f 187 199 200
f 185 184 197
f 197 184 196
f 180 179 191
f 191 192 180
f 179 178 191
f 178 190 191
f 195 184 183
f 196 184 195
f 183 182 195
f 182 194 195
f 189 200 198
f 193 192 198
f 198 190 189
f 198 194 193
f 198 197 196
f 192 191 198
f 198 200 199
f 196 195 198
f 198 191 190
f 198 195 194
f 198 187 186
f 198 199 187
f 186 185 198
f 185 197 198
usemtl meter_lcd
f 201 203 207
f 207 205 201
f 201 205 206
f 206 202 201
f 205 207 206
f 206 207 208
f 204 203 201
f 201 202 204
f 204 207 203
f 208 207 204
f 202 206 204
f 204 206 208
usemtl label_black
f 209 211 215
f 215 213 209
f 209 213 214
f 214 210 209
f 213 215 214
f 214 215 216
f 212 211 209
f 209 210 212
f 212 215 211
f 216 215 212
f 210 214 212
f 212 214 216
f 270 272 276
f 276 274 270
f 270 274 275
f 275 271 270
f 274 276 275
f 275 276 277
f 273 272 270
f 270 271 273
f 273 276 272
f 277 276 273
f 271 275 273
f 273 275 277
usemtl meter_glass
f 223 222 234
f 234 222 233
f 233 222 221
f 221 232 233
f 220 232 221
f 220 219 231
f 231 232 220
f 231 219 230
f 236 225 224
f 228 227 239
f 230 219 218
f 218 229 230
f 217 229 218
f 238 227 226
f 239 227 238
f 235 224 223
f 223 234 235
f 236 224 235
f 244 243 253
f 253 245 244
f 240 229 217
f 217 228 240
f 240 228 239
f 226 225 237
f 237 225 236
f 237 238 226
f 250 249 253
f 253 251 250
f 253 243 242
f 242 241 253
f 252 251 253
f 253 241 252
f 246 245 253
f 247 246 253
f 253 249 248
f 248 247 253
f 218 222 223
f 218 228 217
f 220 221 218
f 223 224 218
f 218 219 220
f 218 225 226
f 226 227 218
f 218 221 222
f 218 224 225
f 227 228 218
f 244 231 243
f 232 231 244
f 233 232 244
f 244 245 233
f 238 237 250
f 250 237 249
f 250 251 239
f 239 238 250
f 243 231 242
f 242 231 230
f 230 229 242
f 229 241 242
f 239 251 252
f 252 240 239
f 252 241 229
f 229 240 252
f 233 245 246
f 246 234 233
f 234 246 247
f 247 235 234
f 249 237 248
f 248 237 236
f 235 247 248
f 236 235 248
usemtl label_yellow
f 254 256 260
f 260 258 254
f 254 258 259
f 259 255 254
f 258 260 259
f 259 260 261
f 257 256 254
f 254 255 257
f 257 260 256
f 261 260 257
f 255 259 257
f 257 259 261
usemtl label_white
f 262 264 268
f 268 266 262
f 262 266 267
f 267 263 262
f 266 268 267
f 267 268 269
f 265 264 262
f 262 263 265
f 265 268 264
f 269 268 265
f 263 267 265
f 265 267 269
