# fence_panel.obj  Y-up, meters, origin at ground/wall contact
mtllib fence_panel.mtl
v -1.2650 0.0000 -0.1200
v -1.1750 0.0000 -0.1200
v -1.1750 1.8800 -0.1200
v -1.2650 1.8800 -0.1200
v -1.2650 0.0000 -0.0300
v -1.1750 0.0000 -0.0300
v -1.1750 1.8800 -0.0300
v -1.2650 1.8800 -0.0300
v -1.2800 1.8800 -0.1350
v -1.1600 1.8800 -0.1350
v -1.1600 1.9000 -0.1350
v -1.2800 1.9000 -0.1350
v -1.2800 1.8800 -0.0150
v -1.1600 1.8800 -0.0150
v -1.1600 1.9000 -0.0150
v -1.2800 1.9000 -0.0150
v -1.2200 1.9500 -0.0750
v -1.1599 1.9000 -0.1351
v -1.1599 1.9000 -0.0149
v -1.2801 1.9000 -0.0149
v -1.2801 1.9000 -0.1351
v -1.2200 1.9000 -0.0750
v 1.1750 0.0000 -0.1200
v 1.2650 0.0000 -0.1200
v 1.2650 1.8800 -0.1200
v 1.1750 1.8800 -0.1200
v 1.1750 0.0000 -0.0300
v 1.2650 0.0000 -0.0300
v 1.2650 1.8800 -0.0300
v 1.1750 1.8800 -0.0300
v 1.1600 1.8800 -0.1350
v 1.2800 1.8800 -0.1350
v 1.2800 1.9000 -0.1350
v 1.1600 1.9000 -0.1350
v 1.1600 1.8800 -0.0150
v 1.2800 1.8800 -0.0150
v 1.2800 1.9000 -0.0150
v 1.1600 1.9000 -0.0150
v 1.2200 1.9500 -0.0750
v 1.2801 1.9000 -0.1351
v 1.2801 1.9000 -0.0149
v 1.1599 1.9000 -0.0149
v 1.1599 1.9000 -0.1351
v 1.2200 1.9000 -0.0750
v -1.1750 0.2555 -0.0300
v 1.1750 0.2555 -0.0300
v 1.1750 0.3445 -0.0300
v -1.1750 0.3445 -0.0300
v -1.1750 0.2555 0.0080
v 1.1750 0.2555 0.0080
v 1.1750 0.3445 0.0080
v -1.1750 0.3445 0.0080
v -1.1750 0.8705 -0.0300
v 1.1750 0.8705 -0.0300
v 1.1750 0.9595 -0.0300
v -1.1750 0.9595 -0.0300
v -1.1750 0.8705 0.0080
v 1.1750 0.8705 0.0080
v 1.1750 0.9595 0.0080
v -1.1750 0.9595 0.0080
v -1.1750 1.5355 -0.0300
v 1.1750 1.5355 -0.0300
v 1.1750 1.6245 -0.0300
v -1.1750 1.6245 -0.0300
v -1.1750 1.5355 0.0080
v 1.1750 1.5355 0.0080
v 1.1750 1.6245 0.0080
v -1.1750 1.6245 0.0080
v -1.1750 0.0100 0.0080
v 1.1750 0.0100 0.0080
v 1.1750 0.1500 0.0080
v -1.1750 0.1500 0.0080
v -1.1750 0.0100 0.0240
v 1.1750 0.0100 0.0240
v 1.1750 0.1500 0.0240
v -1.1750 0.1500 0.0240
v -1.1340 0.1500 0.0080
v -0.9940 0.1500 0.0080
v -0.9940 1.8188 0.0080
v -1.0190 1.8438 0.0080
v -1.1090 1.8438 0.0080
v -1.1340 1.8188 0.0080
v -1.1340 0.1500 0.0240
v -0.9940 0.1500 0.0240
v -0.9940 1.8188 0.0240
v -1.0190 1.8438 0.0240
v -1.1090 1.8438 0.0240
v -1.1340 1.8188 0.0240
v -0.9820 0.1500 0.0080
v -0.8420 0.1500 0.0080
v -0.8420 1.8162 0.0080
v -0.8670 1.8412 0.0080
v -0.9570 1.8412 0.0080
v -0.9820 1.8162 0.0080
v -0.9820 0.1500 0.0240
v -0.8420 0.1500 0.0240
v -0.8420 1.8162 0.0240
v -0.8670 1.8412 0.0240
v -0.9570 1.8412 0.0240
v -0.9820 1.8162 0.0240
v -0.8300 0.1500 0.0080
v -0.6900 0.1500 0.0080
v -0.6900 1.7994 0.0080
v -0.7150 1.8244 0.0080
v -0.8050 1.8244 0.0080
v -0.8300 1.7994 0.0080
v -0.8300 0.1500 0.0240
v -0.6900 0.1500 0.0240
v -0.6900 1.7994 0.0240
v -0.7150 1.8244 0.0240
v -0.8050 1.8244 0.0240
v -0.8300 1.7994 0.0240
v -0.6780 0.1500 0.0080
v -0.5380 0.1500 0.0080
v -0.5380 1.8062 0.0080
v -0.5630 1.8312 0.0080
v -0.6530 1.8312 0.0080
v -0.6780 1.8062 0.0080
v -0.6780 0.1500 0.0240
v -0.5380 0.1500 0.0240
v -0.5380 1.8062 0.0240
v -0.5630 1.8312 0.0240
v -0.6530 1.8312 0.0240
v -0.6780 1.8062 0.0240
v -0.5260 0.1500 0.0080
v -0.3860 0.1500 0.0080
v -0.3860 1.7955 0.0080
v -0.4110 1.8205 0.0080
v -0.5010 1.8205 0.0080
v -0.5260 1.7955 0.0080
v -0.5260 0.1500 0.0240
v -0.3860 0.1500 0.0240
v -0.3860 1.7955 0.0240
v -0.4110 1.8205 0.0240
v -0.5010 1.8205 0.0240
v -0.5260 1.7955 0.0240
v -0.3740 0.1500 0.0080
v -0.2340 0.1500 0.0080
v -0.2340 1.8190 0.0080
v -0.2590 1.8440 0.0080
v -0.3490 1.8440 0.0080
v -0.3740 1.8190 0.0080
v -0.3740 0.1500 0.0240
v -0.2340 0.1500 0.0240
v -0.2340 1.8190 0.0240
v -0.2590 1.8440 0.0240
v -0.3490 1.8440 0.0240
v -0.3740 1.8190 0.0240
v -0.2220 0.1500 0.0080
v -0.0820 0.1500 0.0080
v -0.0820 1.7990 0.0080
v -0.1070 1.8240 0.0080
v -0.1970 1.8240 0.0080
v -0.2220 1.7990 0.0080
v -0.2220 0.1500 0.0240
v -0.0820 0.1500 0.0240
v -0.0820 1.7990 0.0240
v -0.1070 1.8240 0.0240
v -0.1970 1.8240 0.0240
v -0.2220 1.7990 0.0240
v -0.0700 0.1500 0.0080
v 0.0700 0.1500 0.0080
v 0.0700 1.8024 0.0080
v 0.0450 1.8274 0.0080
v -0.0450 1.8274 0.0080
v -0.0700 1.8024 0.0080
v -0.0700 0.1500 0.0240
v 0.0700 0.1500 0.0240
v 0.0700 1.8024 0.0240
v 0.0450 1.8274 0.0240
v -0.0450 1.8274 0.0240
v -0.0700 1.8024 0.0240
v 0.0820 0.1500 0.0080
v 0.2220 0.1500 0.0080
v 0.2220 1.7979 0.0080
v 0.1970 1.8229 0.0080
v 0.1070 1.8229 0.0080
v 0.0820 1.7979 0.0080
v 0.0820 0.1500 0.0240
v 0.2220 0.1500 0.0240
v 0.2220 1.7979 0.0240
v 0.1970 1.8229 0.0240
v 0.1070 1.8229 0.0240
v 0.0820 1.7979 0.0240
v 0.2340 0.1500 0.0080
v 0.3740 0.1500 0.0080
v 0.3740 1.7990 0.0080
v 0.3490 1.8240 0.0080
v 0.2590 1.8240 0.0080
v 0.2340 1.7990 0.0080
v 0.2340 0.1500 0.0240
v 0.3740 0.1500 0.0240
v 0.3740 1.7990 0.0240
v 0.3490 1.8240 0.0240
v 0.2590 1.8240 0.0240
v 0.2340 1.7990 0.0240
v 0.3860 0.1500 0.0080
v 0.5260 0.1500 0.0080
v 0.5260 1.8079 0.0080
v 0.5010 1.8329 0.0080
v 0.4110 1.8329 0.0080
v 0.3860 1.8079 0.0080
v 0.3860 0.1500 0.0240
v 0.5260 0.1500 0.0240
v 0.5260 1.8079 0.0240
v 0.5010 1.8329 0.0240
v 0.4110 1.8329 0.0240
v 0.3860 1.8079 0.0240
v 0.5380 0.1500 0.0080
v 0.6780 0.1500 0.0080
v 0.6780 1.7920 0.0080
v 0.6530 1.8170 0.0080
v 0.5630 1.8170 0.0080
v 0.5380 1.7920 0.0080
v 0.5380 0.1500 0.0240
v 0.6780 0.1500 0.0240
v 0.6780 1.7920 0.0240
v 0.6530 1.8170 0.0240
v 0.5630 1.8170 0.0240
v 0.5380 1.7920 0.0240
v 0.6900 0.1500 0.0080
v 0.8300 0.1500 0.0080
v 0.8300 1.8146 0.0080
v 0.8050 1.8396 0.0080
v 0.7150 1.8396 0.0080
v 0.6900 1.8146 0.0080
v 0.6900 0.1500 0.0240
v 0.8300 0.1500 0.0240
v 0.8300 1.8146 0.0240
v 0.8050 1.8396 0.0240
v 0.7150 1.8396 0.0240
v 0.6900 1.8146 0.0240
v 0.8420 0.1500 0.0080
v 0.9820 0.1500 0.0080
v 0.9820 1.8109 0.0080
v 0.9570 1.8359 0.0080
v 0.8670 1.8359 0.0080
v 0.8420 1.8109 0.0080
v 0.8420 0.1500 0.0240
v 0.9820 0.1500 0.0240
v 0.9820 1.8109 0.0240
v 0.9570 1.8359 0.0240
v 0.8670 1.8359 0.0240
v 0.8420 1.8109 0.0240
v 0.9940 0.1500 0.0080
v 1.1340 0.1500 0.0080
v 1.1340 1.8044 0.0080
v 1.1090 1.8294 0.0080
v 1.0190 1.8294 0.0080
v 0.9940 1.8044 0.0080
v 0.9940 0.1500 0.0240
v 1.1340 0.1500 0.0240
v 1.1340 1.8044 0.0240
v 1.1090 1.8294 0.0240
v 1.0190 1.8294 0.0240
v 0.9940 1.8044 0.0240
vn 0.0000 0.0000 -1.0000
vn 0.0000 0.0000 1.0000
vn -1.0000 0.0000 0.0000
vn 1.0000 0.0000 0.0000
vn 0.0000 1.0000 0.0000
vn 0.0000 -1.0000 0.0000
vn 0.0000 0.0000 -1.0000
vn 0.0000 0.0000 1.0000
vn -1.0000 0.0000 0.0000
vn 1.0000 0.0000 0.0000
vn 0.0000 1.0000 0.0000
vn 0.0000 -1.0000 0.0000
vn 0.6395 0.7688 0.0000
vn 0.0000 -1.0000 0.0000
vn -0.0000 0.7688 0.6395
vn 0.0000 -1.0000 0.0000
vn -0.6395 0.7688 0.0000
vn 0.0000 -1.0000 0.0000
vn 0.0000 0.7688 -0.6395
vn 0.0000 -1.0000 0.0000
vn 0.0000 0.0000 -1.0000
vn 0.0000 0.0000 1.0000
vn -1.0000 0.0000 0.0000
vn 1.0000 0.0000 0.0000
vn 0.0000 1.0000 0.0000
vn 0.0000 -1.0000 0.0000
vn 0.0000 0.0000 -1.0000
vn 0.0000 0.0000 1.0000
vn -1.0000 0.0000 0.0000
vn 1.0000 0.0000 0.0000
vn 0.0000 1.0000 0.0000
vn 0.0000 -1.0000 0.0000
vn 0.6395 0.7688 0.0000
vn 0.0000 -1.0000 0.0000
vn -0.0000 0.7688 0.6395
vn 0.0000 -1.0000 0.0000
vn -0.6395 0.7688 0.0000
vn 0.0000 -1.0000 0.0000
vn 0.0000 0.7688 -0.6395
vn 0.0000 -1.0000 0.0000
vn 0.0000 0.0000 -1.0000
vn 0.0000 0.0000 1.0000
vn -1.0000 0.0000 0.0000
vn 1.0000 0.0000 0.0000
vn 0.0000 1.0000 0.0000
vn 0.0000 -1.0000 0.0000
vn 0.0000 0.0000 -1.0000
vn 0.0000 0.0000 1.0000
vn -1.0000 0.0000 0.0000
vn 1.0000 0.0000 0.0000
vn 0.0000 1.0000 0.0000
vn 0.0000 -1.0000 0.0000
vn 0.0000 0.0000 -1.0000
vn 0.0000 0.0000 1.0000
vn -1.0000 0.0000 0.0000
vn 1.0000 0.0000 0.0000
vn 0.0000 1.0000 0.0000
vn 0.0000 -1.0000 0.0000
vn 0.0000 0.0000 -1.0000
vn 0.0000 0.0000 1.0000
vn -1.0000 0.0000 0.0000
vn 1.0000 0.0000 0.0000
vn 0.0000 1.0000 0.0000
vn 0.0000 -1.0000 0.0000
vn 0.0000 0.0000 -1.0000
vn 0.0000 0.0000 1.0000
vn 0.0000 -1.0000 0.0000
vn 1.0000 0.0000 0.0000
vn 0.7071 0.7071 0.0000
vn 0.0000 1.0000 0.0000
vn -0.7071 0.7071 0.0000
vn -1.0000 0.0000 0.0000
vn 0.0000 0.0000 -1.0000
vn 0.0000 0.0000 1.0000
vn 0.0000 -1.0000 0.0000
vn 1.0000 0.0000 0.0000
vn 0.7071 0.7071 0.0000
vn 0.0000 1.0000 0.0000
vn -0.7071 0.7071 0.0000
vn -1.0000 0.0000 0.0000
vn 0.0000 0.0000 -1.0000
vn 0.0000 0.0000 1.0000
vn 0.0000 -1.0000 0.0000
vn 1.0000 0.0000 0.0000
vn 0.7071 0.7071 0.0000
vn 0.0000 1.0000 0.0000
vn -0.7071 0.7071 0.0000
vn -1.0000 0.0000 0.0000
vn 0.0000 0.0000 -1.0000
vn 0.0000 0.0000 1.0000
vn 0.0000 -1.0000 0.0000
vn 1.0000 0.0000 0.0000
vn 0.7071 0.7071 0.0000
vn 0.0000 1.0000 0.0000
vn -0.7071 0.7071 0.0000
vn -1.0000 0.0000 0.0000
vn 0.0000 0.0000 -1.0000
vn 0.0000 0.0000 1.0000
vn 0.0000 -1.0000 0.0000
vn 1.0000 0.0000 0.0000
vn 0.7071 0.7071 0.0000
vn 0.0000 1.0000 0.0000
vn -0.7071 0.7071 0.0000
vn -1.0000 0.0000 0.0000
vn 0.0000 0.0000 -1.0000
vn 0.0000 0.0000 1.0000
vn 0.0000 -1.0000 0.0000
vn 1.0000 0.0000 0.0000
vn 0.7071 0.7071 0.0000
vn 0.0000 1.0000 0.0000
vn -0.7071 0.7071 0.0000
vn -1.0000 0.0000 0.0000
vn 0.0000 0.0000 -1.0000
vn 0.0000 0.0000 1.0000
vn 0.0000 -1.0000 0.0000
vn 1.0000 0.0000 0.0000
vn 0.7071 0.7071 0.0000
vn 0.0000 1.0000 0.0000
vn -0.7071 0.7071 0.0000
vn -1.0000 0.0000 0.0000
vn 0.0000 0.0000 -1.0000
vn 0.0000 0.0000 1.0000
vn 0.0000 -1.0000 0.0000
vn 1.0000 0.0000 0.0000
vn 0.7071 0.7071 0.0000
vn 0.0000 1.0000 0.0000
vn -0.7071 0.7071 0.0000
vn -1.0000 0.0000 0.0000
vn 0.0000 0.0000 -1.0000
vn 0.0000 0.0000 1.0000
vn 0.0000 -1.0000 0.0000
vn 1.0000 0.0000 0.0000
vn 0.7071 0.7071 0.0000
vn 0.0000 1.0000 0.0000
vn -0.7071 0.7071 0.0000
vn -1.0000 0.0000 0.0000
vn 0.0000 0.0000 -1.0000
vn 0.0000 0.0000 1.0000
vn 0.0000 -1.0000 0.0000
vn 1.0000 0.0000 0.0000
vn 0.7071 0.7071 0.0000
vn 0.0000 1.0000 0.0000
vn -0.7071 0.7071 0.0000
vn -1.0000 0.0000 0.0000
vn 0.0000 0.0000 -1.0000
vn 0.0000 0.0000 1.0000
vn 0.0000 -1.0000 0.0000
vn 1.0000 0.0000 0.0000
vn 0.7071 0.7071 0.0000
vn 0.0000 1.0000 0.0000
vn -0.7071 0.7071 0.0000
vn -1.0000 0.0000 0.0000
vn 0.0000 0.0000 -1.0000
vn 0.0000 0.0000 1.0000
vn 0.0000 -1.0000 0.0000
vn 1.0000 0.0000 0.0000
vn 0.7071 0.7071 0.0000
vn 0.0000 1.0000 0.0000
vn -0.7071 0.7071 0.0000
vn -1.0000 0.0000 0.0000
vn 0.0000 0.0000 -1.0000
vn 0.0000 0.0000 1.0000
vn 0.0000 -1.0000 0.0000
vn 1.0000 0.0000 0.0000
vn 0.7071 0.7071 0.0000
vn 0.0000 1.0000 0.0000
vn -0.7071 0.7071 0.0000
vn -1.0000 0.0000 0.0000
vn 0.0000 0.0000 -1.0000
vn 0.0000 0.0000 1.0000
vn 0.0000 -1.0000 0.0000
vn 1.0000 0.0000 0.0000
vn 0.7071 0.7071 0.0000
vn 0.0000 1.0000 0.0000
vn -0.7071 0.7071 0.0000
vn -1.0000 0.0000 0.0000
vn 0.0000 0.0000 -1.0000
vn 0.0000 0.0000 1.0000
vn 0.0000 -1.0000 0.0000
vn 1.0000 0.0000 0.0000
vn 0.7071 0.7071 0.0000
vn 0.0000 1.0000 0.0000
vn -0.7071 0.7071 0.0000
vn -1.0000 0.0000 0.0000
usemtl wood_dark
f 1//1 4//1 3//1 2//1
f 5//2 6//2 7//2 8//2
usemtl wood
f 1//3 5//3 8//3 4//3
usemtl wood_gray
f 2//4 3//4 7//4 6//4
usemtl wood_light
f 4//5 8//5 7//5 3//5
usemtl wood
f 1//6 2//6 6//6 5//6
usemtl wood_dark
f 9//7 12//7 11//7 10//7
f 13//8 14//8 15//8 16//8
f 9//9 13//9 16//9 12//9
f 10//10 11//10 15//10 14//10
f 12//11 16//11 15//11 11//11
f 9//12 10//12 14//12 13//12
f 17//13 19//13 18//13
f 22//14 18//14 19//14
f 17//15 20//15 19//15
f 22//16 19//16 20//16
f 17//17 21//17 20//17
f 22//18 20//18 21//18
f 17//19 18//19 21//19
f 22//20 21//20 18//20
usemtl wood_light
f 23//21 26//21 25//21 24//21
usemtl wood
f 27//22 28//22 29//22 30//22
usemtl wood_dark
f 23//23 27//23 30//23 26//23
usemtl wood_gray
f 24//24 25//24 29//24 28//24
usemtl wood_light
f 26//25 30//25 29//25 25//25
usemtl wood_gray
f 23//26 24//26 28//26 27//26
usemtl wood_dark
f 31//27 34//27 33//27 32//27
f 35//28 36//28 37//28 38//28
f 31//29 35//29 38//29 34//29
f 32//30 33//30 37//30 36//30
f 34//31 38//31 37//31 33//31
f 31//32 32//32 36//32 35//32
f 39//33 41//33 40//33
f 44//34 40//34 41//34
f 39//35 42//35 41//35
f 44//36 41//36 42//36
f 39//37 43//37 42//37
f 44//38 42//38 43//38
f 39//39 40//39 43//39
f 44//40 43//40 40//40
usemtl wood
f 45//41 48//41 47//41 46//41
usemtl wood_light
f 49//42 50//42 51//42 52//42
usemtl wood
f 45//43 49//43 52//43 48//43
usemtl wood_light
f 46//44 47//44 51//44 50//44
usemtl wood_gray
f 48//45 52//45 51//45 47//45
usemtl wood_dark
f 45//46 46//46 50//46 49//46
usemtl wood_light
f 53//47 56//47 55//47 54//47
usemtl wood_gray
f 57//48 58//48 59//48 60//48
usemtl wood_light
f 53//49 57//49 60//49 56//49
usemtl wood
f 54//50 55//50 59//50 58//50
usemtl wood_light
f 56//51 60//51 59//51 55//51
usemtl wood_gray
f 53//52 54//52 58//52 57//52
usemtl wood_light
f 61//53 64//53 63//53 62//53
f 65//54 66//54 67//54 68//54
usemtl wood
f 61//55 65//55 68//55 64//55
f 62//56 63//56 67//56 66//56
usemtl wood_light
f 64//57 68//57 67//57 63//57
f 61//58 62//58 66//58 65//58
usemtl wood_dark
f 69//59 72//59 71//59 70//59
f 73//60 74//60 75//60 76//60
f 69//61 73//61 76//61 72//61
f 70//62 71//62 75//62 74//62
f 72//63 76//63 75//63 71//63
f 69//64 70//64 74//64 73//64
usemtl wood_light
f 82//65 81//65 80//65 79//65 78//65 77//65
f 83//66 84//66 85//66 86//66 87//66 88//66
f 77//67 78//67 84//67 83//67
f 78//68 79//68 85//68 84//68
f 79//69 80//69 86//69 85//69
f 80//70 81//70 87//70 86//70
f 81//71 82//71 88//71 87//71
f 82//72 77//72 83//72 88//72
usemtl wood_dark
f 94//73 93//73 92//73 91//73 90//73 89//73
f 95//74 96//74 97//74 98//74 99//74 100//74
f 89//75 90//75 96//75 95//75
f 90//76 91//76 97//76 96//76
f 91//77 92//77 98//77 97//77
f 92//78 93//78 99//78 98//78
f 93//79 94//79 100//79 99//79
f 94//80 89//80 95//80 100//80
usemtl wood_light
f 106//81 105//81 104//81 103//81 102//81 101//81
f 107//82 108//82 109//82 110//82 111//82 112//82
f 101//83 102//83 108//83 107//83
f 102//84 103//84 109//84 108//84
f 103//85 104//85 110//85 109//85
f 104//86 105//86 111//86 110//86
f 105//87 106//87 112//87 111//87
f 106//88 101//88 107//88 112//88
f 118//89 117//89 116//89 115//89 114//89 113//89
f 119//90 120//90 121//90 122//90 123//90 124//90
f 113//91 114//91 120//91 119//91
f 114//92 115//92 121//92 120//92
f 115//93 116//93 122//93 121//93
f 116//94 117//94 123//94 122//94
f 117//95 118//95 124//95 123//95
f 118//96 113//96 119//96 124//96
f 130//97 129//97 128//97 127//97 126//97 125//97
f 131//98 132//98 133//98 134//98 135//98 136//98
f 125//99 126//99 132//99 131//99
f 126//100 127//100 133//100 132//100
f 127//101 128//101 134//101 133//101
f 128//102 129//102 135//102 134//102
f 129//103 130//103 136//103 135//103
f 130//104 125//104 131//104 136//104
usemtl wood_gray
f 142//105 141//105 140//105 139//105 138//105 137//105
f 143//106 144//106 145//106 146//106 147//106 148//106
f 137//107 138//107 144//107 143//107
f 138//108 139//108 145//108 144//108
f 139//109 140//109 146//109 145//109
f 140//110 141//110 147//110 146//110
f 141//111 142//111 148//111 147//111
f 142//112 137//112 143//112 148//112
usemtl wood_dark
f 154//113 153//113 152//113 151//113 150//113 149//113
f 155//114 156//114 157//114 158//114 159//114 160//114
f 149//115 150//115 156//115 155//115
f 150//116 151//116 157//116 156//116
f 151//117 152//117 158//117 157//117
f 152//118 153//118 159//118 158//118
f 153//119 154//119 160//119 159//119
f 154//120 149//120 155//120 160//120
usemtl wood_light
f 166//121 165//121 164//121 163//121 162//121 161//121
f 167//122 168//122 169//122 170//122 171//122 172//122
f 161//123 162//123 168//123 167//123
f 162//124 163//124 169//124 168//124
f 163//125 164//125 170//125 169//125
f 164//126 165//126 171//126 170//126
f 165//127 166//127 172//127 171//127
f 166//128 161//128 167//128 172//128
usemtl wood_dark
f 178//129 177//129 176//129 175//129 174//129 173//129
f 179//130 180//130 181//130 182//130 183//130 184//130
f 173//131 174//131 180//131 179//131
f 174//132 175//132 181//132 180//132
f 175//133 176//133 182//133 181//133
f 176//134 177//134 183//134 182//134
f 177//135 178//135 184//135 183//135
f 178//136 173//136 179//136 184//136
usemtl wood
f 190//137 189//137 188//137 187//137 186//137 185//137
f 191//138 192//138 193//138 194//138 195//138 196//138
f 185//139 186//139 192//139 191//139
f 186//140 187//140 193//140 192//140
f 187//141 188//141 194//141 193//141
f 188//142 189//142 195//142 194//142
f 189//143 190//143 196//143 195//143
f 190//144 185//144 191//144 196//144
usemtl wood_dark
f 202//145 201//145 200//145 199//145 198//145 197//145
f 203//146 204//146 205//146 206//146 207//146 208//146
f 197//147 198//147 204//147 203//147
f 198//148 199//148 205//148 204//148
f 199//149 200//149 206//149 205//149
f 200//150 201//150 207//150 206//150
f 201//151 202//151 208//151 207//151
f 202//152 197//152 203//152 208//152
f 214//153 213//153 212//153 211//153 210//153 209//153
f 215//154 216//154 217//154 218//154 219//154 220//154
f 209//155 210//155 216//155 215//155
f 210//156 211//156 217//156 216//156
f 211//157 212//157 218//157 217//157
f 212//158 213//158 219//158 218//158
f 213//159 214//159 220//159 219//159
f 214//160 209//160 215//160 220//160
usemtl wood_gray
f 226//161 225//161 224//161 223//161 222//161 221//161
f 227//162 228//162 229//162 230//162 231//162 232//162
f 221//163 222//163 228//163 227//163
f 222//164 223//164 229//164 228//164
f 223//165 224//165 230//165 229//165
f 224//166 225//166 231//166 230//166
f 225//167 226//167 232//167 231//167
f 226//168 221//168 227//168 232//168
usemtl wood_light
f 238//169 237//169 236//169 235//169 234//169 233//169
f 239//170 240//170 241//170 242//170 243//170 244//170
f 233//171 234//171 240//171 239//171
f 234//172 235//172 241//172 240//172
f 235//173 236//173 242//173 241//173
f 236//174 237//174 243//174 242//174
f 237//175 238//175 244//175 243//175
f 238//176 233//176 239//176 244//176
f 250//177 249//177 248//177 247//177 246//177 245//177
f 251//178 252//178 253//178 254//178 255//178 256//178
f 245//179 246//179 252//179 251//179
f 246//180 247//180 253//180 252//180
f 247//181 248//181 254//181 253//181
f 248//182 249//182 255//182 254//182
f 249//183 250//183 256//183 255//183
f 250//184 245//184 251//184 256//184
