# gas_meter.obj  Y-up, meters, origin at ground/wall contact
mtllib gas_meter.mtl
v -0.1000 0.2800 0.0000
v -0.1000 0.2800 0.0500
v -0.1000 0.3200 0.0000
v -0.1000 0.3200 0.0500
v 0.1000 0.2800 0.0000
v 0.1000 0.2800 0.0500
v 0.1000 0.3200 0.0000
v 0.1000 0.3200 0.0500
v -0.1300 0.2800 0.0500
v -0.1500 0.3000 0.0500
v -0.1500 0.2800 0.0700
v -0.1300 0.2800 0.2500
v -0.1500 0.3000 0.2500
v -0.1500 0.2800 0.2300
v -0.1300 0.5600 0.0500
v -0.1500 0.5400 0.0500
v -0.1500 0.5600 0.0700
v -0.1300 0.5600 0.2500
v -0.1500 0.5400 0.2500
v -0.1500 0.5600 0.2300
v 0.1300 0.2800 0.0500
v 0.1500 0.3000 0.0500
v 0.1500 0.2800 0.0700
v 0.1300 0.2800 0.2500
v 0.1500 0.3000 0.2500
v 0.1500 0.2800 0.2300
v 0.1300 0.5600 0.0500
v 0.1500 0.5400 0.0500
v 0.1500 0.5600 0.0700
v 0.1300 0.5600 0.2500
v 0.1500 0.5400 0.2500
v 0.1500 0.5600 0.2300
v -0.1400 0.5450 0.0450
v -0.1550 0.5600 0.0450
v -0.1550 0.5450 0.0600
v -0.1400 0.5450 0.2550
v -0.1550 0.5600 0.2550
v -0.1550 0.5450 0.2400
v -0.1400 0.6050 0.0450
v -0.1550 0.5900 0.0450
v -0.1550 0.6050 0.0600
v -0.1400 0.6050 0.2550
v -0.1550 0.5900 0.2550
v -0.1550 0.6050 0.2400
v 0.1400 0.5450 0.0450
v 0.1550 0.5600 0.0450
v 0.1550 0.5450 0.0600
v 0.1400 0.5450 0.2550
v 0.1550 0.5600 0.2550
v 0.1550 0.5450 0.2400
v 0.1400 0.6050 0.0450
v 0.1550 0.5900 0.0450
v 0.1550 0.6050 0.0600
v 0.1400 0.6050 0.2550
v 0.1550 0.5900 0.2550
v 0.1550 0.6050 0.2400
v -0.0700 0.3900 0.2450
v -0.0700 0.3900 0.2650
v -0.0700 0.4900 0.2450
v -0.0700 0.4900 0.2650
v 0.0700 0.3900 0.2450
v 0.0700 0.3900 0.2650
v 0.0700 0.4900 0.2450
v 0.0700 0.4900 0.2650
v -0.0330 0.4400 0.2620
v -0.0365 0.4315 0.2620
v -0.0450 0.4280 0.2620
v -0.0535 0.4315 0.2620
v -0.0570 0.4400 0.2620
v -0.0535 0.4485 0.2620
v -0.0450 0.4520 0.2620
v -0.0365 0.4485 0.2620
v -0.0330 0.4400 0.2700
v -0.0365 0.4315 0.2700
v -0.0450 0.4280 0.2700
v -0.0535 0.4315 0.2700
v -0.0570 0.4400 0.2700
v -0.0535 0.4485 0.2700
v -0.0450 0.4520 0.2700
v -0.0365 0.4485 0.2700
v -0.0030 0.4400 0.2620
v -0.0065 0.4315 0.2620
v -0.0150 0.4280 0.2620
v -0.0235 0.4315 0.2620
v -0.0270 0.4400 0.2620
v -0.0235 0.4485 0.2620
v -0.0150 0.4520 0.2620
v -0.0065 0.4485 0.2620
v -0.0030 0.4400 0.2700
v -0.0065 0.4315 0.2700
v -0.0150 0.4280 0.2700
v -0.0235 0.4315 0.2700
v -0.0270 0.4400 0.2700
v -0.0235 0.4485 0.2700
v -0.0150 0.4520 0.2700
v -0.0065 0.4485 0.2700
v 0.0270 0.4400 0.2620
v 0.0235 0.4315 0.2620
v 0.0150 0.4280 0.2620
v 0.0065 0.4315 0.2620
v 0.0030 0.4400 0.2620
v 0.0065 0.4485 0.2620
v 0.0150 0.4520 0.2620
v 0.0235 0.4485 0.2620
v 0.0270 0.4400 0.2700
v 0.0235 0.4315 0.2700
v 0.0150 0.4280 0.2700
v 0.0065 0.4315 0.2700
v 0.0030 0.4400 0.2700
v 0.0065 0.4485 0.2700
v 0.0150 0.4520 0.2700
v 0.0235 0.4485 0.2700
v 0.0570 0.4400 0.2620
v 0.0535 0.4315 0.2620
v 0.0450 0.4280 0.2620
v 0.0365 0.4315 0.2620
v 0.0330 0.4400 0.2620
v 0.0365 0.4485 0.2620
v 0.0450 0.4520 0.2620
v 0.0535 0.4485 0.2620
v 0.0570 0.4400 0.2700
v 0.0535 0.4315 0.2700
v 0.0450 0.4280 0.2700
v 0.0365 0.4315 0.2700
v 0.0330 0.4400 0.2700
v 0.0365 0.4485 0.2700
v 0.0450 0.4520 0.2700
v 0.0535 0.4485 0.2700
v 0.0650 0.3150 0.2500
v 0.0650 0.3150 0.2560
v 0.0650 0.3450 0.2500
v 0.0650 0.3450 0.2560
v 0.1150 0.3150 0.2500
v 0.1150 0.3150 0.2560
v 0.1150 0.3450 0.2500
v 0.1150 0.3450 0.2560
v -0.2100 0.0000 0.1500
v -0.2157 0.0000 0.1676
v -0.2307 0.0000 0.1785
v -0.2493 0.0000 0.1785
v -0.2643 0.0000 0.1676
v -0.2700 0.0000 0.1500
v -0.2643 0.0000 0.1324
v -0.2493 0.0000 0.1215
v -0.2307 0.0000 0.1215
v -0.2157 0.0000 0.1324
v -0.2100 0.0400 0.1500
v -0.2157 0.0400 0.1676
v -0.2307 0.0400 0.1785
v -0.2493 0.0400 0.1785
v -0.2643 0.0400 0.1676
v -0.2700 0.0400 0.1500
v -0.2643 0.0400 0.1324
v -0.2493 0.0400 0.1215
v -0.2307 0.0400 0.1215
v -0.2157 0.0400 0.1324
v -0.2180 0.0000 0.1500
v -0.2222 0.0000 0.1629
v -0.2332 0.0000 0.1709
v -0.2468 0.0000 0.1709
v -0.2578 0.0000 0.1629
v -0.2620 0.0000 0.1500
v -0.2578 0.0000 0.1371
v -0.2468 0.0000 0.1291
v -0.2332 0.0000 0.1291
v -0.2222 0.0000 0.1371
v -0.2180 0.7700 0.1500
v -0.2222 0.7700 0.1629
v -0.2332 0.7700 0.1709
v -0.2468 0.7700 0.1709
v -0.2578 0.7700 0.1629
v -0.2620 0.7700 0.1500
v -0.2578 0.7700 0.1371
v -0.2468 0.7700 0.1291
v -0.2332 0.7700 0.1291
v -0.2222 0.7700 0.1371
v -0.3000 0.5020 0.1500
v -0.3000 0.5131 0.1841
v -0.3000 0.5421 0.2052
v -0.3000 0.5779 0.2052
v -0.3000 0.6069 0.1841
v -0.3000 0.6180 0.1500
v -0.3000 0.6069 0.1159
v -0.3000 0.5779 0.0948
v -0.3000 0.5421 0.0948
v -0.3000 0.5131 0.1159
v -0.2400 0.5020 0.1500
v -0.2400 0.5131 0.1841
v -0.2400 0.5421 0.2052
v -0.2400 0.5779 0.2052
v -0.2400 0.6069 0.1841
v -0.2400 0.6180 0.1500
v -0.2400 0.6069 0.1159
v -0.2400 0.5779 0.0948
v -0.2400 0.5421 0.0948
v -0.2400 0.5131 0.1159
v -0.2580 0.5750 0.1500
v -0.2615 0.5750 0.1585
v -0.2700 0.5750 0.1620
v -0.2785 0.5750 0.1585
v -0.2820 0.5750 0.1500
v -0.2785 0.5750 0.1415
v -0.2700 0.5750 0.1380
v -0.2615 0.5750 0.1415
v -0.2580 0.6250 0.1500
v -0.2615 0.6250 0.1585
v -0.2700 0.6250 0.1620
v -0.2785 0.6250 0.1585
v -0.2820 0.6250 0.1500
v -0.2785 0.6250 0.1415
v -0.2700 0.6250 0.1380
v -0.2615 0.6250 0.1415
v -0.2400 0.7500 0.1500
v -0.2400 0.7538 0.1618
v -0.2400 0.7638 0.1690
v -0.2400 0.7762 0.1690
v -0.2400 0.7862 0.1618
v -0.2400 0.7900 0.1500
v -0.2400 0.7862 0.1382
v -0.2400 0.7762 0.1310
v -0.2400 0.7638 0.1310
v -0.2400 0.7538 0.1382
v -0.0900 0.7500 0.1500
v -0.0900 0.7538 0.1618
v -0.0900 0.7638 0.1690
v -0.0900 0.7762 0.1690
v -0.0900 0.7862 0.1618
v -0.0900 0.7900 0.1500
v -0.0900 0.7862 0.1382
v -0.0900 0.7762 0.1310
v -0.0900 0.7638 0.1310
v -0.0900 0.7538 0.1382
v -0.0700 0.6050 0.1500
v -0.0738 0.6050 0.1618
v -0.0838 0.6050 0.1690
v -0.0962 0.6050 0.1690
v -0.1062 0.6050 0.1618
v -0.1100 0.6050 0.1500
v -0.1062 0.6050 0.1382
v -0.0962 0.6050 0.1310
v -0.0838 0.6050 0.1310
v -0.0738 0.6050 0.1382
v -0.0700 0.7750 0.1500
v -0.0738 0.7750 0.1618
v -0.0838 0.7750 0.1690
v -0.0962 0.7750 0.1690
v -0.1062 0.7750 0.1618
v -0.1100 0.7750 0.1500
v -0.1062 0.7750 0.1382
v -0.0962 0.7750 0.1310
v -0.0838 0.7750 0.1310
v -0.0738 0.7750 0.1382
v -0.0550 0.6350 0.1500
v -0.0653 0.6350 0.1747
v -0.0900 0.6350 0.1850
v -0.1147 0.6350 0.1747
v -0.1250 0.6350 0.1500
v -0.1147 0.6350 0.1253
v -0.0900 0.6350 0.1150
v -0.0653 0.6350 0.1253
v -0.0550 0.6850 0.1500
v -0.0653 0.6850 0.1747
v -0.0900 0.6850 0.1850
v -0.1147 0.6850 0.1747
v -0.1250 0.6850 0.1500
v -0.1147 0.6850 0.1253
v -0.0900 0.6850 0.1150
v -0.0653 0.6850 0.1253
v -0.1050 0.7400 0.1200
v -0.1200 0.7550 0.1200
v -0.1200 0.7400 0.1350
v -0.1050 0.7400 0.1800
v -0.1200 0.7550 0.1800
v -0.1200 0.7400 0.1650
v -0.1050 0.8000 0.1200
v -0.1200 0.7850 0.1200
v -0.1200 0.8000 0.1350
v -0.1050 0.8000 0.1800
v -0.1200 0.7850 0.1800
v -0.1200 0.8000 0.1650
v -0.0750 0.7400 0.1200
v -0.0600 0.7550 0.1200
v -0.0600 0.7400 0.1350
v -0.0750 0.7400 0.1800
v -0.0600 0.7550 0.1800
v -0.0600 0.7400 0.1650
v -0.0750 0.8000 0.1200
v -0.0600 0.7850 0.1200
v -0.0600 0.8000 0.1350
v -0.0750 0.8000 0.1800
v -0.0600 0.7850 0.1800
v -0.0600 0.8000 0.1650
v 0.1100 0.6050 0.1500
v 0.1062 0.6050 0.1618
v 0.0962 0.6050 0.1690
v 0.0838 0.6050 0.1690
v 0.0738 0.6050 0.1618
v 0.0700 0.6050 0.1500
v 0.0738 0.6050 0.1382
v 0.0838 0.6050 0.1310
v 0.0962 0.6050 0.1310
v 0.1062 0.6050 0.1382
v 0.1100 0.7750 0.1500
v 0.1062 0.7750 0.1618
v 0.0962 0.7750 0.1690
v 0.0838 0.7750 0.1690
v 0.0738 0.7750 0.1618
v 0.0700 0.7750 0.1500
v 0.0738 0.7750 0.1382
v 0.0838 0.7750 0.1310
v 0.0962 0.7750 0.1310
v 0.1062 0.7750 0.1382
v 0.1250 0.6350 0.1500
v 0.1147 0.6350 0.1747
v 0.0900 0.6350 0.1850
v 0.0653 0.6350 0.1747
v 0.0550 0.6350 0.1500
v 0.0653 0.6350 0.1253
v 0.0900 0.6350 0.1150
v 0.1147 0.6350 0.1253
v 0.1250 0.6850 0.1500
v 0.1147 0.6850 0.1747
v 0.0900 0.6850 0.1850
v 0.0653 0.6850 0.1747
v 0.0550 0.6850 0.1500
v 0.0653 0.6850 0.1253
v 0.0900 0.6850 0.1150
v 0.1147 0.6850 0.1253
v 0.0750 0.7400 0.1200
v 0.0600 0.7550 0.1200
v 0.0600 0.7400 0.1350
v 0.0750 0.7400 0.1800
v 0.0600 0.7550 0.1800
v 0.0600 0.7400 0.1650
v 0.0750 0.8000 0.1200
v 0.0600 0.7850 0.1200
v 0.0600 0.8000 0.1350
v 0.0750 0.8000 0.1800
v 0.0600 0.7850 0.1800
v 0.0600 0.8000 0.1650
v 0.1050 0.7400 0.1200
v 0.1200 0.7550 0.1200
v 0.1200 0.7400 0.1350
v 0.1050 0.7400 0.1800
v 0.1200 0.7550 0.1800
v 0.1200 0.7400 0.1650
v 0.1050 0.8000 0.1200
v 0.1200 0.7850 0.1200
v 0.1200 0.8000 0.1350
v 0.1050 0.8000 0.1800
v 0.1200 0.7850 0.1800
v 0.1200 0.8000 0.1650
v 0.1100 0.7700 -0.0200
v 0.1062 0.7582 -0.0200
v 0.0962 0.7510 -0.0200
v 0.0838 0.7510 -0.0200
v 0.0738 0.7582 -0.0200
v 0.0700 0.7700 -0.0200
v 0.0738 0.7818 -0.0200
v 0.0838 0.7890 -0.0200
v 0.0962 0.7890 -0.0200
v 0.1062 0.7818 -0.0200
v 0.1100 0.7700 0.1500
v 0.1062 0.7582 0.1500
v 0.0962 0.7510 0.1500
v 0.0838 0.7510 0.1500
v 0.0738 0.7582 0.1500
v 0.0700 0.7700 0.1500
v 0.0738 0.7818 0.1500
v 0.0838 0.7890 0.1500
v 0.0962 0.7890 0.1500
v 0.1062 0.7818 0.1500
usemtl gas_meter_dark
f 1 3 7
f 7 5 1
f 1 5 6
f 6 2 1
f 5 7 6
f 6 7 8
f 4 3 1
f 1 2 4
f 4 7 3
f 8 7 4
f 2 6 4
f 4 6 8
f 34 33 35
f 40 41 39
f 51 53 52
f 43 42 44
f 54 55 56
f 47 45 46
f 48 50 49
f 37 38 36
f 52 33 34
f 46 45 52
f 34 40 52
f 39 51 52
f 52 45 33
f 52 40 39
f 56 51 39
f 56 42 54
f 39 41 56
f 56 41 44
f 44 42 56
f 56 53 51
f 33 45 47
f 47 48 36
f 47 35 33
f 36 38 47
f 47 38 35
f 47 50 48
f 46 52 49
f 49 52 53
f 53 56 49
f 50 47 49
f 49 56 55
f 49 47 46
f 36 48 37
f 54 42 37
f 37 55 54
f 48 49 37
f 42 43 37
f 37 49 55
f 44 41 37
f 34 35 37
f 35 38 37
f 37 40 34
f 41 40 37
f 37 43 44
f 188 178 177
f 177 187 188
f 184 183 194
f 194 183 193
f 194 185 184
f 195 185 194
f 177 186 196
f 196 187 177
f 186 185 196
f 196 185 195
f 180 186 177
f 182 183 180
f 177 178 180
f 180 181 182
f 180 183 184
f 180 178 179
f 184 185 180
f 180 185 186
f 192 183 182
f 193 183 192
f 189 180 179
f 190 180 189
f 179 178 189
f 178 188 189
f 191 194 193
f 187 196 191
f 191 188 187
f 193 192 191
f 195 194 191
f 191 196 195
f 190 189 191
f 191 189 188
f 181 180 191
f 191 180 190
f 182 181 191
f 191 192 182
usemtl gas_meter_body
f 10 9 11
f 15 16 17
f 22 23 21
f 27 29 28
f 12 13 14
f 19 18 20
f 25 24 26
f 30 31 32
f 28 9 10
f 22 21 28
f 10 16 28
f 15 27 28
f 28 16 15
f 28 21 9
f 12 24 31
f 30 18 31
f 31 13 12
f 31 18 19
f 19 13 31
f 31 24 25
f 20 16 10
f 10 11 20
f 20 13 19
f 11 14 20
f 20 17 16
f 20 14 13
f 26 11 9
f 26 24 12
f 9 21 26
f 26 21 23
f 12 14 26
f 26 14 11
f 32 27 15
f 17 20 32
f 32 18 30
f 32 29 27
f 15 17 32
f 32 20 18
f 32 31 25
f 32 23 22
f 22 28 32
f 32 28 29
f 25 26 32
f 32 26 23
usemtl meter_face
f 57 59 63
f 63 61 57
f 57 61 62
f 62 58 57
f 61 63 62
f 62 63 64
f 60 59 57
f 57 58 60
f 60 63 59
f 64 63 60
f 58 62 60
f 60 62 64
usemtl dial_dark
f 74 66 65
f 65 73 74
f 70 72 65
f 65 66 70
f 70 68 69
f 70 66 67
f 67 68 70
f 71 72 70
f 69 68 77
f 77 68 76
f 77 70 69
f 78 70 77
f 79 70 78
f 71 70 79
f 75 68 67
f 76 68 75
f 67 66 75
f 66 74 75
f 80 77 76
f 80 74 73
f 76 75 80
f 78 77 80
f 80 79 78
f 80 75 74
f 65 72 80
f 80 73 65
f 80 72 71
f 71 79 80
f 90 82 81
f 81 89 90
f 86 88 81
f 81 82 86
f 86 84 85
f 86 82 83
f 83 84 86
f 87 88 86
f 85 84 93
f 93 84 92
f 93 86 85
f 94 86 93
f 95 86 94
f 87 86 95
f 91 84 83
f 92 84 91
f 83 82 91
f 82 90 91
f 96 93 92
f 96 90 89
f 92 91 96
f 94 93 96
f 96 95 94
f 96 91 90
f 81 88 96
f 96 89 81
f 96 88 87
f 87 95 96
f 106 98 97
f 97 105 106
f 102 104 97
f 97 98 102
f 102 100 101
f 102 98 99
f 99 100 102
f 103 104 102
f 101 100 109
f 109 100 108
f 109 102 101
f 110 102 109
f 111 102 110
f 103 102 111
f 107 100 99
f 108 100 107
f 99 98 107
f 98 106 107
f 112 109 108
f 112 106 105
f 108 107 112
f 110 109 112
f 112 111 110
f 112 107 106
f 97 104 112
f 112 105 97
f 112 104 103
f 103 111 112
f 122 114 113
f 113 121 122
f 118 120 113
f 113 114 118
f 118 116 117
f 118 114 115
f 115 116 118
f 119 120 118
f 117 116 125
f 125 116 124
f 125 118 117
f 126 118 125
f 127 118 126
f 119 118 127
f 123 116 115
f 124 116 123
f 115 114 123
f 114 122 123
f 128 125 124
f 128 122 121
f 124 123 128
f 126 125 128
f 128 127 126
f 128 123 122
f 113 120 128
f 128 121 113
f 128 120 119
f 119 127 128
usemtl label_yellow
f 129 131 135
f 135 133 129
f 129 133 134
f 134 130 129
f 133 135 134
f 134 135 136
f 132 131 129
f 129 130 132
f 132 135 131
f 136 135 132
f 130 134 132
f 132 134 136
usemtl gas_iron
f 152 143 142
f 153 143 152
f 148 138 137
f 137 147 148
f 144 143 154
f 154 143 153
f 154 145 144
f 155 145 154
f 137 146 156
f 156 147 137
f 146 145 156
f 156 145 155
f 137 138 141
f 141 146 137
f 142 143 141
f 144 145 141
f 141 143 144
f 141 138 139
f 139 140 141
f 141 145 146
f 149 140 139
f 150 140 149
f 139 138 149
f 138 148 149
f 153 152 151
f 151 154 153
f 151 148 147
f 150 149 151
f 147 156 151
f 155 154 151
f 151 156 155
f 151 149 148
f 151 141 140
f 151 140 150
f 151 152 142
f 142 141 151
f 172 163 162
f 173 163 172
f 170 160 169
f 169 160 159
f 157 166 176
f 176 167 157
f 176 166 165
f 165 175 176
f 164 163 174
f 174 163 173
f 174 165 164
f 174 175 165
f 161 166 157
f 157 158 161
f 162 163 161
f 164 165 161
f 161 163 164
f 161 158 159
f 165 166 161
f 159 160 161
f 168 158 157
f 157 167 168
f 159 158 168
f 168 169 159
f 173 172 171
f 170 169 171
f 167 176 171
f 171 168 167
f 171 174 173
f 171 176 175
f 175 174 171
f 169 168 171
f 171 160 170
f 171 161 160
f 171 172 162
f 162 161 171
f 203 202 211
f 211 202 210
f 197 198 200
f 200 204 197
f 201 202 200
f 203 204 200
f 200 202 203
f 200 198 199
f 209 202 201
f 210 202 209
f 201 200 209
f 209 200 208
f 206 198 197
f 197 205 206
f 197 204 212
f 212 205 197
f 212 204 203
f 203 211 212
f 210 209 207
f 207 206 205
f 207 211 210
f 207 209 208
f 205 212 207
f 207 212 211
f 208 200 207
f 207 200 199
f 199 198 207
f 198 206 207
f 224 214 213
f 213 223 224
f 215 214 224
f 224 225 215
f 215 225 216
f 225 226 216
f 216 226 227
f 227 217 216
f 213 222 232
f 232 223 213
f 213 214 219
f 219 217 218
f 215 216 219
f 219 214 215
f 220 221 219
f 219 222 213
f 219 221 222
f 219 216 217
f 219 229 230
f 219 230 220
f 218 217 228
f 228 217 227
f 228 219 218
f 229 219 228
f 231 224 223
f 223 232 231
f 227 226 231
f 225 224 231
f 231 226 225
f 230 229 231
f 231 228 227
f 229 228 231
f 231 221 220
f 220 230 231
f 222 221 231
f 231 232 222
f 244 234 233
f 233 243 244
f 235 234 244
f 244 245 235
f 238 237 248
f 248 237 247
f 248 239 238
f 249 239 248
f 237 236 246
f 247 237 246
f 235 245 246
f 246 236 235
f 235 236 241
f 233 234 241
f 241 237 238
f 241 234 235
f 241 242 233
f 238 239 241
f 241 236 237
f 241 239 240
f 233 242 252
f 252 243 233
f 242 241 252
f 252 241 251
f 247 246 250
f 250 248 247
f 250 244 243
f 245 244 250
f 249 248 250
f 243 252 250
f 250 246 245
f 250 252 251
f 250 239 249
f 240 239 250
f 250 241 240
f 251 241 250
f 270 269 271
f 276 277 275
f 289 288 287
f 282 283 281
f 286 285 284
f 273 274 272
f 292 290 291
f 279 278 280
f 281 269 270
f 281 288 282
f 275 287 281
f 270 276 281
f 281 276 275
f 281 287 288
f 286 284 272
f 272 274 286
f 286 271 269
f 269 281 286
f 286 274 271
f 286 281 283
f 278 285 291
f 291 290 278
f 272 284 278
f 284 285 278
f 278 273 272
f 279 273 278
f 292 286 283
f 282 288 292
f 292 288 289
f 291 285 292
f 292 283 282
f 285 286 292
f 271 274 280
f 270 271 280
f 280 273 279
f 280 276 270
f 277 276 280
f 274 273 280
f 275 277 280
f 280 278 290
f 280 287 275
f 289 287 280
f 280 292 289
f 290 292 280
f 304 294 293
f 293 303 304
f 295 294 304
f 304 305 295
f 298 297 308
f 308 297 307
f 308 299 298
f 309 299 308
f 297 296 306
f 307 297 306
f 295 305 306
f 306 296 295
f 295 296 301
f 293 294 301
f 301 297 298
f 301 294 295
f 301 302 293
f 298 299 301
f 301 296 297
f 301 299 300
f 293 302 312
f 312 303 293
f 302 301 312
f 312 301 311
f 307 306 310
f 310 308 307
f 310 304 303
f 305 304 310
f 309 308 310
f 303 312 310
f 310 306 305
f 310 312 311
f 310 299 309
f 300 299 310
f 310 301 300
f 311 301 310
f 330 329 331
f 336 337 335
f 349 348 347
f 342 343 341
f 346 345 344
f 333 334 332
f 352 350 351
f 339 338 340
f 341 329 330
f 341 348 342
f 335 347 341
f 330 336 341
f 341 336 335
f 341 347 348
f 346 344 332
f 332 334 346
f 346 331 329
f 329 341 346
f 346 334 331
f 346 341 343
f 338 345 351
f 351 350 338
f 332 344 338
f 344 345 338
f 338 333 332
f 339 333 338
f 352 346 343
f 342 348 352
f 352 348 349
f 351 345 352
f 352 343 342
f 345 346 352
f 331 334 340
f 330 331 340
f 340 333 339
f 340 336 330
f 337 336 340
f 334 333 340
f 335 337 340
f 340 338 350
f 340 347 335
f 349 347 340
f 340 352 349
f 350 352 340
f 367 368 357
f 357 368 358
f 364 354 353
f 353 363 364
f 364 365 355
f 355 354 364
f 366 356 355
f 355 365 366
f 367 357 366
f 366 357 356
f 353 354 361
f 361 362 353
f 361 354 355
f 355 356 361
f 361 357 358
f 356 357 361
f 358 359 361
f 361 359 360
f 358 368 369
f 369 359 358
f 360 359 369
f 370 360 369
f 371 361 360
f 371 360 370
f 372 368 367
f 370 369 372
f 372 364 363
f 367 366 372
f 365 364 372
f 372 366 365
f 372 369 368
f 372 371 370
f 372 363 353
f 353 362 372
f 361 371 372
f 362 361 372
usemtl gas_pipe
f 253 260 268
f 268 261 253
f 253 254 256
f 256 260 253
f 257 258 256
f 259 260 256
f 256 258 259
f 256 254 255
f 265 258 257
f 266 258 265
f 257 256 265
f 265 256 264
f 262 254 253
f 253 261 262
f 259 258 267
f 267 258 266
f 267 260 259
f 267 268 260
f 266 265 263
f 261 268 263
f 263 262 261
f 263 265 264
f 263 267 266
f 268 267 263
f 264 256 263
f 263 256 255
f 255 254 263
f 254 262 263
f 313 320 328
f 328 321 313
f 313 314 316
f 316 320 313
f 317 318 316
f 319 320 316
f 316 318 319
f 316 314 315
f 325 318 317
f 326 318 325
f 317 316 325
f 325 316 324
f 322 314 313
f 313 321 322
f 319 318 327
f 327 318 326
f 327 320 319
f 327 328 320
f 326 325 323
f 321 328 323
f 323 322 321
f 323 325 324
f 323 327 326
f 328 327 323
f 324 316 323
f 323 316 315
f 315 314 323
f 314 322 323
