# house_ranch.obj  Y-up, meters, origin at ground/wall contact
mtllib house_ranch.mtl
v -7.0900 0.0000 -5.1000
v -7.1000 0.0100 -5.1000
v -7.1000 0.0000 -5.0900
v -7.0900 0.0000 5.1000
v -7.1000 0.0100 5.1000
v -7.1000 0.0000 5.0900
v -7.0900 0.1600 -5.1000
v -7.1000 0.1500 -5.1000
v -7.1000 0.1600 -5.0900
v -7.0900 0.1600 5.1000
v -7.1000 0.1500 5.1000
v -7.1000 0.1600 5.0900
v 7.0900 0.0000 -5.1000
v 7.1000 0.0100 -5.1000
v 7.1000 0.0000 -5.0900
v 7.0900 0.0000 5.1000
v 7.1000 0.0100 5.1000
v 7.1000 0.0000 5.0900
v 7.0900 0.1600 -5.1000
v 7.1000 0.1500 -5.1000
v 7.1000 0.1600 -5.0900
v 7.0900 0.1600 5.1000
v 7.1000 0.1500 5.1000
v 7.1000 0.1600 5.0900
v -7.0000 0.1600 -5.0000
v -7.0000 0.1600 5.0000
v -7.0000 2.8600 -5.0000
v -7.0000 2.8600 5.0000
v 7.0000 0.1600 -5.0000
v 7.0000 0.1600 5.0000
v 7.0000 2.8600 -5.0000
v 7.0000 2.8600 5.0000
v -7.0000 2.8400 -5.0000
v -7.0000 2.8400 5.0000
v -7.0000 5.3400 0.0000
v 7.0000 2.8400 -5.0000
v 7.0000 2.8400 5.0000
v 7.0000 5.3400 0.0000
v -7.0400 0.1600 -5.0400
v -7.0400 0.1600 -4.9200
v -7.0400 2.8600 -5.0400
v -7.0400 2.8600 -4.9200
v -6.9200 0.1600 -5.0400
v -6.9200 0.1600 -4.9200
v -6.9200 2.8600 -5.0400
v -6.9200 2.8600 -4.9200
v -7.0400 0.1600 4.9200
v -7.0400 0.1600 5.0400
v -7.0400 2.8600 4.9200
v -7.0400 2.8600 5.0400
v -6.9200 0.1600 4.9200
v -6.9200 0.1600 5.0400
v -6.9200 2.8600 4.9200
v -6.9200 2.8600 5.0400
v 6.9200 0.1600 -5.0400
v 6.9200 0.1600 -4.9200
v 6.9200 2.8600 -5.0400
v 6.9200 2.8600 -4.9200
v 7.0400 0.1600 -5.0400
v 7.0400 0.1600 -4.9200
v 7.0400 2.8600 -5.0400
v 7.0400 2.8600 -4.9200
v 6.9200 0.1600 4.9200
v 6.9200 0.1600 5.0400
v 6.9200 2.8600 4.9200
v 6.9200 2.8600 5.0400
v 7.0400 0.1600 4.9200
v 7.0400 0.1600 5.0400
v 7.0400 2.8600 4.9200
v 7.0400 2.8600 5.0400
v -7.4300 2.6370 -5.4900
v -7.4300 5.3600 0.0000
v -7.4300 2.4770 -5.4900
v -7.4300 5.2000 0.0000
v 7.4300 2.6370 -5.4900
v 7.4300 5.3600 0.0000
v 7.4300 2.4770 -5.4900
v 7.4300 5.2000 0.0000
v -7.4500 2.4700 -5.5100
v -7.4500 2.4700 -5.3900
v -7.4500 2.6300 -5.5100
v -7.4500 2.6300 -5.3900
v 7.4500 2.4700 -5.5100
v 7.4500 2.4700 -5.3900
v 7.4500 2.6300 -5.5100
v 7.4500 2.6300 -5.3900
v -7.4500 2.4070 -5.5100
v -7.4500 2.6070 -5.5100
v -7.3000 2.4070 -5.5100
v -7.3000 2.6070 -5.5100
v -7.4500 5.1400 0.0000
v -7.4500 5.3400 0.0000
v -7.3000 5.1400 0.0000
v -7.3000 5.3400 0.0000
v 7.4500 2.4070 -5.5100
v 7.4500 2.6070 -5.5100
v 7.3000 2.4070 -5.5100
v 7.3000 2.6070 -5.5100
v 7.4500 5.1400 0.0000
v 7.4500 5.3400 0.0000
v 7.3000 5.1400 0.0000
v 7.3000 5.3400 0.0000
v -7.4300 2.6370 5.4900
v -7.4300 5.3600 0.0000
v -7.4300 2.4770 5.4900
v -7.4300 5.2000 0.0000
v 7.4300 2.6370 5.4900
v 7.4300 5.3600 0.0000
v 7.4300 2.4770 5.4900
v 7.4300 5.2000 0.0000
v -7.4500 2.4700 5.3900
v -7.4500 2.4700 5.5100
v -7.4500 2.6300 5.3900
v -7.4500 2.6300 5.5100
v 7.4500 2.4700 5.3900
v 7.4500 2.4700 5.5100
v 7.4500 2.6300 5.3900
v 7.4500 2.6300 5.5100
v -7.4500 2.4070 5.5100
v -7.4500 2.6070 5.5100
v -7.3000 2.4070 5.5100
v -7.3000 2.6070 5.5100
v -7.4500 5.1400 0.0000
v -7.4500 5.3400 0.0000
v -7.3000 5.1400 0.0000
v -7.3000 5.3400 0.0000
v 7.4500 2.4070 5.5100
v 7.4500 2.6070 5.5100
v 7.3000 2.4070 5.5100
v 7.3000 2.6070 5.5100
v 7.4500 5.1400 0.0000
v 7.4500 5.3400 0.0000
v 7.3000 5.1400 0.0000
v 7.3000 5.3400 0.0000
v -7.4500 5.3000 -0.1500
v -7.4500 5.3000 0.1500
v -7.4500 5.3600 -0.1500
v -7.4500 5.3600 0.1500
v 7.4500 5.3000 -0.1500
v 7.4500 5.3000 0.1500
v 7.4500 5.3600 -0.1500
v 7.4500 5.3600 0.1500
v -6.8500 0.2000 -5.0800
v -6.8646 0.2000 -5.0446
v -6.9000 0.2000 -5.0300
v -6.9354 0.2000 -5.0446
v -6.9500 0.2000 -5.0800
v -6.9354 0.2000 -5.1154
v -6.9000 0.2000 -5.1300
v -6.8646 0.2000 -5.1154
v -6.8500 2.5000 -5.0800
v -6.8646 2.5000 -5.0446
v -6.9000 2.5000 -5.0300
v -6.9354 2.5000 -5.0446
v -6.9500 2.5000 -5.0800
v -6.9354 2.5000 -5.1154
v -6.9000 2.5000 -5.1300
v -6.8646 2.5000 -5.1154
v -6.8500 0.2000 5.0800
v -6.8646 0.2000 5.1154
v -6.9000 0.2000 5.1300
v -6.9354 0.2000 5.1154
v -6.9500 0.2000 5.0800
v -6.9354 0.2000 5.0446
v -6.9000 0.2000 5.0300
v -6.8646 0.2000 5.0446
v -6.8500 2.5000 5.0800
v -6.8646 2.5000 5.1154
v -6.9000 2.5000 5.1300
v -6.9354 2.5000 5.1154
v -6.9500 2.5000 5.0800
v -6.9354 2.5000 5.0446
v -6.9000 2.5000 5.0300
v -6.8646 2.5000 5.0446
v 6.9500 0.2000 -5.0800
v 6.9354 0.2000 -5.0446
v 6.9000 0.2000 -5.0300
v 6.8646 0.2000 -5.0446
v 6.8500 0.2000 -5.0800
v 6.8646 0.2000 -5.1154
v 6.9000 0.2000 -5.1300
v 6.9354 0.2000 -5.1154
v 6.9500 2.5000 -5.0800
v 6.9354 2.5000 -5.0446
v 6.9000 2.5000 -5.0300
v 6.8646 2.5000 -5.0446
v 6.8500 2.5000 -5.0800
v 6.8646 2.5000 -5.1154
v 6.9000 2.5000 -5.1300
v 6.9354 2.5000 -5.1154
v 6.9500 0.2000 5.0800
v 6.9354 0.2000 5.1154
v 6.9000 0.2000 5.1300
v 6.8646 0.2000 5.1154
v 6.8500 0.2000 5.0800
v 6.8646 0.2000 5.0446
v 6.9000 0.2000 5.0300
v 6.9354 0.2000 5.0446
v 6.9500 2.5000 5.0800
v 6.9354 2.5000 5.1154
v 6.9000 2.5000 5.1300
v 6.8646 2.5000 5.1154
v 6.8500 2.5000 5.0800
v 6.8646 2.5000 5.0446
v 6.9000 2.5000 5.0300
v 6.9354 2.5000 5.0446
v 4.0700 3.7600 -1.8500
v 4.0500 3.7800 -1.8500
v 4.0500 3.7600 -1.8300
v 4.0700 3.7600 -1.1500
v 4.0500 3.7800 -1.1500
v 4.0500 3.7600 -1.1700
v 4.0700 5.3600 -1.8500
v 4.0500 5.3400 -1.8500
v 4.0500 5.3600 -1.8300
v 4.0700 5.3600 -1.1500
v 4.0500 5.3400 -1.1500
v 4.0500 5.3600 -1.1700
v 4.9300 3.7600 -1.8500
v 4.9500 3.7800 -1.8500
v 4.9500 3.7600 -1.8300
v 4.9300 3.7600 -1.1500
v 4.9500 3.7800 -1.1500
v 4.9500 3.7600 -1.1700
v 4.9300 5.3600 -1.8500
v 4.9500 5.3400 -1.8500
v 4.9500 5.3600 -1.8300
v 4.9300 5.3600 -1.1500
v 4.9500 5.3400 -1.1500
v 4.9500 5.3600 -1.1700
v 4.0000 5.2800 -1.9000
v 4.0000 5.2800 -1.1000
v 4.0000 5.3600 -1.9000
v 4.0000 5.3600 -1.1000
v 5.0000 5.2800 -1.9000
v 5.0000 5.2800 -1.1000
v 5.0000 5.3600 -1.9000
v 5.0000 5.3600 -1.1000
v -6.0000 1.1000 5.0000
v -6.0000 1.1000 5.0300
v -6.0000 2.4000 5.0000
v -6.0000 2.4000 5.0300
v -4.6000 1.1000 5.0000
v -4.6000 1.1000 5.0300
v -4.6000 2.4000 5.0000
v -4.6000 2.4000 5.0300
v -6.0800 2.4000 5.0000
v -6.0800 2.4000 5.0500
v -6.0800 2.4800 5.0000
v -6.0800 2.4800 5.0500
v -4.5200 2.4000 5.0000
v -4.5200 2.4000 5.0500
v -4.5200 2.4800 5.0000
v -4.5200 2.4800 5.0500
v -6.0800 1.1000 5.0000
v -6.0800 1.1000 5.0500
v -6.0800 2.4000 5.0000
v -6.0800 2.4000 5.0500
v -6.0000 1.1000 5.0000
v -6.0000 1.1000 5.0500
v -6.0000 2.4000 5.0000
v -6.0000 2.4000 5.0500
v -4.6000 1.1000 5.0000
v -4.6000 1.1000 5.0500
v -4.6000 2.4000 5.0000
v -4.6000 2.4000 5.0500
v -4.5200 1.1000 5.0000
v -4.5200 1.1000 5.0500
v -4.5200 2.4000 5.0000
v -4.5200 2.4000 5.0500
v -5.3250 1.1000 5.0000
v -5.3250 1.1000 5.0400
v -5.3250 2.4000 5.0000
v -5.3250 2.4000 5.0400
v -5.2750 1.1000 5.0000
v -5.2750 1.1000 5.0400
v -5.2750 2.4000 5.0000
v -5.2750 2.4000 5.0400
v -6.1200 1.0200 5.0000
v -6.1200 1.0200 5.0600
v -6.1200 1.1000 5.0000
v -6.1200 1.1000 5.0600
v -4.4800 1.0200 5.0000
v -4.4800 1.0200 5.0600
v -4.4800 1.1000 5.0000
v -4.4800 1.1000 5.0600
v -6.4500 1.0400 5.0000
v -6.4500 1.0400 5.0400
v -6.4500 2.4600 5.0000
v -6.4500 2.4600 5.0400
v -6.1300 1.0400 5.0000
v -6.1300 1.0400 5.0400
v -6.1300 2.4600 5.0000
v -6.1300 2.4600 5.0400
v -4.4700 1.0400 5.0000
v -4.4700 1.0400 5.0400
v -4.4700 2.4600 5.0000
v -4.4700 2.4600 5.0400
v -4.1500 1.0400 5.0000
v -4.1500 1.0400 5.0400
v -4.1500 2.4600 5.0000
v -4.1500 2.4600 5.0400
v -3.9000 1.1000 5.0000
v -3.9000 1.1000 5.0300
v -3.9000 2.4000 5.0000
v -3.9000 2.4000 5.0300
v -2.5000 1.1000 5.0000
v -2.5000 1.1000 5.0300
v -2.5000 2.4000 5.0000
v -2.5000 2.4000 5.0300
v -3.9800 2.4000 5.0000
v -3.9800 2.4000 5.0500
v -3.9800 2.4800 5.0000
v -3.9800 2.4800 5.0500
v -2.4200 2.4000 5.0000
v -2.4200 2.4000 5.0500
v -2.4200 2.4800 5.0000
v -2.4200 2.4800 5.0500
v -3.9800 1.1000 5.0000
v -3.9800 1.1000 5.0500
v -3.9800 2.4000 5.0000
v -3.9800 2.4000 5.0500
v -3.9000 1.1000 5.0000
v -3.9000 1.1000 5.0500
v -3.9000 2.4000 5.0000
v -3.9000 2.4000 5.0500
v -2.5000 1.1000 5.0000
v -2.5000 1.1000 5.0500
v -2.5000 2.4000 5.0000
v -2.5000 2.4000 5.0500
v -2.4200 1.1000 5.0000
v -2.4200 1.1000 5.0500
v -2.4200 2.4000 5.0000
v -2.4200 2.4000 5.0500
v -3.2250 1.1000 5.0000
v -3.2250 1.1000 5.0400
v -3.2250 2.4000 5.0000
v -3.2250 2.4000 5.0400
v -3.1750 1.1000 5.0000
v -3.1750 1.1000 5.0400
v -3.1750 2.4000 5.0000
v -3.1750 2.4000 5.0400
v -4.0200 1.0200 5.0000
v -4.0200 1.0200 5.0600
v -4.0200 1.1000 5.0000
v -4.0200 1.1000 5.0600
v -2.3800 1.0200 5.0000
v -2.3800 1.0200 5.0600
v -2.3800 1.1000 5.0000
v -2.3800 1.1000 5.0600
v -4.3500 1.0400 5.0000
v -4.3500 1.0400 5.0400
v -4.3500 2.4600 5.0000
v -4.3500 2.4600 5.0400
v -4.0300 1.0400 5.0000
v -4.0300 1.0400 5.0400
v -4.0300 2.4600 5.0000
v -4.0300 2.4600 5.0400
v -2.3700 1.0400 5.0000
v -2.3700 1.0400 5.0400
v -2.3700 2.4600 5.0000
v -2.3700 2.4600 5.0400
v -2.0500 1.0400 5.0000
v -2.0500 1.0400 5.0400
v -2.0500 2.4600 5.0000
v -2.0500 2.4600 5.0400
v -1.5750 0.1600 5.0000
v -1.5750 0.1600 5.0500
v -1.5750 2.4100 5.0000
v -1.5750 2.4100 5.0500
v -0.4250 0.1600 5.0000
v -0.4250 0.1600 5.0500
v -0.4250 2.4100 5.0000
v -0.4250 2.4100 5.0500
v -1.4750 0.1600 5.0000
v -1.4750 0.1600 5.0600
v -1.4750 2.2600 5.0000
v -1.4750 2.2600 5.0600
v -0.5250 0.1600 5.0000
v -0.5250 0.1600 5.0600
v -0.5250 2.2600 5.0000
v -0.5250 2.2600 5.0600
v -1.2250 1.3000 5.0600
v -1.2250 1.3000 5.0800
v -1.2250 2.2000 5.0600
v -1.2250 2.2000 5.0800
v -0.7750 1.3000 5.0600
v -0.7750 1.3000 5.0800
v -0.7750 2.2000 5.0600
v -0.7750 2.2000 5.0800
v -0.5800 1.1500 5.0600
v -0.5917 1.1217 5.0600
v -0.6200 1.1100 5.0600
v -0.6483 1.1217 5.0600
v -0.6600 1.1500 5.0600
v -0.6483 1.1783 5.0600
v -0.6200 1.1900 5.0600
v -0.5917 1.1783 5.0600
v -0.5800 1.1500 5.0900
v -0.5917 1.1217 5.0900
v -0.6200 1.1100 5.0900
v -0.6483 1.1217 5.0900
v -0.6600 1.1500 5.0900
v -0.6483 1.1783 5.0900
v -0.6200 1.1900 5.0900
v -0.5917 1.1783 5.0900
v -1.7000 0.0000 5.0000
v -1.7000 0.0000 5.5000
v -1.7000 0.1400 5.0000
v -1.7000 0.1400 5.5000
v -0.3000 0.0000 5.0000
v -0.3000 0.0000 5.5000
v -0.3000 0.1400 5.0000
v -0.3000 0.1400 5.5000
v -1.9000 2.5500 5.0000
v -1.9000 2.9500 5.0000
v -1.9000 2.4500 5.5000
v -1.9000 2.6000 5.5000
v -0.1000 2.5500 5.0000
v -0.1000 2.9500 5.0000
v -0.1000 2.4500 5.5000
v -0.1000 2.6000 5.5000
v 1.0000 0.1600 5.0000
v 1.0000 0.1600 5.0500
v 1.0000 2.5600 5.0000
v 1.0000 2.5600 5.0500
v 6.2000 0.1600 5.0000
v 6.2000 0.1600 5.0500
v 6.2000 2.5600 5.0000
v 6.2000 2.5600 5.0500
v 1.1000 0.1600 5.0050
v 1.1000 0.1600 5.0550
v 1.1000 2.3600 5.0050
v 1.1000 2.3600 5.0550
v 6.1000 0.1600 5.0050
v 6.1000 0.1600 5.0550
v 6.1000 2.3600 5.0050
v 6.1000 2.3600 5.0550
v 1.1000 0.6900 5.0000
v 1.1000 0.6900 5.0600
v 1.1000 0.7300 5.0000
v 1.1000 0.7300 5.0600
v 6.1000 0.6900 5.0000
v 6.1000 0.6900 5.0600
v 6.1000 0.7300 5.0000
v 6.1000 0.7300 5.0600
v 1.1000 1.2400 5.0000
v 1.1000 1.2400 5.0600
v 1.1000 1.2800 5.0000
v 1.1000 1.2800 5.0600
v 6.1000 1.2400 5.0000
v 6.1000 1.2400 5.0600
v 6.1000 1.2800 5.0000
v 6.1000 1.2800 5.0600
v 1.1000 1.7900 5.0000
v 1.1000 1.7900 5.0600
v 1.1000 1.8300 5.0000
v 1.1000 1.8300 5.0600
v 6.1000 1.7900 5.0000
v 6.1000 1.7900 5.0600
v 6.1000 1.8300 5.0000
v 6.1000 1.8300 5.0600
v 3.1500 2.0250 5.0050
v 3.1500 2.0250 5.0650
v 3.1500 2.2750 5.0050
v 3.1500 2.2750 5.0650
v 4.0500 2.0250 5.0050
v 4.0500 2.0250 5.0650
v 4.0500 2.2750 5.0050
v 4.0500 2.2750 5.0650
v -5.8500 2.5000 5.0050
v -5.8500 2.5000 5.0350
v -5.8500 2.7000 5.0050
v -5.8500 2.7000 5.0350
v -5.3500 2.5000 5.0050
v -5.3500 2.5000 5.0350
v -5.3500 2.7000 5.0050
v -5.3500 2.7000 5.0350
v -5.4000 1.1000 -5.0300
v -5.4000 1.1000 -5.0000
v -5.4000 2.4000 -5.0300
v -5.4000 2.4000 -5.0000
v -3.8000 1.1000 -5.0300
v -3.8000 1.1000 -5.0000
v -3.8000 2.4000 -5.0300
v -3.8000 2.4000 -5.0000
v -5.4800 2.4000 -5.0500
v -5.4800 2.4000 -5.0000
v -5.4800 2.4800 -5.0500
v -5.4800 2.4800 -5.0000
v -3.7200 2.4000 -5.0500
v -3.7200 2.4000 -5.0000
v -3.7200 2.4800 -5.0500
v -3.7200 2.4800 -5.0000
v -5.4800 1.1000 -5.0500
v -5.4800 1.1000 -5.0000
v -5.4800 2.4000 -5.0500
v -5.4800 2.4000 -5.0000
v -5.4000 1.1000 -5.0500
v -5.4000 1.1000 -5.0000
v -5.4000 2.4000 -5.0500
v -5.4000 2.4000 -5.0000
v -3.8000 1.1000 -5.0500
v -3.8000 1.1000 -5.0000
v -3.8000 2.4000 -5.0500
v -3.8000 2.4000 -5.0000
v -3.7200 1.1000 -5.0500
v -3.7200 1.1000 -5.0000
v -3.7200 2.4000 -5.0500
v -3.7200 2.4000 -5.0000
v -4.6250 1.1000 -5.0400
v -4.6250 1.1000 -5.0000
v -4.6250 2.4000 -5.0400
v -4.6250 2.4000 -5.0000
v -4.5750 1.1000 -5.0400
v -4.5750 1.1000 -5.0000
v -4.5750 2.4000 -5.0400
v -4.5750 2.4000 -5.0000
v -5.5200 1.0200 -5.0600
v -5.5200 1.0200 -5.0000
v -5.5200 1.1000 -5.0600
v -5.5200 1.1000 -5.0000
v -3.6800 1.0200 -5.0600
v -3.6800 1.0200 -5.0000
v -3.6800 1.1000 -5.0600
v -3.6800 1.1000 -5.0000
v -0.8000 1.1000 -5.0300
v -0.8000 1.1000 -5.0000
v -0.8000 2.4000 -5.0300
v -0.8000 2.4000 -5.0000
v 0.8000 1.1000 -5.0300
v 0.8000 1.1000 -5.0000
v 0.8000 2.4000 -5.0300
v 0.8000 2.4000 -5.0000
v -0.8800 2.4000 -5.0500
v -0.8800 2.4000 -5.0000
v -0.8800 2.4800 -5.0500
v -0.8800 2.4800 -5.0000
v 0.8800 2.4000 -5.0500
v 0.8800 2.4000 -5.0000
v 0.8800 2.4800 -5.0500
v 0.8800 2.4800 -5.0000
v -0.8800 1.1000 -5.0500
v -0.8800 1.1000 -5.0000
v -0.8800 2.4000 -5.0500
v -0.8800 2.4000 -5.0000
v -0.8000 1.1000 -5.0500
v -0.8000 1.1000 -5.0000
v -0.8000 2.4000 -5.0500
v -0.8000 2.4000 -5.0000
v 0.8000 1.1000 -5.0500
v 0.8000 1.1000 -5.0000
v 0.8000 2.4000 -5.0500
v 0.8000 2.4000 -5.0000
v 0.8800 1.1000 -5.0500
v 0.8800 1.1000 -5.0000
v 0.8800 2.4000 -5.0500
v 0.8800 2.4000 -5.0000
v -0.0250 1.1000 -5.0400
v -0.0250 1.1000 -5.0000
v -0.0250 2.4000 -5.0400
v -0.0250 2.4000 -5.0000
v 0.0250 1.1000 -5.0400
v 0.0250 1.1000 -5.0000
v 0.0250 2.4000 -5.0400
v 0.0250 2.4000 -5.0000
v -0.9200 1.0200 -5.0600
v -0.9200 1.0200 -5.0000
v -0.9200 1.1000 -5.0600
v -0.9200 1.1000 -5.0000
v 0.9200 1.0200 -5.0600
v 0.9200 1.0200 -5.0000
v 0.9200 1.1000 -5.0600
v 0.9200 1.1000 -5.0000
v 3.8000 1.1000 -5.0300
v 3.8000 1.1000 -5.0000
v 3.8000 2.4000 -5.0300
v 3.8000 2.4000 -5.0000
v 5.4000 1.1000 -5.0300
v 5.4000 1.1000 -5.0000
v 5.4000 2.4000 -5.0300
v 5.4000 2.4000 -5.0000
v 3.7200 2.4000 -5.0500
v 3.7200 2.4000 -5.0000
v 3.7200 2.4800 -5.0500
v 3.7200 2.4800 -5.0000
v 5.4800 2.4000 -5.0500
v 5.4800 2.4000 -5.0000
v 5.4800 2.4800 -5.0500
v 5.4800 2.4800 -5.0000
v 3.7200 1.1000 -5.0500
v 3.7200 1.1000 -5.0000
v 3.7200 2.4000 -5.0500
v 3.7200 2.4000 -5.0000
v 3.8000 1.1000 -5.0500
v 3.8000 1.1000 -5.0000
v 3.8000 2.4000 -5.0500
v 3.8000 2.4000 -5.0000
v 5.4000 1.1000 -5.0500
v 5.4000 1.1000 -5.0000
v 5.4000 2.4000 -5.0500
v 5.4000 2.4000 -5.0000
v 5.4800 1.1000 -5.0500
v 5.4800 1.1000 -5.0000
v 5.4800 2.4000 -5.0500
v 5.4800 2.4000 -5.0000
v 4.5750 1.1000 -5.0400
v 4.5750 1.1000 -5.0000
v 4.5750 2.4000 -5.0400
v 4.5750 2.4000 -5.0000
v 4.6250 1.1000 -5.0400
v 4.6250 1.1000 -5.0000
v 4.6250 2.4000 -5.0400
v 4.6250 2.4000 -5.0000
v 3.6800 1.0200 -5.0600
v 3.6800 1.0200 -5.0000
v 3.6800 1.1000 -5.0600
v 3.6800 1.1000 -5.0000
v 5.5200 1.0200 -5.0600
v 5.5200 1.0200 -5.0000
v 5.5200 1.1000 -5.0600
v 5.5200 1.1000 -5.0000
v -3.2500 0.1600 -5.0300
v -3.2500 0.1600 -5.0000
v -3.2500 2.3100 -5.0300
v -3.2500 2.3100 -5.0000
v -1.3500 0.1600 -5.0300
v -1.3500 0.1600 -5.0000
v -1.3500 2.3100 -5.0300
v -1.3500 2.3100 -5.0000
v -3.3300 2.3100 -5.0500
v -3.3300 2.3100 -5.0000
v -3.3300 2.3900 -5.0500
v -3.3300 2.3900 -5.0000
v -1.2700 2.3100 -5.0500
v -1.2700 2.3100 -5.0000
v -1.2700 2.3900 -5.0500
v -1.2700 2.3900 -5.0000
v -3.3300 0.1600 -5.0500
v -3.3300 0.1600 -5.0000
v -3.3300 2.3100 -5.0500
v -3.3300 2.3100 -5.0000
v -3.2500 0.1600 -5.0500
v -3.2500 0.1600 -5.0000
v -3.2500 2.3100 -5.0500
v -3.2500 2.3100 -5.0000
v -2.3400 0.1600 -5.0500
v -2.3400 0.1600 -5.0000
v -2.3400 2.3100 -5.0500
v -2.3400 2.3100 -5.0000
v -2.2600 0.1600 -5.0500
v -2.2600 0.1600 -5.0000
v -2.2600 2.3100 -5.0500
v -2.2600 2.3100 -5.0000
v -1.3500 0.1600 -5.0500
v -1.3500 0.1600 -5.0000
v -1.3500 2.3100 -5.0500
v -1.3500 2.3100 -5.0000
v -1.2700 0.1600 -5.0500
v -1.2700 0.1600 -5.0000
v -1.2700 2.3100 -5.0500
v -1.2700 2.3100 -5.0000
v -3.4000 0.0000 -5.5000
v -3.4000 0.0000 -5.0000
v -3.4000 0.1400 -5.5000
v -3.4000 0.1400 -5.0000
v -1.2000 0.0000 -5.5000
v -1.2000 0.0000 -5.0000
v -1.2000 0.1400 -5.5000
v -1.2000 0.1400 -5.0000
v -7.0300 1.1000 -2.8000
v -7.0300 1.1000 -1.6000
v -7.0300 2.4000 -2.8000
v -7.0300 2.4000 -1.6000
v -7.0000 1.1000 -2.8000
v -7.0000 1.1000 -1.6000
v -7.0000 2.4000 -2.8000
v -7.0000 2.4000 -1.6000
v -7.0500 2.4000 -2.8800
v -7.0500 2.4000 -1.5200
v -7.0500 2.4800 -2.8800
v -7.0500 2.4800 -1.5200
v -7.0000 2.4000 -2.8800
v -7.0000 2.4000 -1.5200
v -7.0000 2.4800 -2.8800
v -7.0000 2.4800 -1.5200
v -7.0500 1.1000 -2.8800
v -7.0500 1.1000 -2.8000
v -7.0500 2.4000 -2.8800
v -7.0500 2.4000 -2.8000
v -7.0000 1.1000 -2.8800
v -7.0000 1.1000 -2.8000
v -7.0000 2.4000 -2.8800
v -7.0000 2.4000 -2.8000
v -7.0500 1.1000 -1.6000
v -7.0500 1.1000 -1.5200
v -7.0500 2.4000 -1.6000
v -7.0500 2.4000 -1.5200
v -7.0000 1.1000 -1.6000
v -7.0000 1.1000 -1.5200
v -7.0000 2.4000 -1.6000
v -7.0000 2.4000 -1.5200
v -7.0400 1.1000 -2.2250
v -7.0400 1.1000 -2.1750
v -7.0400 2.4000 -2.2250
v -7.0400 2.4000 -2.1750
v -7.0000 1.1000 -2.2250
v -7.0000 1.1000 -2.1750
v -7.0000 2.4000 -2.2250
v -7.0000 2.4000 -2.1750
v -7.0600 1.0200 -2.9200
v -7.0600 1.0200 -1.4800
v -7.0600 1.1000 -2.9200
v -7.0600 1.1000 -1.4800
v -7.0000 1.0200 -2.9200
v -7.0000 1.0200 -1.4800
v -7.0000 1.1000 -2.9200
v -7.0000 1.1000 -1.4800
v -7.0300 1.1000 1.6000
v -7.0300 1.1000 2.8000
v -7.0300 2.4000 1.6000
v -7.0300 2.4000 2.8000
v -7.0000 1.1000 1.6000
v -7.0000 1.1000 2.8000
v -7.0000 2.4000 1.6000
v -7.0000 2.4000 2.8000
v -7.0500 2.4000 1.5200
v -7.0500 2.4000 2.8800
v -7.0500 2.4800 1.5200
v -7.0500 2.4800 2.8800
v -7.0000 2.4000 1.5200
v -7.0000 2.4000 2.8800
v -7.0000 2.4800 1.5200
v -7.0000 2.4800 2.8800
v -7.0500 1.1000 1.5200
v -7.0500 1.1000 1.6000
v -7.0500 2.4000 1.5200
v -7.0500 2.4000 1.6000
v -7.0000 1.1000 1.5200
v -7.0000 1.1000 1.6000
v -7.0000 2.4000 1.5200
v -7.0000 2.4000 1.6000
v -7.0500 1.1000 2.8000
v -7.0500 1.1000 2.8800
v -7.0500 2.4000 2.8000
v -7.0500 2.4000 2.8800
v -7.0000 1.1000 2.8000
v -7.0000 1.1000 2.8800
v -7.0000 2.4000 2.8000
v -7.0000 2.4000 2.8800
v -7.0400 1.1000 2.1750
v -7.0400 1.1000 2.2250
v -7.0400 2.4000 2.1750
v -7.0400 2.4000 2.2250
v -7.0000 1.1000 2.1750
v -7.0000 1.1000 2.2250
v -7.0000 2.4000 2.1750
v -7.0000 2.4000 2.2250
v -7.0600 1.0200 1.4800
v -7.0600 1.0200 2.9200
v -7.0600 1.1000 1.4800
v -7.0600 1.1000 2.9200
v -7.0000 1.0200 1.4800
v -7.0000 1.0200 2.9200
v -7.0000 1.1000 1.4800
v -7.0000 1.1000 2.9200
v -7.0450 3.4750 -0.2750
v -7.0450 3.4750 0.2750
v -7.0450 4.0250 -0.2750
v -7.0450 4.0250 0.2750
v -6.9950 3.4750 -0.2750
v -6.9950 3.4750 0.2750
v -6.9950 4.0250 -0.2750
v -6.9950 4.0250 0.2750
v -7.0600 3.4250 -0.3200
v -7.0600 3.4250 -0.2400
v -7.0600 4.0750 -0.3200
v -7.0600 4.0750 -0.2400
v -7.0000 3.4250 -0.3200
v -7.0000 3.4250 -0.2400
v -7.0000 4.0750 -0.3200
v -7.0000 4.0750 -0.2400
v -7.0600 3.4250 0.2400
v -7.0600 3.4250 0.3200
v -7.0600 4.0750 0.2400
v -7.0600 4.0750 0.3200
v -7.0000 3.4250 0.2400
v -7.0000 3.4250 0.3200
v -7.0000 4.0750 0.2400
v -7.0000 4.0750 0.3200
v -7.0600 4.0100 -0.3250
v -7.0600 4.0100 0.3250
v -7.0600 4.0900 -0.3250
v -7.0600 4.0900 0.3250
v -7.0000 4.0100 -0.3250
v -7.0000 4.0100 0.3250
v -7.0000 4.0900 -0.3250
v -7.0000 4.0900 0.3250
v -7.0600 3.4100 -0.3250
v -7.0600 3.4100 0.3250
v -7.0600 3.4900 -0.3250
v -7.0600 3.4900 0.3250
v -7.0000 3.4100 -0.3250
v -7.0000 3.4100 0.3250
v -7.0000 3.4900 -0.3250
v -7.0000 3.4900 0.3250
v 7.0000 1.1000 -2.8000
v 7.0000 1.1000 -1.6000
v 7.0000 2.4000 -2.8000
v 7.0000 2.4000 -1.6000
v 7.0300 1.1000 -2.8000
v 7.0300 1.1000 -1.6000
v 7.0300 2.4000 -2.8000
v 7.0300 2.4000 -1.6000
v 7.0000 2.4000 -2.8800
v 7.0000 2.4000 -1.5200
v 7.0000 2.4800 -2.8800
v 7.0000 2.4800 -1.5200
v 7.0500 2.4000 -2.8800
v 7.0500 2.4000 -1.5200
v 7.0500 2.4800 -2.8800
v 7.0500 2.4800 -1.5200
v 7.0000 1.1000 -2.8800
v 7.0000 1.1000 -2.8000
v 7.0000 2.4000 -2.8800
v 7.0000 2.4000 -2.8000
v 7.0500 1.1000 -2.8800
v 7.0500 1.1000 -2.8000
v 7.0500 2.4000 -2.8800
v 7.0500 2.4000 -2.8000
v 7.0000 1.1000 -1.6000
v 7.0000 1.1000 -1.5200
v 7.0000 2.4000 -1.6000
v 7.0000 2.4000 -1.5200
v 7.0500 1.1000 -1.6000
v 7.0500 1.1000 -1.5200
v 7.0500 2.4000 -1.6000
v 7.0500 2.4000 -1.5200
v 7.0000 1.1000 -2.2250
v 7.0000 1.1000 -2.1750
v 7.0000 2.4000 -2.2250
v 7.0000 2.4000 -2.1750
v 7.0400 1.1000 -2.2250
v 7.0400 1.1000 -2.1750
v 7.0400 2.4000 -2.2250
v 7.0400 2.4000 -2.1750
v 7.0000 1.0200 -2.9200
v 7.0000 1.0200 -1.4800
v 7.0000 1.1000 -2.9200
v 7.0000 1.1000 -1.4800
v 7.0600 1.0200 -2.9200
v 7.0600 1.0200 -1.4800
v 7.0600 1.1000 -2.9200
v 7.0600 1.1000 -1.4800
v 7.0000 1.1000 1.6000
v 7.0000 1.1000 2.8000
v 7.0000 2.4000 1.6000
v 7.0000 2.4000 2.8000
v 7.0300 1.1000 1.6000
v 7.0300 1.1000 2.8000
v 7.0300 2.4000 1.6000
v 7.0300 2.4000 2.8000
v 7.0000 2.4000 1.5200
v 7.0000 2.4000 2.8800
v 7.0000 2.4800 1.5200
v 7.0000 2.4800 2.8800
v 7.0500 2.4000 1.5200
v 7.0500 2.4000 2.8800
v 7.0500 2.4800 1.5200
v 7.0500 2.4800 2.8800
v 7.0000 1.1000 1.5200
v 7.0000 1.1000 1.6000
v 7.0000 2.4000 1.5200
v 7.0000 2.4000 1.6000
v 7.0500 1.1000 1.5200
v 7.0500 1.1000 1.6000
v 7.0500 2.4000 1.5200
v 7.0500 2.4000 1.6000
v 7.0000 1.1000 2.8000
v 7.0000 1.1000 2.8800
v 7.0000 2.4000 2.8000
v 7.0000 2.4000 2.8800
v 7.0500 1.1000 2.8000
v 7.0500 1.1000 2.8800
v 7.0500 2.4000 2.8000
v 7.0500 2.4000 2.8800
v 7.0000 1.1000 2.1750
v 7.0000 1.1000 2.2250
v 7.0000 2.4000 2.1750
v 7.0000 2.4000 2.2250
v 7.0400 1.1000 2.1750
v 7.0400 1.1000 2.2250
v 7.0400 2.4000 2.1750
v 7.0400 2.4000 2.2250
v 7.0000 1.0200 1.4800
v 7.0000 1.0200 2.9200
v 7.0000 1.1000 1.4800
v 7.0000 1.1000 2.9200
v 7.0600 1.0200 1.4800
v 7.0600 1.0200 2.9200
v 7.0600 1.1000 1.4800
v 7.0600 1.1000 2.9200
v 6.9950 3.4750 -0.2750
v 6.9950 3.4750 0.2750
v 6.9950 4.0250 -0.2750
v 6.9950 4.0250 0.2750
v 7.0450 3.4750 -0.2750
v 7.0450 3.4750 0.2750
v 7.0450 4.0250 -0.2750
v 7.0450 4.0250 0.2750
v 7.0000 3.4250 -0.3200
v 7.0000 3.4250 -0.2400
v 7.0000 4.0750 -0.3200
v 7.0000 4.0750 -0.2400
v 7.0600 3.4250 -0.3200
v 7.0600 3.4250 -0.2400
v 7.0600 4.0750 -0.3200
v 7.0600 4.0750 -0.2400
v 7.0000 3.4250 0.2400
v 7.0000 3.4250 0.3200
v 7.0000 4.0750 0.2400
v 7.0000 4.0750 0.3200
v 7.0600 3.4250 0.2400
v 7.0600 3.4250 0.3200
v 7.0600 4.0750 0.2400
v 7.0600 4.0750 0.3200
v 7.0000 4.0100 -0.3250
v 7.0000 4.0100 0.3250
v 7.0000 4.0900 -0.3250
v 7.0000 4.0900 0.3250
v 7.0600 4.0100 -0.3250
v 7.0600 4.0100 0.3250
v 7.0600 4.0900 -0.3250
v 7.0600 4.0900 0.3250
v 7.0000 3.4100 -0.3250
v 7.0000 3.4100 0.3250
v 7.0000 3.4900 -0.3250
v 7.0000 3.4900 0.3250
v 7.0600 3.4100 -0.3250
v 7.0600 3.4100 0.3250
v 7.0600 3.4900 -0.3250
v 7.0600 3.4900 0.3250
usemtl slab
f 2 1 3
f 8 9 7
f 19 21 20
f 11 10 12
f 22 23 24
f 15 13 14
f 16 18 17
f 5 6 4
f 20 1 2
f 14 13 20
f 2 8 20
f 7 19 20
f 20 13 1
f 20 8 7
f 24 19 7
f 24 10 22
f 7 9 24
f 24 9 12
f 12 10 24
f 24 21 19
f 1 13 15
f 15 16 4
f 15 3 1
f 4 6 15
f 15 6 3
f 15 18 16
f 14 20 17
f 17 20 21
f 21 24 17
f 18 15 17
f 17 24 23
f 17 15 14
f 4 16 5
f 22 10 5
f 5 23 22
f 16 17 5
f 10 11 5
f 5 17 23
f 12 9 5
f 2 3 5
f 3 6 5
f 5 8 2
f 9 8 5
f 5 11 12
usemtl brick
f 25 27 31
f 31 29 25
f 25 29 30
f 30 26 25
f 29 31 30
f 30 31 32
f 28 27 25
f 25 26 28
f 28 31 27
f 32 31 28
f 26 30 28
f 28 30 32
usemtl gable_siding
f 34 35 33
f 38 37 36
f 37 34 33
f 33 36 37
f 38 36 33
f 33 35 38
f 34 37 38
f 35 34 38
usemtl trim_white
f 39 41 45
f 45 43 39
f 39 43 44
f 44 40 39
f 43 45 44
f 44 45 46
f 42 41 39
f 39 40 42
f 42 45 41
f 46 45 42
f 40 44 42
f 42 44 46
f 47 49 53
f 53 51 47
f 47 51 52
f 52 48 47
f 51 53 52
f 52 53 54
f 50 49 47
f 47 48 50
f 50 53 49
f 54 53 50
f 48 52 50
f 50 52 54
f 55 57 61
f 61 59 55
f 55 59 60
f 60 56 55
f 59 61 60
f 60 61 62
f 58 57 55
f 55 56 58
f 58 61 57
f 62 61 58
f 56 60 58
f 58 60 62
f 63 65 69
f 69 67 63
f 63 67 68
f 68 64 63
f 67 69 68
f 68 69 70
f 66 65 63
f 63 64 66
f 66 69 65
f 70 69 66
f 64 68 66
f 66 68 70
f 247 249 253
f 253 251 247
f 247 251 252
f 252 248 247
f 251 253 252
f 252 253 254
f 250 249 247
f 247 248 250
f 250 253 249
f 254 253 250
f 248 252 250
f 250 252 254
f 255 257 261
f 261 259 255
f 255 259 260
f 260 256 255
f 259 261 260
f 260 261 262
f 258 257 255
f 255 256 258
f 258 261 257
f 262 261 258
f 256 260 258
f 258 260 262
f 263 265 269
f 269 267 263
f 263 267 268
f 268 264 263
f 267 269 268
f 268 269 270
f 266 265 263
f 263 264 266
f 266 269 265
f 270 269 266
f 264 268 266
f 266 268 270
f 271 273 277
f 277 275 271
f 271 275 276
f 276 272 271
f 275 277 276
f 276 277 278
f 274 273 271
f 271 272 274
f 274 277 273
f 278 277 274
f 272 276 274
f 274 276 278
f 279 281 285
f 285 283 279
f 279 283 284
f 284 280 279
f 283 285 284
f 284 285 286
f 282 281 279
f 279 280 282
f 282 285 281
f 286 285 282
f 280 284 282
f 282 284 286
f 311 313 317
f 317 315 311
f 311 315 316
f 316 312 311
f 315 317 316
f 316 317 318
f 314 313 311
f 311 312 314
f 314 317 313
f 318 317 314
f 312 316 314
f 314 316 318
f 319 321 325
f 325 323 319
f 319 323 324
f 324 320 319
f 323 325 324
f 324 325 326
f 322 321 319
f 319 320 322
f 322 325 321
f 326 325 322
f 320 324 322
f 322 324 326
f 327 329 333
f 333 331 327
f 327 331 332
f 332 328 327
f 331 333 332
f 332 333 334
f 330 329 327
f 327 328 330
f 330 333 329
f 334 333 330
f 328 332 330
f 330 332 334
f 335 337 341
f 341 339 335
f 335 339 340
f 340 336 335
f 339 341 340
f 340 341 342
f 338 337 335
f 335 336 338
f 338 341 337
f 342 341 338
f 336 340 338
f 338 340 342
f 343 345 349
f 349 347 343
f 343 347 348
f 348 344 343
f 347 349 348
f 348 349 350
f 346 345 343
f 343 344 346
f 346 349 345
f 350 349 346
f 344 348 346
f 346 348 350
f 367 369 373
f 373 371 367
f 367 371 372
f 372 368 367
f 371 373 372
f 372 373 374
f 370 369 367
f 367 368 370
f 370 373 369
f 374 373 370
f 368 372 370
f 370 372 374
f 423 425 429
f 429 427 423
f 423 427 428
f 428 424 423
f 427 429 428
f 428 429 430
f 426 425 423
f 423 424 426
f 426 429 425
f 430 429 426
f 424 428 426
f 426 428 430
f 487 489 493
f 493 491 487
f 487 491 492
f 492 488 487
f 491 493 492
f 492 493 494
f 490 489 487
f 487 488 490
f 490 493 489
f 494 493 490
f 488 492 490
f 490 492 494
f 495 497 501
f 501 499 495
f 495 499 500
f 500 496 495
f 499 501 500
f 500 501 502
f 498 497 495
f 495 496 498
f 498 501 497
f 502 501 498
f 496 500 498
f 498 500 502
f 503 505 509
f 509 507 503
f 503 507 508
f 508 504 503
f 507 509 508
f 508 509 510
f 506 505 503
f 503 504 506
f 506 509 505
f 510 509 506
f 504 508 506
f 506 508 510
f 511 513 517
f 517 515 511
f 511 515 516
f 516 512 511
f 515 517 516
f 516 517 518
f 514 513 511
f 511 512 514
f 514 517 513
f 518 517 514
f 512 516 514
f 514 516 518
f 519 521 525
f 525 523 519
f 519 523 524
f 524 520 519
f 523 525 524
f 524 525 526
f 522 521 519
f 519 520 522
f 522 525 521
f 526 525 522
f 520 524 522
f 522 524 526
f 535 537 541
f 541 539 535
f 535 539 540
f 540 536 535
f 539 541 540
f 540 541 542
f 538 537 535
f 535 536 538
f 538 541 537
f 542 541 538
f 536 540 538
f 538 540 542
f 543 545 549
f 549 547 543
f 543 547 548
f 548 544 543
f 547 549 548
f 548 549 550
f 546 545 543
f 543 544 546
f 546 549 545
f 550 549 546
f 544 548 546
f 546 548 550
f 551 553 557
f 557 555 551
f 551 555 556
f 556 552 551
f 555 557 556
f 556 557 558
f 554 553 551
f 551 552 554
f 554 557 553
f 558 557 554
f 552 556 554
f 554 556 558
f 559 561 565
f 565 563 559
f 559 563 564
f 564 560 559
f 563 565 564
f 564 565 566
f 562 561 559
f 559 560 562
f 562 565 561
f 566 565 562
f 560 564 562
f 562 564 566
f 567 569 573
f 573 571 567
f 567 571 572
f 572 568 567
f 571 573 572
f 572 573 574
f 570 569 567
f 567 568 570
f 570 573 569
f 574 573 570
f 568 572 570
f 570 572 574
f 583 585 589
f 589 587 583
f 583 587 588
f 588 584 583
f 587 589 588
f 588 589 590
f 586 585 583
f 583 584 586
f 586 589 585
f 590 589 586
f 584 588 586
f 586 588 590
f 591 593 597
f 597 595 591
f 591 595 596
f 596 592 591
f 595 597 596
f 596 597 598
f 594 593 591
f 591 592 594
f 594 597 593
f 598 597 594
f 592 596 594
f 594 596 598
f 599 601 605
f 605 603 599
f 599 603 604
f 604 600 599
f 603 605 604
f 604 605 606
f 602 601 599
f 599 600 602
f 602 605 601
f 606 605 602
f 600 604 602
f 602 604 606
f 607 609 613
f 613 611 607
f 607 611 612
f 612 608 607
f 611 613 612
f 612 613 614
f 610 609 607
f 607 608 610
f 610 613 609
f 614 613 610
f 608 612 610
f 610 612 614
f 615 617 621
f 621 619 615
f 615 619 620
f 620 616 615
f 619 621 620
f 620 621 622
f 618 617 615
f 615 616 618
f 618 621 617
f 622 621 618
f 616 620 618
f 618 620 622
f 631 633 637
f 637 635 631
f 631 635 636
f 636 632 631
f 635 637 636
f 636 637 638
f 634 633 631
f 631 632 634
f 634 637 633
f 638 637 634
f 632 636 634
f 634 636 638
f 639 641 645
f 645 643 639
f 639 643 644
f 644 640 639
f 643 645 644
f 644 645 646
f 642 641 639
f 639 640 642
f 642 645 641
f 646 645 642
f 640 644 642
f 642 644 646
f 647 649 653
f 653 651 647
f 647 651 652
f 652 648 647
f 651 653 652
f 652 653 654
f 650 649 647
f 647 648 650
f 650 653 649
f 654 653 650
f 648 652 650
f 650 652 654
f 655 657 661
f 661 659 655
f 655 659 660
f 660 656 655
f 659 661 660
f 660 661 662
f 658 657 655
f 655 656 658
f 658 661 657
f 662 661 658
f 656 660 658
f 658 660 662
f 679 681 685
f 685 683 679
f 679 683 684
f 684 680 679
f 683 685 684
f 684 685 686
f 682 681 679
f 679 680 682
f 682 685 681
f 686 685 682
f 680 684 682
f 682 684 686
f 687 689 693
f 693 691 687
f 687 691 692
f 692 688 687
f 691 693 692
f 692 693 694
f 690 689 687
f 687 688 690
f 690 693 689
f 694 693 690
f 688 692 690
f 690 692 694
f 695 697 701
f 701 699 695
f 695 699 700
f 700 696 695
f 699 701 700
f 700 701 702
f 698 697 695
f 695 696 698
f 698 701 697
f 702 701 698
f 696 700 698
f 698 700 702
f 703 705 709
f 709 707 703
f 703 707 708
f 708 704 703
f 707 709 708
f 708 709 710
f 706 705 703
f 703 704 706
f 706 709 705
f 710 709 706
f 704 708 706
f 706 708 710
f 711 713 717
f 717 715 711
f 711 715 716
f 716 712 711
f 715 717 716
f 716 717 718
f 714 713 711
f 711 712 714
f 714 717 713
f 718 717 714
f 712 716 714
f 714 716 718
f 727 729 733
f 733 731 727
f 727 731 732
f 732 728 727
f 731 733 732
f 732 733 734
f 730 729 727
f 727 728 730
f 730 733 729
f 734 733 730
f 728 732 730
f 730 732 734
f 735 737 741
f 741 739 735
f 735 739 740
f 740 736 735
f 739 741 740
f 740 741 742
f 738 737 735
f 735 736 738
f 738 741 737
f 742 741 738
f 736 740 738
f 738 740 742
f 743 745 749
f 749 747 743
f 743 747 748
f 748 744 743
f 747 749 748
f 748 749 750
f 746 745 743
f 743 744 746
f 746 749 745
f 750 749 746
f 744 748 746
f 746 748 750
f 751 753 757
f 757 755 751
f 751 755 756
f 756 752 751
f 755 757 756
f 756 757 758
f 754 753 751
f 751 752 754
f 754 757 753
f 758 757 754
f 752 756 754
f 754 756 758
f 759 761 765
f 765 763 759
f 759 763 764
f 764 760 759
f 763 765 764
f 764 765 766
f 762 761 759
f 759 760 762
f 762 765 761
f 766 765 762
f 760 764 762
f 762 764 766
f 775 777 781
f 781 779 775
f 775 779 780
f 780 776 775
f 779 781 780
f 780 781 782
f 778 777 775
f 775 776 778
f 778 781 777
f 782 781 778
f 776 780 778
f 778 780 782
f 783 785 789
f 789 787 783
f 783 787 788
f 788 784 783
f 787 789 788
f 788 789 790
f 786 785 783
f 783 784 786
f 786 789 785
f 790 789 786
f 784 788 786
f 786 788 790
f 791 793 797
f 797 795 791
f 791 795 796
f 796 792 791
f 795 797 796
f 796 797 798
f 794 793 791
f 791 792 794
f 794 797 793
f 798 797 794
f 792 796 794
f 794 796 798
f 799 801 805
f 805 803 799
f 799 803 804
f 804 800 799
f 803 805 804
f 804 805 806
f 802 801 799
f 799 800 802
f 802 805 801
f 806 805 802
f 800 804 802
f 802 804 806
f 815 817 821
f 821 819 815
f 815 819 820
f 820 816 815
f 819 821 820
f 820 821 822
f 818 817 815
f 815 816 818
f 818 821 817
f 822 821 818
f 816 820 818
f 818 820 822
f 823 825 829
f 829 827 823
f 823 827 828
f 828 824 823
f 827 829 828
f 828 829 830
f 826 825 823
f 823 824 826
f 826 829 825
f 830 829 826
f 824 828 826
f 826 828 830
f 831 833 837
f 837 835 831
f 831 835 836
f 836 832 831
f 835 837 836
f 836 837 838
f 834 833 831
f 831 832 834
f 834 837 833
f 838 837 834
f 832 836 834
f 834 836 838
f 839 841 845
f 845 843 839
f 839 843 844
f 844 840 839
f 843 845 844
f 844 845 846
f 842 841 839
f 839 840 842
f 842 845 841
f 846 845 842
f 840 844 842
f 842 844 846
f 847 849 853
f 853 851 847
f 847 851 852
f 852 848 847
f 851 853 852
f 852 853 854
f 850 849 847
f 847 848 850
f 850 853 849
f 854 853 850
f 848 852 850
f 850 852 854
f 863 865 869
f 869 867 863
f 863 867 868
f 868 864 863
f 867 869 868
f 868 869 870
f 866 865 863
f 863 864 866
f 866 869 865
f 870 869 866
f 864 868 866
f 866 868 870
f 871 873 877
f 877 875 871
f 871 875 876
f 876 872 871
f 875 877 876
f 876 877 878
f 874 873 871
f 871 872 874
f 874 877 873
f 878 877 874
f 872 876 874
f 874 876 878
f 879 881 885
f 885 883 879
f 879 883 884
f 884 880 879
f 883 885 884
f 884 885 886
f 882 881 879
f 879 880 882
f 882 885 881
f 886 885 882
f 880 884 882
f 882 884 886
f 887 889 893
f 893 891 887
f 887 891 892
f 892 888 887
f 891 893 892
f 892 893 894
f 890 889 887
f 887 888 890
f 890 893 889
f 894 893 890
f 888 892 890
f 890 892 894
f 895 897 901
f 901 899 895
f 895 899 900
f 900 896 895
f 899 901 900
f 900 901 902
f 898 897 895
f 895 896 898
f 898 901 897
f 902 901 898
f 896 900 898
f 898 900 902
f 911 913 917
f 917 915 911
f 911 915 916
f 916 912 911
f 915 917 916
f 916 917 918
f 914 913 911
f 911 912 914
f 914 917 913
f 918 917 914
f 912 916 914
f 914 916 918
f 919 921 925
f 925 923 919
f 919 923 924
f 924 920 919
f 923 925 924
f 924 925 926
f 922 921 919
f 919 920 922
f 922 925 921
f 926 925 922
f 920 924 922
f 922 924 926
f 927 929 933
f 933 931 927
f 927 931 932
f 932 928 927
f 931 933 932
f 932 933 934
f 930 929 927
f 927 928 930
f 930 933 929
f 934 933 930
f 928 932 930
f 930 932 934
f 935 937 941
f 941 939 935
f 935 939 940
f 940 936 935
f 939 941 940
f 940 941 942
f 938 937 935
f 935 936 938
f 938 941 937
f 942 941 938
f 936 940 938
f 938 940 942
usemtl roof_shingle
f 71 72 76
f 76 75 71
f 71 75 77
f 77 73 71
f 75 76 77
f 77 76 78
f 74 72 71
f 71 73 74
f 74 76 72
f 78 76 74
f 73 77 74
f 74 77 78
f 108 104 103
f 103 107 108
f 109 107 103
f 103 105 109
f 109 108 107
f 110 108 109
f 103 104 106
f 106 105 103
f 104 108 106
f 106 108 110
f 106 109 105
f 110 109 106
usemtl gutter
f 79 81 85
f 85 83 79
f 79 83 84
f 84 80 79
f 83 85 84
f 84 85 86
f 82 81 79
f 79 80 82
f 82 85 81
f 86 85 82
f 80 84 82
f 82 84 86
f 111 113 117
f 117 115 111
f 111 115 116
f 116 112 111
f 115 117 116
f 116 117 118
f 114 113 111
f 111 112 114
f 114 117 113
f 118 117 114
f 112 116 114
f 114 116 118
usemtl barge_board
f 93 91 87
f 87 89 93
f 87 91 88
f 88 91 92
f 90 89 87
f 87 88 90
f 91 93 94
f 92 91 94
f 94 88 92
f 94 90 88
f 94 93 89
f 89 90 94
f 95 99 101
f 97 95 101
f 96 99 95
f 100 99 96
f 98 95 97
f 98 96 95
f 102 101 99
f 102 99 100
f 100 96 102
f 96 98 102
f 97 101 102
f 102 98 97
f 119 123 125
f 125 121 119
f 120 123 119
f 124 123 120
f 119 121 122
f 122 120 119
f 126 125 123
f 126 123 124
f 124 120 126
f 120 122 126
f 121 125 126
f 126 122 121
f 133 131 127
f 133 127 129
f 127 131 128
f 128 131 132
f 129 127 130
f 127 128 130
f 131 133 134
f 132 131 134
f 134 128 132
f 134 130 128
f 134 133 129
f 129 130 134
usemtl shingle_light
f 135 137 141
f 141 139 135
f 135 139 140
f 140 136 135
f 139 141 140
f 140 141 142
f 138 137 135
f 135 136 138
f 138 141 137
f 142 141 138
f 136 140 138
f 138 140 142
usemtl downspout
f 143 150 158
f 158 151 143
f 143 144 146
f 146 150 143
f 147 148 146
f 149 150 146
f 146 148 149
f 146 144 145
f 155 148 147
f 156 148 155
f 147 146 155
f 155 146 154
f 153 146 145
f 154 146 153
f 149 148 157
f 157 148 156
f 157 150 149
f 157 158 150
f 151 158 152
f 156 155 152
f 154 153 152
f 152 155 154
f 152 157 156
f 158 157 152
f 152 144 143
f 143 151 152
f 145 144 152
f 152 153 145
f 159 166 174
f 174 167 159
f 159 160 162
f 162 166 159
f 163 164 162
f 165 166 162
f 162 164 165
f 162 160 161
f 171 164 163
f 172 164 171
f 163 162 171
f 171 162 170
f 169 162 161
f 170 162 169
f 165 164 173
f 173 164 172
f 173 166 165
f 173 174 166
f 167 174 168
f 172 171 168
f 170 169 168
f 168 171 170
f 168 173 172
f 174 173 168
f 168 160 159
f 159 167 168
f 161 160 168
f 168 169 161
f 181 180 189
f 189 180 188
f 175 176 178
f 178 182 175
f 179 180 178
f 181 182 178
f 178 180 181
f 178 176 177
f 187 180 179
f 188 180 187
f 179 178 187
f 187 178 186
f 186 178 185
f 185 178 177
f 175 182 190
f 190 183 175
f 190 182 181
f 181 189 190
f 188 187 184
f 183 190 184
f 184 189 188
f 184 187 186
f 186 185 184
f 184 190 189
f 184 176 175
f 175 183 184
f 177 176 184
f 184 185 177
f 197 196 205
f 205 196 204
f 191 192 194
f 194 198 191
f 195 196 194
f 197 198 194
f 194 196 197
f 194 192 193
f 203 196 195
f 204 196 203
f 195 194 203
f 203 194 202
f 202 194 201
f 201 194 193
f 191 198 206
f 206 199 191
f 206 198 197
f 197 205 206
f 204 203 200
f 199 206 200
f 200 205 204
f 200 203 202
f 202 201 200
f 200 206 205
f 200 192 191
f 191 199 200
f 193 192 200
f 200 201 193
usemtl chimney
f 208 207 209
f 213 214 215
f 220 221 219
f 210 211 212
f 225 227 226
f 217 216 218
f 223 222 224
f 230 228 229
f 225 207 208
f 225 226 220
f 208 214 225
f 220 219 225
f 225 214 213
f 225 219 207
f 228 223 229
f 210 222 228
f 228 211 210
f 228 216 217
f 217 211 228
f 228 222 223
f 218 214 208
f 208 209 218
f 218 211 217
f 209 212 218
f 218 215 214
f 218 212 211
f 224 209 207
f 224 222 210
f 207 219 224
f 224 219 221
f 210 212 224
f 224 212 209
f 220 226 230
f 229 223 230
f 230 221 220
f 223 224 230
f 226 227 230
f 230 224 221
f 230 225 213
f 213 215 230
f 216 228 230
f 227 225 230
f 215 218 230
f 230 218 216
usemtl chimney_cap
f 231 233 237
f 237 235 231
f 231 235 236
f 236 232 231
f 235 237 236
f 236 237 238
f 234 233 231
f 231 232 234
f 234 237 233
f 238 237 234
f 232 236 234
f 234 236 238
usemtl window_glass
f 239 241 245
f 245 243 239
f 239 243 244
f 244 240 239
f 243 245 244
f 244 245 246
f 242 241 239
f 239 240 242
f 242 245 241
f 246 245 242
f 240 244 242
f 242 244 246
f 303 305 309
f 309 307 303
f 303 307 308
f 308 304 303
f 307 309 308
f 308 309 310
f 306 305 303
f 303 304 306
f 306 309 305
f 310 309 306
f 304 308 306
f 306 308 310
f 479 481 485
f 485 483 479
f 479 483 484
f 484 480 479
f 483 485 484
f 484 485 486
f 482 481 479
f 479 480 482
f 482 485 481
f 486 485 482
f 480 484 482
f 482 484 486
f 527 529 533
f 533 531 527
f 527 531 532
f 532 528 527
f 531 533 532
f 532 533 534
f 530 529 527
f 527 528 530
f 530 533 529
f 534 533 530
f 528 532 530
f 530 532 534
f 575 577 581
f 581 579 575
f 575 579 580
f 580 576 575
f 579 581 580
f 580 581 582
f 578 577 575
f 575 576 578
f 578 581 577
f 582 581 578
f 576 580 578
f 578 580 582
f 623 625 629
f 629 627 623
f 623 627 628
f 628 624 623
f 627 629 628
f 628 629 630
f 626 625 623
f 623 624 626
f 626 629 625
f 630 629 626
f 624 628 626
f 626 628 630
f 671 673 677
f 677 675 671
f 671 675 676
f 676 672 671
f 675 677 676
f 676 677 678
f 674 673 671
f 671 672 674
f 674 677 673
f 678 677 674
f 672 676 674
f 674 676 678
f 719 721 725
f 725 723 719
f 719 723 724
f 724 720 719
f 723 725 724
f 724 725 726
f 722 721 719
f 719 720 722
f 722 725 721
f 726 725 722
f 720 724 722
f 722 724 726
f 807 809 813
f 813 811 807
f 807 811 812
f 812 808 807
f 811 813 812
f 812 813 814
f 810 809 807
f 807 808 810
f 810 813 809
f 814 813 810
f 808 812 810
f 810 812 814
f 855 857 861
f 861 859 855
f 855 859 860
f 860 856 855
f 859 861 860
f 860 861 862
f 858 857 855
f 855 856 858
f 858 861 857
f 862 861 858
f 856 860 858
f 858 860 862
usemtl shutter
f 287 289 293
f 293 291 287
f 287 291 292
f 292 288 287
f 291 293 292
f 292 293 294
f 290 289 287
f 287 288 290
f 290 293 289
f 294 293 290
f 288 292 290
f 290 292 294
f 295 297 301
f 301 299 295
f 295 299 300
f 300 296 295
f 299 301 300
f 300 301 302
f 298 297 295
f 295 296 298
f 298 301 297
f 302 301 298
f 296 300 298
f 298 300 302
f 351 353 357
f 357 355 351
f 351 355 356
f 356 352 351
f 355 357 356
f 356 357 358
f 354 353 351
f 351 352 354
f 354 357 353
f 358 357 354
f 352 356 354
f 354 356 358
f 359 361 365
f 365 363 359
f 359 363 364
f 364 360 359
f 363 365 364
f 364 365 366
f 362 361 359
f 359 360 362
f 362 365 361
f 366 365 362
f 360 364 362
f 362 364 366
usemtl door_red
f 375 377 381
f 381 379 375
f 375 379 380
f 380 376 375
f 379 381 380
f 380 381 382
f 378 377 375
f 375 376 378
f 378 381 377
f 382 381 378
f 376 380 378
f 378 380 382
usemtl door_glass
f 383 385 389
f 389 387 383
f 383 387 388
f 388 384 383
f 387 389 388
f 388 389 390
f 386 385 383
f 383 384 386
f 386 389 385
f 390 389 386
f 384 388 386
f 386 388 390
f 463 465 469
f 469 467 463
f 463 467 468
f 468 464 463
f 467 469 468
f 468 469 470
f 466 465 463
f 463 464 466
f 466 469 465
f 470 469 466
f 464 468 466
f 466 468 470
usemtl door_knob
f 401 394 393
f 402 394 401
f 396 398 391
f 391 392 396
f 396 394 395
f 396 392 393
f 393 394 396
f 397 398 396
f 395 394 403
f 403 394 402
f 403 396 395
f 404 396 403
f 405 396 404
f 397 396 405
f 400 392 391
f 391 399 400
f 393 392 400
f 400 401 393
f 406 403 402
f 402 401 406
f 406 400 399
f 404 403 406
f 406 405 404
f 401 400 406
f 391 398 406
f 406 399 391
f 406 398 397
f 397 405 406
usemtl concrete
f 407 409 413
f 413 411 407
f 407 411 412
f 412 408 407
f 411 413 412
f 412 413 414
f 410 409 407
f 407 408 410
f 410 413 409
f 414 413 410
f 408 412 410
f 410 412 414
f 663 665 669
f 669 667 663
f 663 667 668
f 668 664 663
f 667 669 668
f 668 669 670
f 666 665 663
f 663 664 666
f 666 669 665
f 670 669 666
f 664 668 666
f 666 668 670
usemtl porch_roof
f 415 416 420
f 420 419 415
f 415 419 421
f 421 417 415
f 419 420 421
f 421 420 422
f 418 416 415
f 415 417 418
f 418 420 416
f 422 420 418
f 417 421 418
f 418 421 422
usemtl garage_door
f 431 433 437
f 437 435 431
f 431 435 436
f 436 432 431
f 435 437 436
f 436 437 438
f 434 433 431
f 431 432 434
f 434 437 433
f 438 437 434
f 432 436 434
f 434 436 438
usemtl garage_line
f 439 441 445
f 445 443 439
f 439 443 444
f 444 440 439
f 443 445 444
f 444 445 446
f 442 441 439
f 439 440 442
f 442 445 441
f 446 445 442
f 440 444 442
f 442 444 446
f 447 449 453
f 453 451 447
f 447 451 452
f 452 448 447
f 451 453 452
f 452 453 454
f 450 449 447
f 447 448 450
f 450 453 449
f 454 453 450
f 448 452 450
f 450 452 454
f 455 457 461
f 461 459 455
f 455 459 460
f 460 456 455
f 459 461 460
f 460 461 462
f 458 457 455
f 455 456 458
f 458 461 457
f 462 461 458
f 456 460 458
f 458 460 462
usemtl lamp
f 471 473 477
f 477 475 471
f 471 475 476
f 476 472 471
f 475 477 476
f 476 477 478
f 474 473 471
f 471 472 474
f 474 477 473
f 478 477 474
f 472 476 474
f 474 476 478
usemtl gable_vent
f 767 769 773
f 773 771 767
f 767 771 772
f 772 768 767
f 771 773 772
f 772 773 774
f 770 769 767
f 767 768 770
f 770 773 769
f 774 773 770
f 768 772 770
f 770 772 774
f 903 905 909
f 909 907 903
f 903 907 908
f 908 904 903
f 907 909 908
f 908 909 910
f 906 905 903
f 903 904 906
f 906 909 905
f 910 909 906
f 904 908 906
f 906 908 910
