# shed.obj  Y-up, meters, origin at ground/wall contact
mtllib shed.mtl
v -1.2600 0.0000 -1.5750
v -1.2700 0.0100 -1.5750
v -1.2700 0.0000 -1.5650
v -1.2600 0.0000 1.5750
v -1.2700 0.0100 1.5750
v -1.2700 0.0000 1.5650
v -1.2600 0.1000 -1.5750
v -1.2700 0.0900 -1.5750
v -1.2700 0.1000 -1.5650
v -1.2600 0.1000 1.5750
v -1.2700 0.0900 1.5750
v -1.2700 0.1000 1.5650
v 1.2600 0.0000 -1.5750
v 1.2700 0.0100 -1.5750
v 1.2700 0.0000 -1.5650
v 1.2600 0.0000 1.5750
v 1.2700 0.0100 1.5750
v 1.2700 0.0000 1.5650
v 1.2600 0.1000 -1.5750
v 1.2700 0.0900 -1.5750
v 1.2700 0.1000 -1.5650
v 1.2600 0.1000 1.5750
v 1.2700 0.0900 1.5750
v 1.2700 0.1000 1.5650
v -1.2200 0.1000 -1.5250
v -1.2200 0.1000 1.5250
v -1.2200 2.1500 -1.5250
v -1.2200 2.1500 1.5250
v 1.2200 0.1000 -1.5250
v 1.2200 0.1000 1.5250
v 1.2200 2.1500 -1.5250
v 1.2200 2.1500 1.5250
v -1.2200 2.1500 -1.5250
v 1.2200 2.1500 -1.5250
v 0.0000 2.8500 -1.5250
v -1.2200 2.1500 1.5250
v 1.2200 2.1500 1.5250
v 0.0000 2.8500 1.5250
v -1.4340 2.1470 -1.7500
v 0.0000 2.9500 -1.7500
v -1.4340 2.0270 -1.7500
v 0.0000 2.8300 -1.7500
v -1.4340 2.1470 1.7500
v 0.0000 2.9500 1.7500
v -1.4340 2.0270 1.7500
v 0.0000 2.8300 1.7500
v -1.4350 2.0250 -1.7500
v -1.4350 2.0250 1.7500
v -1.4350 2.1750 -1.7500
v -1.4350 2.1750 1.7500
v -1.3850 2.0250 -1.7500
v -1.3850 2.0250 1.7500
v -1.3850 2.1750 -1.7500
v -1.3850 2.1750 1.7500
v 1.4340 2.1470 -1.7500
v 0.0000 2.9500 -1.7500
v 1.4340 2.0270 -1.7500
v 0.0000 2.8300 -1.7500
v 1.4340 2.1470 1.7500
v 0.0000 2.9500 1.7500
v 1.4340 2.0270 1.7500
v 0.0000 2.8300 1.7500
v 1.3850 2.0250 -1.7500
v 1.3850 2.0250 1.7500
v 1.3850 2.1750 -1.7500
v 1.3850 2.1750 1.7500
v 1.4350 2.0250 -1.7500
v 1.4350 2.0250 1.7500
v 1.4350 2.1750 -1.7500
v 1.4350 2.1750 1.7500
v -0.0900 2.9150 -1.7500
v -0.0900 2.9150 1.7500
v -0.0900 2.9750 -1.7500
v -0.0900 2.9750 1.7500
v 0.0900 2.9150 -1.7500
v 0.0900 2.9150 1.7500
v 0.0900 2.9750 -1.7500
v 0.0900 2.9750 1.7500
v -1.2600 0.1000 -1.5650
v -1.2600 0.1000 -1.4850
v -1.2600 2.1500 -1.5650
v -1.2600 2.1500 -1.4850
v -1.1800 0.1000 -1.5650
v -1.1800 0.1000 -1.4850
v -1.1800 2.1500 -1.5650
v -1.1800 2.1500 -1.4850
v -1.2600 0.1000 1.4850
v -1.2600 0.1000 1.5650
v -1.2600 2.1500 1.4850
v -1.2600 2.1500 1.5650
v -1.1800 0.1000 1.4850
v -1.1800 0.1000 1.5650
v -1.1800 2.1500 1.4850
v -1.1800 2.1500 1.5650
v 1.1800 0.1000 -1.5650
v 1.1800 0.1000 -1.4850
v 1.1800 2.1500 -1.5650
v 1.1800 2.1500 -1.4850
v 1.2600 0.1000 -1.5650
v 1.2600 0.1000 -1.4850
v 1.2600 2.1500 -1.5650
v 1.2600 2.1500 -1.4850
v 1.1800 0.1000 1.4850
v 1.1800 0.1000 1.5650
v 1.1800 2.1500 1.4850
v 1.1800 2.1500 1.5650
v 1.2600 0.1000 1.4850
v 1.2600 0.1000 1.5650
v 1.2600 2.1500 1.4850
v 1.2600 2.1500 1.5650
v -0.4800 0.1000 1.4950
v -0.4800 0.1000 1.5550
v -0.4800 2.0500 1.4950
v -0.4800 2.0500 1.5550
v 0.4800 0.1000 1.4950
v 0.4800 0.1000 1.5550
v 0.4800 2.0500 1.4950
v 0.4800 2.0500 1.5550
v -0.4200 0.1000 1.5250
v -0.4200 0.1000 1.5650
v -0.4200 1.9500 1.5250
v -0.4200 1.9500 1.5650
v 0.4200 0.1000 1.5250
v 0.4200 0.1000 1.5650
v 0.4200 1.9500 1.5250
v 0.4200 1.9500 1.5650
v 0.3152 0.5965 1.5600
v 0.3152 0.5965 1.5800
v -0.3918 1.4392 1.5600
v -0.3918 1.4392 1.5800
v 0.3918 0.6608 1.5600
v 0.3918 0.6608 1.5800
v -0.3152 1.5035 1.5600
v -0.3152 1.5035 1.5800
v -0.3918 0.6608 1.5600
v -0.3918 0.6608 1.5800
v 0.3152 1.5035 1.5600
v 0.3152 1.5035 1.5800
v -0.3152 0.5965 1.5600
v -0.3152 0.5965 1.5800
v 0.3918 1.4392 1.5600
v 0.3918 1.4392 1.5800
v -0.4200 0.3750 1.5650
v -0.4200 0.3750 1.5850
v -0.4200 0.4250 1.5650
v -0.4200 0.4250 1.5850
v -0.2800 0.3750 1.5650
v -0.2800 0.3750 1.5850
v -0.2800 0.4250 1.5650
v -0.2800 0.4250 1.5850
v -0.4200 1.0250 1.5650
v -0.4200 1.0250 1.5850
v -0.4200 1.0750 1.5650
v -0.4200 1.0750 1.5850
v -0.2800 1.0250 1.5650
v -0.2800 1.0250 1.5850
v -0.2800 1.0750 1.5650
v -0.2800 1.0750 1.5850
v -0.4200 1.6750 1.5650
v -0.4200 1.6750 1.5850
v -0.4200 1.7250 1.5650
v -0.4200 1.7250 1.5850
v -0.2800 1.6750 1.5650
v -0.2800 1.6750 1.5850
v -0.2800 1.7250 1.5650
v -0.2800 1.7250 1.5850
v 0.2800 0.9600 1.5650
v 0.2800 0.9600 1.5950
v 0.2800 1.0400 1.5650
v 0.2800 1.0400 1.5950
v 0.3200 0.9600 1.5650
v 0.3200 0.9600 1.5950
v 0.3200 1.0400 1.5650
v 0.3200 1.0400 1.5950
v -0.1800 2.3200 1.5200
v -0.1800 2.3200 1.5400
v -0.1800 2.5800 1.5200
v -0.1800 2.5800 1.5400
v 0.1800 2.3200 1.5200
v 0.1800 2.3200 1.5400
v 0.1800 2.5800 1.5200
v 0.1800 2.5800 1.5400
v -0.1500 2.3500 1.5200
v -0.1500 2.3500 1.5500
v -0.1500 2.5500 1.5200
v -0.1500 2.5500 1.5500
v 0.1500 2.3500 1.5200
v 0.1500 2.3500 1.5500
v 0.1500 2.5500 1.5200
v 0.1500 2.5500 1.5500
v -0.5500 0.1000 1.5750
v -0.5500 0.0000 1.5750
v -0.5500 0.0000 1.7500
v 0.5500 0.1000 1.5750
v 0.5500 0.0000 1.5750
v 0.5500 0.0000 1.7500
v 1.1900 1.1200 -0.6300
v 1.1900 1.1200 0.0300
v 1.1900 1.7800 -0.6300
v 1.1900 1.7800 0.0300
v 1.2500 1.1200 -0.6300
v 1.2500 1.1200 0.0300
v 1.2500 1.7800 -0.6300
v 1.2500 1.7800 0.0300
v 1.2250 1.1700 -0.5800
v 1.2250 1.1700 -0.0200
v 1.2250 1.7300 -0.5800
v 1.2250 1.7300 -0.0200
v 1.2550 1.1700 -0.5800
v 1.2550 1.1700 -0.0200
v 1.2550 1.7300 -0.5800
v 1.2550 1.7300 -0.0200
v 1.2275 1.1700 -0.3200
v 1.2275 1.1700 -0.2800
v 1.2275 1.7300 -0.3200
v 1.2275 1.7300 -0.2800
v 1.2625 1.1700 -0.3200
v 1.2625 1.1700 -0.2800
v 1.2625 1.7300 -0.3200
v 1.2625 1.7300 -0.2800
v 1.2275 1.4300 -0.5800
v 1.2275 1.4300 -0.0200
v 1.2275 1.4700 -0.5800
v 1.2275 1.4700 -0.0200
v 1.2625 1.4300 -0.5800
v 1.2625 1.4300 -0.0200
v 1.2625 1.4700 -0.5800
v 1.2625 1.4700 -0.0200
usemtl shed_pad
f 2 1 3
f 8 9 7
f 20 19 21
f 14 15 13
f 11 10 12
f 16 18 17
f 5 6 4
f 24 22 23
f 13 1 2
f 2 8 13
f 13 20 14
f 7 19 13
f 13 8 7
f 19 20 13
f 18 16 4
f 18 6 3
f 18 3 1
f 1 13 18
f 4 6 18
f 18 13 15
f 22 19 7
f 7 9 22
f 24 21 22
f 22 9 12
f 21 19 22
f 12 10 22
f 12 9 5
f 2 3 5
f 5 8 2
f 3 6 5
f 9 8 5
f 5 11 12
f 23 21 24
f 23 15 14
f 14 20 23
f 23 20 21
f 23 18 15
f 23 17 18
f 4 16 23
f 23 22 10
f 16 17 23
f 10 11 23
f 23 5 4
f 11 5 23
usemtl shed_siding
f 25 27 31
f 31 29 25
f 25 29 30
f 30 26 25
f 29 31 30
f 30 31 32
f 28 27 25
f 25 26 28
f 28 31 27
f 32 31 28
f 26 30 28
f 28 30 32
usemtl shed_siding_dark
f 35 34 33
f 36 37 38
f 37 36 33
f 33 34 37
f 33 36 38
f 38 35 33
f 38 37 34
f 34 35 38
usemtl shed_roof
f 42 41 39
f 39 40 42
f 44 40 39
f 39 43 44
f 44 42 40
f 46 42 44
f 39 41 45
f 45 43 39
f 41 42 45
f 45 42 46
f 45 44 43
f 46 44 45
f 55 57 58
f 56 55 58
f 60 55 56
f 60 59 55
f 56 58 60
f 60 58 62
f 61 57 55
f 55 59 61
f 61 58 57
f 62 58 61
f 59 60 61
f 61 60 62
usemtl shed_trim
f 47 49 53
f 53 51 47
f 47 51 52
f 52 48 47
f 51 53 52
f 52 53 54
f 50 49 47
f 47 48 50
f 50 53 49
f 54 53 50
f 48 52 50
f 50 52 54
f 63 65 69
f 69 67 63
f 63 67 68
f 68 64 63
f 67 69 68
f 68 69 70
f 66 65 63
f 63 64 66
f 66 69 65
f 70 69 66
f 64 68 66
f 66 68 70
f 79 81 85
f 85 83 79
f 79 83 84
f 84 80 79
f 83 85 84
f 84 85 86
f 82 81 79
f 79 80 82
f 82 85 81
f 86 85 82
f 80 84 82
f 82 84 86
f 87 89 93
f 93 91 87
f 87 91 92
f 92 88 87
f 91 93 92
f 92 93 94
f 90 89 87
f 87 88 90
f 90 93 89
f 94 93 90
f 88 92 90
f 90 92 94
f 95 97 101
f 101 99 95
f 95 99 100
f 100 96 95
f 99 101 100
f 100 101 102
f 98 97 95
f 95 96 98
f 98 101 97
f 102 101 98
f 96 100 98
f 98 100 102
f 103 105 109
f 109 107 103
f 103 107 108
f 108 104 103
f 107 109 108
f 108 109 110
f 106 105 103
f 103 104 106
f 106 109 105
f 110 109 106
f 104 108 106
f 106 108 110
f 111 113 117
f 117 115 111
f 111 115 116
f 116 112 111
f 115 117 116
f 116 117 118
f 114 113 111
f 111 112 114
f 114 117 113
f 118 117 114
f 112 116 114
f 114 116 118
f 175 177 181
f 181 179 175
f 175 179 180
f 180 176 175
f 179 181 180
f 180 181 182
f 178 177 175
f 175 176 178
f 178 181 177
f 182 181 178
f 176 180 178
f 178 180 182
f 197 199 203
f 203 201 197
f 197 201 202
f 202 198 197
f 201 203 202
f 202 203 204
f 200 199 197
f 197 198 200
f 200 203 199
f 204 203 200
f 198 202 200
f 200 202 204
f 213 215 219
f 219 217 213
f 213 217 218
f 218 214 213
f 217 219 218
f 218 219 220
f 216 215 213
f 213 214 216
f 216 219 215
f 220 219 216
f 214 218 216
f 216 218 220
f 221 223 227
f 227 225 221
f 221 225 226
f 226 222 221
f 225 227 226
f 226 227 228
f 224 223 221
f 221 222 224
f 224 227 223
f 228 227 224
f 222 226 224
f 224 226 228
usemtl shed_roof_light
f 71 73 77
f 77 75 71
f 71 75 76
f 76 72 71
f 75 77 76
f 76 77 78
f 74 73 71
f 71 72 74
f 74 77 73
f 78 77 74
f 72 76 74
f 74 76 78
usemtl shed_door
f 119 121 125
f 125 123 119
f 119 123 124
f 124 120 119
f 123 125 124
f 124 125 126
f 122 121 119
f 119 120 122
f 122 125 121
f 126 125 122
f 120 124 122
f 122 124 126
usemtl wood_dark
f 131 127 133
f 133 127 129
f 129 127 130
f 127 128 130
f 130 133 129
f 134 133 130
f 132 127 131
f 132 128 127
f 131 133 132
f 132 133 134
f 132 130 128
f 134 130 132
f 140 136 135
f 135 139 140
f 137 139 135
f 141 139 137
f 142 140 139
f 142 139 141
f 135 136 138
f 138 137 135
f 136 140 138
f 140 142 138
f 141 137 138
f 138 142 141
usemtl galvanized
f 143 145 149
f 149 147 143
f 143 147 148
f 148 144 143
f 147 149 148
f 148 149 150
f 146 145 143
f 143 144 146
f 146 149 145
f 150 149 146
f 144 148 146
f 146 148 150
f 151 153 157
f 157 155 151
f 151 155 156
f 156 152 151
f 155 157 156
f 156 157 158
f 154 153 151
f 151 152 154
f 154 157 153
f 158 157 154
f 152 156 154
f 154 156 158
f 159 161 165
f 165 163 159
f 159 163 164
f 164 160 159
f 163 165 164
f 164 165 166
f 162 161 159
f 159 160 162
f 162 165 161
f 166 165 162
f 160 164 162
f 162 164 166
f 167 169 173
f 173 171 167
f 167 171 172
f 172 168 167
f 171 173 172
f 172 173 174
f 170 169 167
f 167 168 170
f 170 173 169
f 174 173 170
f 168 172 170
f 170 172 174
usemtl shed_vent
f 183 185 189
f 189 187 183
f 183 187 188
f 188 184 183
f 187 189 188
f 188 189 190
f 186 185 183
f 183 184 186
f 186 189 185
f 190 189 186
f 184 188 186
f 186 188 190
usemtl shed_ramp
f 191 192 193
f 196 195 194
f 195 192 191
f 191 194 195
f 196 194 191
f 191 193 196
f 192 195 196
f 196 193 192
usemtl shed_glass
f 205 207 211
f 211 209 205
f 205 209 210
f 210 206 205
f 209 211 210
f 210 211 212
f 208 207 205
f 205 206 208
f 208 211 207
f 212 211 208
f 206 210 208
f 208 210 212
