# tree.obj  Y-up, meters, origin at ground/wall contact
mtllib tree.mtl
v 0.7962 -0.0090 0.2231
v 0.5844 -0.0090 0.6480
v 0.1087 -0.0090 0.7529
v -0.2729 -0.0090 0.4589
v -0.2729 -0.0090 -0.0127
v 0.1087 -0.0090 -0.3068
v 0.5844 -0.0090 -0.2018
v 0.5505 0.3844 0.3705
v 0.3120 0.3844 0.5542
v 0.0147 0.3844 0.4887
v -0.1177 0.3844 0.2231
v 0.0147 0.3844 -0.0425
v 0.3120 0.3844 -0.1081
v 0.5505 0.3844 0.0757
v 0.6087 -0.0090 0.2231
v 0.4676 -0.0090 0.5064
v 0.1504 -0.0090 0.5763
v -0.1040 -0.0090 0.3803
v -0.1040 -0.0090 0.0659
v 0.1504 -0.0090 -0.1302
v 0.4676 -0.0090 -0.0602
v 0.4330 2.6466 0.2231
v 0.3580 2.6466 0.3736
v 0.1895 2.6466 0.4107
v 0.0544 2.6466 0.3066
v 0.0544 2.6466 0.1396
v 0.1895 2.6466 0.0354
v 0.3580 2.6466 0.0726
v 0.3639 2.5407 0.1773
v 0.3619 2.5065 0.3193
v 0.2634 2.4297 0.3889
v 0.1426 2.3680 0.3336
v 0.0905 2.3680 0.1951
v 0.1462 2.4297 0.0777
v 0.2679 2.5065 0.0698
v -0.9255 3.8873 0.6309
v -0.9264 3.8714 0.6971
v -0.9724 3.8355 0.7296
v -1.0288 3.8068 0.7038
v -1.0531 3.8068 0.6392
v -1.0271 3.8355 0.5844
v -0.9703 3.8714 0.5807
v 0.1076 2.5324 0.1527
v 0.2238 2.5013 0.0642
v 0.3475 2.4315 0.0954
v 0.3856 2.3755 0.2227
v 0.3094 2.3755 0.3503
v 0.1762 2.4315 0.3821
v 0.0864 2.5013 0.2942
v 1.1962 3.9561 0.7601
v 1.2504 3.9416 0.7188
v 1.3081 3.9090 0.7333
v 1.3259 3.8829 0.7927
v 1.2903 3.8829 0.8523
v 1.2282 3.9090 0.8671
v 1.1863 3.9416 0.8261
v 0.2221 2.5447 0.3527
v 0.0896 2.5090 0.2923
v 0.0657 2.4288 0.1798
v 0.1684 2.3644 0.0999
v 0.3203 2.3644 0.1127
v 0.4071 2.4288 0.2087
v 0.3634 2.5090 0.3155
v 0.3465 3.8503 -1.0215
v 0.2847 3.8337 -1.0497
v 0.2735 3.7962 -1.1022
v 0.3214 3.7662 -1.1395
v 0.3923 3.7662 -1.1335
v 0.4328 3.7962 -1.0887
v 0.4124 3.8337 -1.0389
v -0.4811 4.8293 0.5628
v 1.2165 4.8658 0.5628
v -0.6398 2.8486 0.5628
v 1.2931 2.9014 0.5628
v 0.3510 3.3651 1.8668
v 0.3510 4.5357 1.9843
v 0.3510 3.3078 -0.8747
v 0.3510 4.4950 -0.7640
v 1.9300 3.9252 -0.3804
v 1.7073 3.9252 1.3729
v -1.1049 3.9252 -0.3068
v -1.1500 3.9252 1.4592
v 0.3510 5.0858 0.5628
v 0.3510 2.7203 0.5628
v -0.2231 2.9158 1.4604
v 0.9535 2.8658 1.5049
v -0.1640 4.8306 1.3680
v 0.9134 4.9141 1.4422
v 0.3510 3.9252 2.3411
v -0.1651 3.0178 -0.2442
v 0.8290 3.0846 -0.1848
v -0.2538 4.9885 -0.3829
v 0.8677 4.8338 -0.2453
v 0.3510 3.9252 -1.0598
v 1.9064 4.5708 -0.0114
v 1.8018 3.3230 0.0272
v 1.2236 3.5630 -0.8018
v 1.2873 4.3138 -0.9014
v 1.6125 4.4488 1.0284
v 1.8433 3.3057 1.1137
v 1.2031 3.5715 1.8953
v 1.1434 4.2541 1.8019
v 2.1760 3.9252 0.5628
v -1.2180 4.5764 -0.0164
v -0.9709 3.3765 0.0748
v -0.5552 3.5491 -0.8542
v -0.4852 4.2722 -0.7447
v -1.1533 4.5496 1.1180
v -1.1466 3.3036 1.1156
v -0.4684 3.5851 1.8440
v -0.5973 4.3188 2.0456
v -1.4729 3.9252 0.5628
v 1.0174 4.3484 1.0102
v 2.4542 4.3741 1.0102
v 1.0587 2.7629 1.0102
v 2.4442 2.7009 1.0102
v 1.7246 3.0044 2.1659
v 1.7246 3.9691 1.9685
v 1.7246 3.0077 -0.1382
v 1.7246 4.0029 -0.0223
v 2.8156 3.5318 0.3586
v 2.7279 3.5318 1.6094
v 0.5762 3.5318 0.3242
v 0.6831 3.5318 1.6323
v 1.7246 4.5333 1.0102
v 1.7246 2.6617 1.0102
v 1.3205 2.7767 1.6422
v 2.1133 2.8057 1.6179
v 1.3156 4.2959 1.6498
v 2.0939 4.2216 1.5876
v 1.7246 3.5318 2.1601
v 1.3028 2.7437 0.3506
v 2.1470 2.7427 0.3498
v 1.3200 4.2877 0.3774
v 2.1631 4.3509 0.3245
v 1.7246 3.5318 -0.1473
v 2.8551 4.0303 0.5929
v 2.6844 3.1085 0.6559
v 2.4408 3.2159 -0.1097
v 2.3881 3.8244 -0.0273
v 2.7940 4.0034 1.4049
v 2.8850 3.0200 1.4385
v 2.4134 3.2280 2.0872
v 2.4138 3.8357 2.0879
v 2.8755 3.5318 1.0102
v 0.7147 3.9772 0.6374
v 0.7859 3.1178 0.6637
v 1.1277 3.2685 0.0767
v 1.1245 3.7964 0.0718
v 0.5923 4.0312 1.4282
v 0.7754 3.1132 1.3606
v 1.1117 3.2615 1.9687
v 1.0814 3.8155 2.0161
v 0.3278 3.5318 1.0102
v -0.8333 4.6965 1.8366
v 0.6313 4.6482 1.8366
v -0.7111 3.0983 1.8366
v 0.6048 3.0361 1.8366
v -0.0801 3.3195 2.9484
v -0.0801 4.2583 2.7821
v -0.0801 3.3225 0.7314
v -0.0801 4.2950 0.8106
v 1.0398 3.8268 1.1677
v 1.0608 3.8268 2.5180
v -1.2209 3.8268 1.1552
v -1.1824 3.8268 2.4950
v -0.0801 4.7585 1.8366
v -0.0801 2.9738 1.8366
v -0.4779 3.0837 2.4586
v 0.2823 3.1497 2.4033
v -0.4765 4.5674 2.4564
v 0.3216 4.5773 2.4647
v -0.0801 3.8268 3.1640
v -0.4682 3.1018 1.2297
v 0.2722 3.1686 1.2856
v -0.4810 4.5758 1.2097
v 0.2900 4.5182 1.2579
v -0.0801 3.8268 0.5190
v 0.9347 4.2744 1.4620
v 0.9326 3.3802 1.4628
v 0.6276 3.5147 0.7300
v 0.5477 4.1037 0.8549
v 0.9247 4.2700 2.2075
v 0.9245 3.3838 2.2074
v 0.5613 3.5440 2.8395
v 0.5014 4.0833 2.7458
v 1.2231 3.8268 1.8366
v -1.2282 4.3331 1.4128
v -1.1385 3.3601 1.4459
v -0.7622 3.5260 0.7700
v -0.7936 4.1415 0.7208
v -1.2083 4.3244 2.2531
v -1.1838 3.3401 2.2440
v -0.7729 3.5213 2.9199
v -0.7740 4.1328 2.9216
v -1.2927 3.8268 1.8366
v -2.1256 4.9008 0.4332
v -0.7991 4.8746 0.4332
v -2.0898 3.3844 0.4332
v -0.7619 3.3262 0.4332
v -1.4510 3.6596 1.4463
v -1.4510 4.6191 1.5228
v -1.4510 3.6289 -0.6473
v -1.4510 4.5595 -0.5257
v -0.3699 4.1219 -0.2126
v -0.3837 4.1219 1.0707
v -2.6017 4.1219 -0.2541
v -2.4389 4.1219 1.0232
v -1.4510 4.9685 0.4332
v -1.4510 3.1995 0.4332
v -1.8402 3.3949 1.0417
v -1.0370 3.3484 1.0806
v -1.8333 4.8360 1.0309
v -1.0817 4.8118 1.0107
v -1.4510 4.1219 1.8077
v -1.8248 3.4236 -0.1513
v -1.0865 3.4409 -0.1368
v -1.8282 4.8266 -0.1567
v -1.0681 4.8373 -0.1656
v -1.4510 4.1219 -0.7301
v -0.3993 4.5857 0.0449
v -0.2991 3.6139 0.0079
v -0.8645 3.8632 -0.4840
v -0.8198 4.4003 -0.5539
v -0.3663 4.6003 0.8336
v -0.3121 3.6196 0.8536
v -0.7294 3.8036 1.5617
v -0.8618 4.3818 1.3546
v -0.1508 4.1219 0.4332
v -2.5890 4.6238 0.0131
v -2.3818 3.7114 0.0896
v -2.1091 3.8317 -0.5958
v -2.0450 4.3838 -0.4956
v -2.5607 4.6113 0.8428
v -2.6032 3.6138 0.8585
v -2.1013 3.8351 1.4500
v -2.0195 4.3726 1.3220
v -2.6050 4.1219 0.4332
v -1.1574 4.2982 -1.2606
v 0.2404 4.3792 -1.2606
v -1.1283 2.7989 -1.2606
v 0.2114 2.7177 -1.2606
v -0.4936 3.0593 -0.2252
v -0.4936 3.9880 -0.2608
v -0.4936 3.0246 -2.3719
v -0.4936 3.9930 -2.2713
v 0.5690 3.5318 -1.8952
v 0.6725 3.5318 -0.5641
v -1.5886 3.5318 -1.9146
v -1.6646 3.5318 -0.5612
v -0.4936 4.4550 -1.2606
v -0.4936 2.6872 -1.2606
v -0.8865 2.7978 -0.6462
v -0.0597 2.7212 -0.5821
v -0.8980 4.2873 -0.6281
v -0.0509 4.3588 -0.5684
v -0.4936 3.5318 -0.1642
v -0.8766 2.8163 -1.8595
v -0.0696 2.7397 -1.9235
v -0.9096 4.3090 -1.9111
v -0.0895 4.2866 -1.8924
v -0.4936 3.5318 -2.5550
v 0.6432 4.0331 -1.6802
v 0.5950 3.0517 -1.6624
v 0.1581 3.2444 -2.2796
v 0.1604 3.8202 -2.2833
v 0.5907 4.0099 -0.8603
v 0.5050 3.0914 -0.8920
v 0.1770 3.2360 -0.2120
v 0.1686 3.8238 -0.2251
v 0.8836 3.5318 -1.2606
v -1.5313 3.9894 -1.6436
v -1.4179 3.1242 -1.6018
v -1.1437 3.2451 -2.2771
v -1.1933 3.8403 -2.3547
v -1.5712 4.0070 -0.8628
v -1.5721 3.0561 -0.8624
v -1.1211 3.2550 -0.2793
v -1.1158 3.8062 -0.2876
v -1.8500 3.5318 -1.2606
v 0.8602 4.5298 -0.9040
v 2.2062 4.6779 -0.9040
v 0.7304 2.9739 -0.9040
v 2.2218 2.9577 -0.9040
v 1.4691 3.3856 0.0629
v 1.4691 4.2657 0.0577
v 1.4691 3.2976 -2.0636
v 1.4691 4.2988 -1.9383
v 2.5049 3.8268 -1.5227
v 2.5344 3.8268 -0.2677
v 0.3308 3.8268 -1.5838
v 0.4619 3.8268 -0.3024
v 1.4691 4.7436 -0.9040
v 1.4691 2.8719 -0.9040
v 1.0497 3.0434 -0.2482
v 1.8207 3.1699 -0.3541
v 1.0411 4.6263 -0.2348
v 1.8610 4.5591 -0.2911
v 1.4691 3.8268 0.3223
v 1.0649 3.0717 -1.5360
v 1.8463 3.1221 -1.4938
v 1.0339 4.6399 -1.5845
v 1.8398 4.5194 -1.4837
v 1.4691 3.8268 -2.1622
v 2.4286 4.2500 -1.2582
v 2.5408 3.3542 -1.2996
v 2.1756 3.5152 -2.0088
v 2.1726 4.1371 -2.0041
v 2.4203 4.2463 -0.5528
v 2.5429 3.3532 -0.5075
v 2.1742 3.5159 0.1986
v 2.0671 4.0906 0.0312
v 2.7315 3.8268 -0.9040
v 0.3731 4.3102 -1.3085
v 0.3669 3.3407 -1.3108
v 0.8323 3.5460 -1.8998
v 0.8033 4.1205 -1.9451
v 0.3842 4.3053 -0.5035
v 0.4632 3.3832 -0.5327
v 0.8012 3.5323 0.1404
v 0.8127 4.1163 0.1224
v 0.1193 3.8268 -0.9040
v 0.3809 5.3047 -0.0034
v 1.4693 5.2778 -0.0034
v 0.3911 4.0329 -0.0034
v 1.5473 3.9579 -0.0034
v 0.9368 4.2969 0.7985
v 0.9368 5.0250 0.7903
v 0.9368 4.3136 -0.7687
v 0.9368 5.0918 -0.9435
v 1.9389 4.6628 -0.6019
v 1.7770 4.6628 0.4985
v 0.0902 4.6628 -0.5090
v 0.1047 4.6628 0.4936
v 0.9368 5.4334 -0.0034
v 0.9368 3.9131 -0.0034
v 0.5858 4.0073 0.5453
v 1.2399 4.0965 0.4706
v 0.5814 5.3268 0.5524
v 1.2598 5.2663 0.5017
v 0.9368 4.6628 1.0910
v 0.5873 4.0100 -0.5498
v 1.2947 3.9941 -0.5631
v 0.6110 5.2714 -0.5127
v 1.2712 5.2876 -0.5263
v 0.9368 4.6628 -1.0373
v 1.7264 5.0111 -0.2949
v 1.7901 4.2865 -0.3184
v 1.5179 4.4065 -0.9122
v 1.5157 4.9182 -0.9087
v 1.6918 4.9959 0.2754
v 1.8232 4.2719 0.3239
v 1.4420 4.4400 0.7868
v 1.4179 4.8750 0.7490
v 1.8999 4.6628 -0.0034
v 0.0233 5.0657 -0.3406
v -0.0103 4.2452 -0.3530
v 0.4070 4.4292 -0.8318
v 0.4243 4.8889 -0.8047
v 0.0817 5.0399 0.3123
v 0.0163 4.2569 0.3364
v 0.3783 4.4166 0.8699
v 0.4647 4.8710 0.7348
v -0.0449 4.6628 -0.0034
v -1.1896 5.3594 0.7892
v -0.0329 5.3018 0.7892
v -1.1616 3.9986 0.7892
v 0.0050 3.9802 0.7892
v -0.5863 4.2543 1.6845
v -0.5863 5.0806 1.7047
v -0.5863 4.2629 -0.0871
v -0.5863 5.0327 -0.0213
v 0.2433 4.6628 0.2937
v 0.4169 4.6628 1.3884
v -1.3779 4.6628 0.3164
v -1.5244 4.6628 1.3495
v -0.5863 5.4840 0.7892
v -0.5863 3.9589 0.7892
v -0.8768 4.1201 1.2435
v -0.2684 4.0689 1.2864
v -0.8988 5.2467 1.2779
v -0.2635 5.2660 1.2940
v -0.5863 4.6628 1.7905
v -0.9467 3.9896 0.2256
v -0.2902 4.1097 0.3262
v -0.9469 5.3364 0.2254
v -0.2960 5.2052 0.3352
v -0.5863 4.6628 -0.3370
v 0.2325 5.0240 0.4869
v 0.3132 4.2661 0.4572
v -0.1220 4.4581 0.0631
v -0.0658 4.8924 -0.0248
v 0.3031 5.0551 1.1175
v 0.2930 4.2751 1.1138
v -0.0203 4.4132 1.6742
v -0.1029 4.8760 1.5451
v 0.4431 4.6628 0.7892
v -1.4626 5.0493 0.4657
v -1.3429 4.3292 0.5099
v -1.1560 4.4116 -0.1016
v -1.1029 4.8907 -0.0186
v -1.3874 5.0161 1.0849
v -1.3825 4.3117 1.0831
v -1.1326 4.4219 1.6435
v -1.0563 4.8701 1.5242
v -1.5761 4.6628 0.7892
v -0.0601 5.2728 1.2421
v 0.9903 5.2658 1.2421
v -0.1169 3.9874 1.2421
v 1.0348 4.0086 1.2421
v 0.4681 4.2289 2.1930
v 0.4681 5.0775 2.1508
v 0.4681 4.2868 0.4180
v 0.4681 5.0417 0.4118
v 1.2840 4.6628 0.7548
v 1.3096 4.6628 1.7447
v -0.4514 4.6628 0.6929
v -0.4786 4.6628 1.8075
v 0.4681 5.3784 1.2421
v 0.4681 3.9386 1.2421
v 0.1186 4.0099 1.7887
v 0.8298 3.9872 1.8077
v 0.1748 5.2109 1.7008
v 0.7604 5.2089 1.6992
v 0.4681 4.6628 2.3245
v 0.1426 4.0548 0.7331
v 0.7881 4.0651 0.7418
v 0.1318 5.2911 0.7163
v 0.8143 5.3096 0.7008
v 0.4681 4.6628 0.3283
v 1.4157 5.0808 0.8923
v 1.4149 4.2453 0.8926
v 0.9848 4.4350 0.4342
v 0.9915 4.8937 0.4237
v 1.2745 5.0185 1.5398
v 1.3391 4.2787 1.5636
v 0.9580 4.4468 2.0082
v 0.9997 4.8973 2.0734
v 1.6249 4.6628 1.2421
v -0.3862 5.0396 0.9267
v -0.4519 4.2571 0.9025
v -0.0185 4.4482 0.4812
v -0.1076 4.9168 0.3418
v -0.3078 5.0050 1.5285
v -0.3261 4.3126 1.5353
v -0.0870 4.4180 2.1101
v -0.0340 4.8843 2.0273
v -0.4899 4.6628 1.2421
v -1.6160 3.4541 -0.7959
v -0.6447 3.5506 -0.7959
v -1.6081 2.4383 -0.7959
v -0.7318 2.4333 -0.7959
v -1.1721 2.5524 0.0570
v -1.1721 3.3171 0.0268
v -1.1721 2.6010 -1.5425
v -1.1721 3.2673 -1.5096
v -0.3046 2.9416 -1.3141
v -0.3198 2.9416 -0.2869
v -2.0016 2.9416 -1.2914
v -1.9752 2.9416 -0.3163
v -1.1721 3.6145 -0.7959
v -1.1721 2.1961 -0.7959
v -1.4633 2.3977 -0.3406
v -0.9114 2.4546 -0.3883
v -1.4322 3.4275 -0.3893
v -0.8758 3.4951 -0.3327
v -1.1721 2.9416 0.1604
v -1.4706 2.3839 -1.2628
v -0.8656 2.3690 -1.2752
v -1.4474 3.4560 -1.2265
v -0.8914 3.4660 -1.2348
v -1.1721 2.9416 -1.6507
v -0.4370 3.2658 -1.0673
v -0.4563 2.6260 -1.0602
v -0.6659 2.7184 -1.5875
v -0.7431 3.1308 -1.4668
v -0.4670 3.2526 -0.5357
v -0.3749 2.5901 -0.5017
v -0.7149 2.7400 -0.0811
v -0.7213 3.1404 -0.0911
v -0.1281 2.9416 -0.7959
v -2.0020 3.3077 -1.1023
v -1.8792 2.6298 -1.0570
v -1.6020 2.7521 -1.4681
v -1.6399 3.1479 -1.5274
v -1.9439 3.2820 -0.5111
v -1.9025 2.6195 -0.5263
v -1.6510 2.7304 -0.0471
v -1.6608 3.1572 -0.0318
v -2.1801 2.9416 -0.7959
v 1.3235 3.4912 1.1289
v 2.2349 3.5428 1.1289
v 1.3439 2.5140 1.1289
v 2.1706 2.5132 1.1289
v 1.7569 2.6964 1.7742
v 1.7569 3.2901 1.7847
v 1.7569 2.6389 0.3577
v 1.7569 3.3102 0.4289
v 2.5030 2.9908 0.6832
v 2.4955 2.9908 1.5701
v 1.0620 2.9908 0.7138
v 1.0909 2.9908 1.5267
v 1.7569 3.5700 1.1289
v 1.7569 2.3099 1.1289
v 1.4958 2.5032 1.5370
v 2.0232 2.4932 1.5454
v 1.5007 3.4694 1.5295
v 2.0441 3.5274 1.5781
v 1.7569 2.9908 2.0193
v 1.4929 2.4977 0.7161
v 2.0288 2.4828 0.7036
v 1.4921 3.4854 0.7149
v 2.0332 3.5070 0.6968
v 1.7569 2.9908 0.2606
v 2.4809 3.3102 0.8616
v 2.5363 2.6471 0.8412
v 2.2437 2.7761 0.3676
v 2.1489 3.1637 0.5158
v 2.4472 3.2953 1.3837
v 2.3893 2.7119 1.3624
v 2.1830 2.8029 1.7952
v 2.2282 3.1987 1.8659
v 2.6734 2.9908 1.1289
v 1.0345 3.3094 0.8622
v 1.1166 2.7084 0.8925
v 1.2847 2.7826 0.3905
v 1.3057 3.1898 0.4233
v 1.0797 3.2895 1.3789
v 0.9973 2.6558 1.4093
v 1.3661 2.8185 1.7399
v 1.3505 3.1700 1.7644
v 0.8172 2.9908 1.1289
usemtl bark_dark
f 1 8 2
f 4 11 5
f 9 2 8
f 13 7 6
f 2 9 3
f 6 5 12
f 12 5 11
f 12 13 6
f 1 7 14
f 14 8 1
f 7 13 14
f 4 3 10
f 10 11 4
f 10 3 9
f 4 5 3
f 3 7 1
f 1 2 3
f 6 7 3
f 3 5 6
f 8 14 10
f 10 9 8
f 10 12 11
f 13 12 10
f 10 14 13
f 31 39 32
f 38 39 31
f 32 39 33
f 33 39 40
f 41 33 40
f 34 33 41
f 30 35 29
f 32 33 30
f 30 34 35
f 30 31 32
f 30 33 34
f 29 35 42
f 42 36 29
f 35 34 42
f 34 41 42
f 37 39 38
f 36 42 37
f 40 39 37
f 37 41 40
f 37 42 41
f 38 31 37
f 31 30 37
f 37 30 29
f 29 36 37
usemtl bark
f 15 21 28
f 28 22 15
f 18 19 17
f 17 21 15
f 15 16 17
f 20 21 17
f 17 19 20
f 25 19 18
f 26 19 25
f 18 17 25
f 25 17 24
f 23 16 15
f 15 22 23
f 23 17 16
f 24 17 23
f 22 28 27
f 26 25 27
f 27 23 22
f 27 25 24
f 24 23 27
f 20 19 27
f 27 19 26
f 27 21 20
f 27 28 21
f 43 48 49
f 46 47 43
f 43 45 46
f 44 45 43
f 43 47 48
f 46 45 52
f 53 46 52
f 56 43 49
f 50 43 56
f 49 48 56
f 48 55 56
f 54 47 46
f 54 46 53
f 48 47 54
f 54 55 48
f 53 52 51
f 50 56 51
f 51 54 53
f 51 56 55
f 55 54 51
f 44 43 51
f 51 43 50
f 51 45 44
f 51 52 45
f 59 60 58
f 60 61 58
f 58 63 57
f 62 63 58
f 58 61 62
f 70 63 62
f 70 62 69
f 59 58 66
f 66 58 65
f 66 60 59
f 66 67 60
f 62 61 68
f 69 62 68
f 68 61 60
f 60 67 68
f 64 70 69
f 64 66 65
f 69 68 64
f 67 66 64
f 64 68 67
f 64 58 57
f 65 58 64
f 57 63 64
f 63 70 64
usemtl leaf
f 71 108 87
f 108 82 111
f 87 111 76
f 108 111 87
f 71 87 83
f 87 76 88
f 83 88 72
f 87 88 83
f 71 83 92
f 83 72 93
f 92 93 78
f 83 93 92
f 71 92 104
f 92 78 107
f 104 107 81
f 92 107 104
f 71 104 108
f 104 81 112
f 108 112 82
f 104 112 108
f 72 88 99
f 88 76 102
f 99 102 80
f 88 102 99
f 76 111 89
f 111 82 110
f 89 110 75
f 111 110 89
f 82 112 109
f 112 81 105
f 109 105 73
f 112 105 109
f 81 107 106
f 107 78 94
f 106 94 77
f 107 94 106
f 78 93 98
f 93 72 95
f 98 95 79
f 93 95 98
f 74 100 86
f 100 80 101
f 86 101 75
f 100 101 86
f 74 86 84
f 86 75 85
f 84 85 73
f 86 85 84
f 74 84 91
f 84 73 90
f 91 90 77
f 84 90 91
f 74 91 96
f 91 77 97
f 96 97 79
f 91 97 96
f 74 96 100
f 96 79 103
f 100 103 80
f 96 103 100
f 75 101 89
f 101 80 102
f 89 102 76
f 101 102 89
f 73 85 109
f 85 75 110
f 109 110 82
f 85 110 109
f 77 90 106
f 90 73 105
f 106 105 81
f 90 105 106
f 79 97 98
f 97 77 94
f 98 94 78
f 97 94 98
f 80 103 99
f 103 79 95
f 99 95 72
f 103 95 99
f 113 150 129
f 150 124 153
f 129 153 118
f 150 153 129
f 113 129 125
f 129 118 130
f 125 130 114
f 129 130 125
f 113 125 134
f 125 114 135
f 134 135 120
f 125 135 134
f 113 134 146
f 134 120 149
f 146 149 123
f 134 149 146
f 113 146 150
f 146 123 154
f 150 154 124
f 146 154 150
f 114 130 141
f 130 118 144
f 141 144 122
f 130 144 141
f 118 153 131
f 153 124 152
f 131 152 117
f 153 152 131
f 124 154 151
f 154 123 147
f 151 147 115
f 154 147 151
f 123 149 148
f 149 120 136
f 148 136 119
f 149 136 148
f 120 135 140
f 135 114 137
f 140 137 121
f 135 137 140
f 116 142 128
f 142 122 143
f 128 143 117
f 142 143 128
f 116 128 126
f 128 117 127
f 126 127 115
f 128 127 126
f 116 126 133
f 126 115 132
f 133 132 119
f 126 132 133
f 116 133 138
f 133 119 139
f 138 139 121
f 133 139 138
f 116 138 142
f 138 121 145
f 142 145 122
f 138 145 142
f 117 143 131
f 143 122 144
f 131 144 118
f 143 144 131
f 115 127 151
f 127 117 152
f 151 152 124
f 127 152 151
f 119 132 148
f 132 115 147
f 148 147 123
f 132 147 148
f 121 139 140
f 139 119 136
f 140 136 120
f 139 136 140
f 122 145 141
f 145 121 137
f 141 137 114
f 145 137 141
f 197 234 213
f 234 208 237
f 213 237 202
f 234 237 213
f 197 213 209
f 213 202 214
f 209 214 198
f 213 214 209
f 197 209 218
f 209 198 219
f 218 219 204
f 209 219 218
f 197 218 230
f 218 204 233
f 230 233 207
f 218 233 230
f 197 230 234
f 230 207 238
f 234 238 208
f 230 238 234
f 198 214 225
f 214 202 228
f 225 228 206
f 214 228 225
f 202 237 215
f 237 208 236
f 215 236 201
f 237 236 215
f 208 238 235
f 238 207 231
f 235 231 199
f 238 231 235
f 207 233 232
f 233 204 220
f 232 220 203
f 233 220 232
f 204 219 224
f 219 198 221
f 224 221 205
f 219 221 224
f 200 226 212
f 226 206 227
f 212 227 201
f 226 227 212
f 200 212 210
f 212 201 211
f 210 211 199
f 212 211 210
f 200 210 217
f 210 199 216
f 217 216 203
f 210 216 217
f 200 217 222
f 217 203 223
f 222 223 205
f 217 223 222
f 200 222 226
f 222 205 229
f 226 229 206
f 222 229 226
f 201 227 215
f 227 206 228
f 215 228 202
f 227 228 215
f 199 211 235
f 211 201 236
f 235 236 208
f 211 236 235
f 203 216 232
f 216 199 231
f 232 231 207
f 216 231 232
f 205 223 224
f 223 203 220
f 224 220 204
f 223 220 224
f 206 229 225
f 229 205 221
f 225 221 198
f 229 221 225
f 281 318 297
f 318 292 321
f 297 321 286
f 318 321 297
f 281 297 293
f 297 286 298
f 293 298 282
f 297 298 293
f 281 293 302
f 293 282 303
f 302 303 288
f 293 303 302
f 281 302 314
f 302 288 317
f 314 317 291
f 302 317 314
f 281 314 318
f 314 291 322
f 318 322 292
f 314 322 318
f 282 298 309
f 298 286 312
f 309 312 290
f 298 312 309
f 286 321 299
f 321 292 320
f 299 320 285
f 321 320 299
f 292 322 319
f 322 291 315
f 319 315 283
f 322 315 319
f 291 317 316
f 317 288 304
f 316 304 287
f 317 304 316
f 288 303 308
f 303 282 305
f 308 305 289
f 303 305 308
f 284 310 296
f 310 290 311
f 296 311 285
f 310 311 296
f 284 296 294
f 296 285 295
f 294 295 283
f 296 295 294
f 284 294 301
f 294 283 300
f 301 300 287
f 294 300 301
f 284 301 306
f 301 287 307
f 306 307 289
f 301 307 306
f 284 306 310
f 306 289 313
f 310 313 290
f 306 313 310
f 285 311 299
f 311 290 312
f 299 312 286
f 311 312 299
f 283 295 319
f 295 285 320
f 319 320 292
f 295 320 319
f 287 300 316
f 300 283 315
f 316 315 291
f 300 315 316
f 289 307 308
f 307 287 304
f 308 304 288
f 307 304 308
f 290 313 309
f 313 289 305
f 309 305 282
f 313 305 309
usemtl leaf_dark
f 155 192 171
f 192 166 195
f 171 195 160
f 192 195 171
f 155 171 167
f 171 160 172
f 167 172 156
f 171 172 167
f 155 167 176
f 167 156 177
f 176 177 162
f 167 177 176
f 155 176 188
f 176 162 191
f 188 191 165
f 176 191 188
f 155 188 192
f 188 165 196
f 192 196 166
f 188 196 192
f 156 172 183
f 172 160 186
f 183 186 164
f 172 186 183
f 160 195 173
f 195 166 194
f 173 194 159
f 195 194 173
f 166 196 193
f 196 165 189
f 193 189 157
f 196 189 193
f 165 191 190
f 191 162 178
f 190 178 161
f 191 178 190
f 162 177 182
f 177 156 179
f 182 179 163
f 177 179 182
f 158 184 170
f 184 164 185
f 170 185 159
f 184 185 170
f 158 170 168
f 170 159 169
f 168 169 157
f 170 169 168
f 158 168 175
f 168 157 174
f 175 174 161
f 168 174 175
f 158 175 180
f 175 161 181
f 180 181 163
f 175 181 180
f 158 180 184
f 180 163 187
f 184 187 164
f 180 187 184
f 159 185 173
f 185 164 186
f 173 186 160
f 185 186 173
f 157 169 193
f 169 159 194
f 193 194 166
f 169 194 193
f 161 174 190
f 174 157 189
f 190 189 165
f 174 189 190
f 163 181 182
f 181 161 178
f 182 178 162
f 181 178 182
f 164 187 183
f 187 163 179
f 183 179 156
f 187 179 183
f 239 276 255
f 276 250 279
f 255 279 244
f 276 279 255
f 239 255 251
f 255 244 256
f 251 256 240
f 255 256 251
f 239 251 260
f 251 240 261
f 260 261 246
f 251 261 260
f 239 260 272
f 260 246 275
f 272 275 249
f 260 275 272
f 239 272 276
f 272 249 280
f 276 280 250
f 272 280 276
f 240 256 267
f 256 244 270
f 267 270 248
f 256 270 267
f 244 279 257
f 279 250 278
f 257 278 243
f 279 278 257
f 250 280 277
f 280 249 273
f 277 273 241
f 280 273 277
f 249 275 274
f 275 246 262
f 274 262 245
f 275 262 274
f 246 261 266
f 261 240 263
f 266 263 247
f 261 263 266
f 242 268 254
f 268 248 269
f 254 269 243
f 268 269 254
f 242 254 252
f 254 243 253
f 252 253 241
f 254 253 252
f 242 252 259
f 252 241 258
f 259 258 245
f 252 258 259
f 242 259 264
f 259 245 265
f 264 265 247
f 259 265 264
f 242 264 268
f 264 247 271
f 268 271 248
f 264 271 268
f 243 269 257
f 269 248 270
f 257 270 244
f 269 270 257
f 241 253 277
f 253 243 278
f 277 278 250
f 253 278 277
f 245 258 274
f 258 241 273
f 274 273 249
f 258 273 274
f 247 265 266
f 265 245 262
f 266 262 246
f 265 262 266
f 248 271 267
f 271 247 263
f 267 263 240
f 271 263 267
f 449 486 465
f 486 460 489
f 465 489 454
f 486 489 465
f 449 465 461
f 465 454 466
f 461 466 450
f 465 466 461
f 449 461 470
f 461 450 471
f 470 471 456
f 461 471 470
f 449 470 482
f 470 456 485
f 482 485 459
f 470 485 482
f 449 482 486
f 482 459 490
f 486 490 460
f 482 490 486
f 450 466 477
f 466 454 480
f 477 480 458
f 466 480 477
f 454 489 467
f 489 460 488
f 467 488 453
f 489 488 467
f 460 490 487
f 490 459 483
f 487 483 451
f 490 483 487
f 459 485 484
f 485 456 472
f 484 472 455
f 485 472 484
f 456 471 476
f 471 450 473
f 476 473 457
f 471 473 476
f 452 478 464
f 478 458 479
f 464 479 453
f 478 479 464
f 452 464 462
f 464 453 463
f 462 463 451
f 464 463 462
f 452 462 469
f 462 451 468
f 469 468 455
f 462 468 469
f 452 469 474
f 469 455 475
f 474 475 457
f 469 475 474
f 452 474 478
f 474 457 481
f 478 481 458
f 474 481 478
f 453 479 467
f 479 458 480
f 467 480 454
f 479 480 467
f 451 463 487
f 463 453 488
f 487 488 460
f 463 488 487
f 455 468 484
f 468 451 483
f 484 483 459
f 468 483 484
f 457 475 476
f 475 455 472
f 476 472 456
f 475 472 476
f 458 481 477
f 481 457 473
f 477 473 450
f 481 473 477
f 491 528 507
f 528 502 531
f 507 531 496
f 528 531 507
f 491 507 503
f 507 496 508
f 503 508 492
f 507 508 503
f 491 503 512
f 503 492 513
f 512 513 498
f 503 513 512
f 491 512 524
f 512 498 527
f 524 527 501
f 512 527 524
f 491 524 528
f 524 501 532
f 528 532 502
f 524 532 528
f 492 508 519
f 508 496 522
f 519 522 500
f 508 522 519
f 496 531 509
f 531 502 530
f 509 530 495
f 531 530 509
f 502 532 529
f 532 501 525
f 529 525 493
f 532 525 529
f 501 527 526
f 527 498 514
f 526 514 497
f 527 514 526
f 498 513 518
f 513 492 515
f 518 515 499
f 513 515 518
f 494 520 506
f 520 500 521
f 506 521 495
f 520 521 506
f 494 506 504
f 506 495 505
f 504 505 493
f 506 505 504
f 494 504 511
f 504 493 510
f 511 510 497
f 504 510 511
f 494 511 516
f 511 497 517
f 516 517 499
f 511 517 516
f 494 516 520
f 516 499 523
f 520 523 500
f 516 523 520
f 495 521 509
f 521 500 522
f 509 522 496
f 521 522 509
f 493 505 529
f 505 495 530
f 529 530 502
f 505 530 529
f 497 510 526
f 510 493 525
f 526 525 501
f 510 525 526
f 499 517 518
f 517 497 514
f 518 514 498
f 517 514 518
f 500 523 519
f 523 499 515
f 519 515 492
f 523 515 519
usemtl leaf_light
f 323 360 339
f 360 334 363
f 339 363 328
f 360 363 339
f 323 339 335
f 339 328 340
f 335 340 324
f 339 340 335
f 323 335 344
f 335 324 345
f 344 345 330
f 335 345 344
f 323 344 356
f 344 330 359
f 356 359 333
f 344 359 356
f 323 356 360
f 356 333 364
f 360 364 334
f 356 364 360
f 324 340 351
f 340 328 354
f 351 354 332
f 340 354 351
f 328 363 341
f 363 334 362
f 341 362 327
f 363 362 341
f 334 364 361
f 364 333 357
f 361 357 325
f 364 357 361
f 333 359 358
f 359 330 346
f 358 346 329
f 359 346 358
f 330 345 350
f 345 324 347
f 350 347 331
f 345 347 350
f 326 352 338
f 352 332 353
f 338 353 327
f 352 353 338
f 326 338 336
f 338 327 337
f 336 337 325
f 338 337 336
f 326 336 343
f 336 325 342
f 343 342 329
f 336 342 343
f 326 343 348
f 343 329 349
f 348 349 331
f 343 349 348
f 326 348 352
f 348 331 355
f 352 355 332
f 348 355 352
f 327 353 341
f 353 332 354
f 341 354 328
f 353 354 341
f 325 337 361
f 337 327 362
f 361 362 334
f 337 362 361
f 329 342 358
f 342 325 357
f 358 357 333
f 342 357 358
f 331 349 350
f 349 329 346
f 350 346 330
f 349 346 350
f 332 355 351
f 355 331 347
f 351 347 324
f 355 347 351
f 365 402 381
f 402 376 405
f 381 405 370
f 402 405 381
f 365 381 377
f 381 370 382
f 377 382 366
f 381 382 377
f 365 377 386
f 377 366 387
f 386 387 372
f 377 387 386
f 365 386 398
f 386 372 401
f 398 401 375
f 386 401 398
f 365 398 402
f 398 375 406
f 402 406 376
f 398 406 402
f 366 382 393
f 382 370 396
f 393 396 374
f 382 396 393
f 370 405 383
f 405 376 404
f 383 404 369
f 405 404 383
f 376 406 403
f 406 375 399
f 403 399 367
f 406 399 403
f 375 401 400
f 401 372 388
f 400 388 371
f 401 388 400
f 372 387 392
f 387 366 389
f 392 389 373
f 387 389 392
f 368 394 380
f 394 374 395
f 380 395 369
f 394 395 380
f 368 380 378
f 380 369 379
f 378 379 367
f 380 379 378
f 368 378 385
f 378 367 384
f 385 384 371
f 378 384 385
f 368 385 390
f 385 371 391
f 390 391 373
f 385 391 390
f 368 390 394
f 390 373 397
f 394 397 374
f 390 397 394
f 369 395 383
f 395 374 396
f 383 396 370
f 395 396 383
f 367 379 403
f 379 369 404
f 403 404 376
f 379 404 403
f 371 384 400
f 384 367 399
f 400 399 375
f 384 399 400
f 373 391 392
f 391 371 388
f 392 388 372
f 391 388 392
f 374 397 393
f 397 373 389
f 393 389 366
f 397 389 393
f 407 444 423
f 444 418 447
f 423 447 412
f 444 447 423
f 407 423 419
f 423 412 424
f 419 424 408
f 423 424 419
f 407 419 428
f 419 408 429
f 428 429 414
f 419 429 428
f 407 428 440
f 428 414 443
f 440 443 417
f 428 443 440
f 407 440 444
f 440 417 448
f 444 448 418
f 440 448 444
f 408 424 435
f 424 412 438
f 435 438 416
f 424 438 435
f 412 447 425
f 447 418 446
f 425 446 411
f 447 446 425
f 418 448 445
f 448 417 441
f 445 441 409
f 448 441 445
f 417 443 442
f 443 414 430
f 442 430 413
f 443 430 442
f 414 429 434
f 429 408 431
f 434 431 415
f 429 431 434
f 410 436 422
f 436 416 437
f 422 437 411
f 436 437 422
f 410 422 420
f 422 411 421
f 420 421 409
f 422 421 420
f 410 420 427
f 420 409 426
f 427 426 413
f 420 426 427
f 410 427 432
f 427 413 433
f 432 433 415
f 427 433 432
f 410 432 436
f 432 415 439
f 436 439 416
f 432 439 436
f 411 437 425
f 437 416 438
f 425 438 412
f 437 438 425
f 409 421 445
f 421 411 446
f 445 446 418
f 421 446 445
f 413 426 442
f 426 409 441
f 442 441 417
f 426 441 442
f 415 433 434
f 433 413 430
f 434 430 414
f 433 430 434
f 416 439 435
f 439 415 431
f 435 431 408
f 439 431 435
