# home_04_zones.obj  Y-up, meters
mtllib home_04_zones.mtl
o meter_panel_working_space
v 7.0000 0.0000 -0.2463
v 7.9144 0.0000 -0.2463
v 7.9144 1.9812 -0.2463
v 7.0000 1.9812 -0.2463
v 7.0000 0.0000 1.4037
v 7.9144 0.0000 1.4037
v 7.9144 1.9812 1.4037
v 7.0000 1.9812 1.4037
vn 0.0000 0.0000 -1.0000
usemtl zone_red
f 1//1 4//1 3//1 2//1
vn 0.0000 0.0000 1.0000
f 5//2 6//2 7//2 8//2
vn -1.0000 0.0000 0.0000
f 1//3 5//3 8//3 4//3
vn 1.0000 0.0000 0.0000
f 2//4 3//4 7//4 6//4
vn 0.0000 1.0000 0.0000
f 4//5 8//5 7//5 3//5
vn 0.0000 -1.0000 0.0000
f 1//6 2//6 6//6 5//6
