# home_07_zones.obj  Y-up, meters
mtllib home_07_zones.mtl
o meter_panel_working_space
v 7.0000 0.0000 -0.7485
v 7.9144 0.0000 -0.7485
v 7.9144 1.9812 -0.7485
v 7.0000 1.9812 -0.7485
v 7.0000 0.0000 0.9015
v 7.9144 0.0000 0.9015
v 7.9144 1.9812 0.9015
v 7.0000 1.9812 0.9015
vn 0.0000 0.0000 -1.0000
usemtl zone_red
f 1//1 4//1 3//1 2//1
vn 0.0000 0.0000 1.0000
f 5//2 6//2 7//2 8//2
vn -1.0000 0.0000 0.0000
f 1//3 5//3 8//3 4//3
vn 1.0000 0.0000 0.0000
f 2//4 3//4 7//4 6//4
vn 0.0000 1.0000 0.0000
f 4//5 8//5 7//5 3//5
vn 0.0000 -1.0000 0.0000
f 1//6 2//6 6//6 5//6
o base_hub_wall_space
v 7.0000 0.0000 -2.3557
v 7.9144 0.0000 -2.3557
v 7.9144 1.9812 -2.3557
v 7.0000 1.9812 -2.3557
v 7.0000 0.0000 -1.4413
v 7.9144 0.0000 -1.4413
v 7.9144 1.9812 -1.4413
v 7.0000 1.9812 -1.4413
vn 0.0000 0.0000 -1.0000
usemtl zone_red
f 9//7 12//7 11//7 10//7
vn 0.0000 0.0000 1.0000
f 13//8 14//8 15//8 16//8
vn -1.0000 0.0000 0.0000
f 9//9 13//9 16//9 12//9
vn 1.0000 0.0000 0.0000
f 10//10 11//10 15//10 14//10
vn 0.0000 1.0000 0.0000
f 12//11 16//11 15//11 11//11
vn 0.0000 -1.0000 0.0000
f 9//12 10//12 14//12 13//12
o inverter_vlld_wall_space
v 7.0000 0.0000 -3.3110
v 7.9144 0.0000 -3.3110
v 7.9144 1.9812 -3.3110
v 7.0000 1.9812 -3.3110
v 7.0000 0.0000 -2.2110
v 7.9144 0.0000 -2.2110
v 7.9144 1.9812 -2.2110
v 7.0000 1.9812 -2.2110
vn 0.0000 0.0000 -1.0000
usemtl zone_red
f 17//13 20//13 19//13 18//13
vn 0.0000 0.0000 1.0000
f 21//14 22//14 23//14 24//14
vn -1.0000 0.0000 0.0000
f 17//15 21//15 24//15 20//15
vn 1.0000 0.0000 0.0000
f 18//16 19//16 23//16 22//16
vn 0.0000 1.0000 0.0000
f 20//17 24//17 23//17 19//17
vn 0.0000 -1.0000 0.0000
f 17//18 18//18 22//18 21//18
o base_core_1_footprint
v 7.0000 0.0000 -4.4557
v 7.9144 0.0000 -4.4557
v 7.9144 1.2000 -4.4557
v 7.0000 1.2000 -4.4557
v 7.0000 0.0000 -3.5413
v 7.9144 0.0000 -3.5413
v 7.9144 1.2000 -3.5413
v 7.0000 1.2000 -3.5413
vn 0.0000 0.0000 -1.0000
usemtl zone_blue
f 25//19 28//19 27//19 26//19
vn 0.0000 0.0000 1.0000
f 29//20 30//20 31//20 32//20
vn -1.0000 0.0000 0.0000
f 25//21 29//21 32//21 28//21
vn 1.0000 0.0000 0.0000
f 26//22 27//22 31//22 30//22
vn 0.0000 1.0000 0.0000
f 28//23 32//23 31//23 27//23
vn 0.0000 -1.0000 0.0000
f 25//24 26//24 30//24 29//24
