# home_02_zones.obj  Y-up, meters
mtllib home_02_zones.mtl
o meter_panel_working_space
v 7.0000 0.0000 0.6363
v 7.9144 0.0000 0.6363
v 7.9144 1.9812 0.6363
v 7.0000 1.9812 0.6363
v 7.0000 0.0000 1.8363
v 7.9144 0.0000 1.8363
v 7.9144 1.9812 1.8363
v 7.0000 1.9812 1.8363
vn 0.0000 0.0000 -1.0000
usemtl zone_red
f 1//1 4//1 3//1 2//1
vn 0.0000 0.0000 1.0000
f 5//2 6//2 7//2 8//2
vn -1.0000 0.0000 0.0000
f 1//3 5//3 8//3 4//3
vn 1.0000 0.0000 0.0000
f 2//4 3//4 7//4 6//4
vn 0.0000 1.0000 0.0000
f 4//5 8//5 7//5 3//5
vn 0.0000 -1.0000 0.0000
f 1//6 2//6 6//6 5//6
o base_hub_wall_space
v 7.0000 0.0000 -0.4209
v 7.9144 0.0000 -0.4209
v 7.9144 1.9812 -0.4209
v 7.0000 1.9812 -0.4209
v 7.0000 0.0000 0.4935
v 7.9144 0.0000 0.4935
v 7.9144 1.9812 0.4935
v 7.0000 1.9812 0.4935
vn 0.0000 0.0000 -1.0000
usemtl zone_red
f 9//7 12//7 11//7 10//7
vn 0.0000 0.0000 1.0000
f 13//8 14//8 15//8 16//8
vn -1.0000 0.0000 0.0000
f 9//9 13//9 16//9 12//9
vn 1.0000 0.0000 0.0000
f 10//10 11//10 15//10 14//10
vn 0.0000 1.0000 0.0000
f 12//11 16//11 15//11 11//11
vn 0.0000 -1.0000 0.0000
f 9//12 10//12 14//12 13//12
o inverter_vlld_wall_space
v 7.0000 0.0000 -1.3762
v 7.9144 0.0000 -1.3762
v 7.9144 1.9812 -1.3762
v 7.0000 1.9812 -1.3762
v 7.0000 0.0000 -0.2762
v 7.9144 0.0000 -0.2762
v 7.9144 1.9812 -0.2762
v 7.0000 1.9812 -0.2762
vn 0.0000 0.0000 -1.0000
usemtl zone_red
f 17//13 20//13 19//13 18//13
vn 0.0000 0.0000 1.0000
f 21//14 22//14 23//14 24//14
vn -1.0000 0.0000 0.0000
f 17//15 21//15 24//15 20//15
vn 1.0000 0.0000 0.0000
f 18//16 19//16 23//16 22//16
vn 0.0000 1.0000 0.0000
f 20//17 24//17 23//17 19//17
vn 0.0000 -1.0000 0.0000
f 17//18 18//18 22//18 21//18
o base_core_1_footprint
v 7.0000 0.0000 -2.5209
v 7.9144 0.0000 -2.5209
v 7.9144 1.2000 -2.5209
v 7.0000 1.2000 -2.5209
v 7.0000 0.0000 -1.6065
v 7.9144 0.0000 -1.6065
v 7.9144 1.2000 -1.6065
v 7.0000 1.2000 -1.6065
vn 0.0000 0.0000 -1.0000
usemtl zone_blue
f 25//19 28//19 27//19 26//19
vn 0.0000 0.0000 1.0000
f 29//20 30//20 31//20 32//20
vn -1.0000 0.0000 0.0000
f 25//21 29//21 32//21 28//21
vn 1.0000 0.0000 0.0000
f 26//22 27//22 31//22 30//22
vn 0.0000 1.0000 0.0000
f 28//23 32//23 31//23 27//23
vn 0.0000 -1.0000 0.0000
f 25//24 26//24 30//24 29//24
o base_core_2_footprint
v 7.0000 0.0000 -3.4709
v 7.9144 0.0000 -3.4709
v 7.9144 1.2000 -3.4709
v 7.0000 1.2000 -3.4709
v 7.0000 0.0000 -2.5565
v 7.9144 0.0000 -2.5565
v 7.9144 1.2000 -2.5565
v 7.0000 1.2000 -2.5565
vn 0.0000 0.0000 -1.0000
usemtl zone_blue
f 33//25 36//25 35//25 34//25
vn 0.0000 0.0000 1.0000
f 37//26 38//26 39//26 40//26
vn -1.0000 0.0000 0.0000
f 33//27 37//27 40//27 36//27
vn 1.0000 0.0000 0.0000
f 34//28 35//28 39//28 38//28
vn 0.0000 1.0000 0.0000
f 36//29 40//29 39//29 35//29
vn 0.0000 -1.0000 0.0000
f 33//30 34//30 38//30 37//30
